{
.appVersion = "919";
DisplayStrings = (
A
);
copyright = "Nunito Font, Copyright (c) 2014, Vernon Adams (vern@newtypography.co.uk)";
customParameters = (
{
name = license;
value = "This Font Software is licensed under the SIL Open Font License, Version 1.1. This license is available with a FAQ at: http://scripts.sil.org/OFL";
},
{
name = licenseURL;
value = "http://scripts.sil.org/OFL";
},
{
name = vendorID;
value = NeWT;
},
{
name = trademark;
value = "Nunito is a trademark of Vernon Adams and may be registered in certain jurisdictions.";
},
{
name = fsType;
value = 0;
},
{
name = "Use Typo Metrics";
value = 1;
}
);
date = "2016-08-02 22:44:42 +0000";
designer = "Vernon Adams";
designerURL = "http://newtypography.co.uk";
familyName = Nunito;
featurePrefixes = (
{
automatic = 1;

glyphs = (
{
glyphname = A;
lastChange = "2016-08-29 15:56:21 +0000";
layers = (
{
anchors = (
{
name = bottom;
position = "{338, 0}";
},
{
name = ogonek;
position = "{618, 9}";
},
{
name = top;
position = "{336, 711}";
}
);
layerId = "9E718F8A-2CEA-4931-B05D-987794BD97DA";
paths = (
{
closed = 1;
nodes = (
"157 196 LINE",
"516 196 LINE",
"586 20 LINE SMOOTH",
"593 5 OFFCURVE",
"604 -1 OFFCURVE",
"616 -1 CURVE SMOOTH",
"630 -1 OFFCURVE",
"645 9 OFFCURVE",
"645 26 CURVE SMOOTH",
"645 31 OFFCURVE",
"644 36 OFFCURVE",
"642 42 CURVE",
"399 635 LINE SMOOTH",
"379 685 OFFCURVE",
"365 694 OFFCURVE",
"336 694 CURVE SMOOTH",
"309 694 OFFCURVE",
"293 685 OFFCURVE",
"274 635 CURVE SMOOTH",
"32 42 LINE",
"29 36 OFFCURVE",
"28 31 OFFCURVE",
"28 26 CURVE SMOOTH",
"28 9 OFFCURVE",
"43 -1 OFFCURVE",
"58 -1 CURVE SMOOTH",
"69 -1 OFFCURVE",
"81 5 OFFCURVE",
"87 20 CURVE SMOOTH"
);
},
{
closed = 1;
nodes = (
"498 242 LINE",
"176 242 LINE",
"336 644 LINE"
);
}
);
width = 676;
},
{
anchors = (
{
name = bottom;
position = "{349, 0}";
},
{
name = ogonek;
position = "{618, 9}";
},
{
name = top;
position = "{349, 708}";
}
);
layerId = "334510DF-EE69-4F45-9EE4-32E3392006F4";
paths = (
{
closed = 1;
nodes = (
"181 178 LINE",
"517 178 LINE",
"574 29 LINE SMOOTH",
"583 6 OFFCURVE",
"601 -3 OFFCURVE",
"619 -3 CURVE SMOOTH",
"644 -3 OFFCURVE",
"668 14 OFFCURVE",
"668 40 CURVE SMOOTH",
"668 45 OFFCURVE",
"667 52 OFFCURVE",
"665 58 CURVE SMOOTH",
"433 634 LINE SMOOTH",
"409 693 OFFCURVE",
"383 702 OFFCURVE",
"349 702 CURVE SMOOTH",
"314 702 OFFCURVE",
"289 693 OFFCURVE",
"265 634 CURVE SMOOTH",
"33 58 LINE SMOOTH",
"30 52 OFFCURVE",
"29 46 OFFCURVE",
"29 40 CURVE SMOOTH",
"29 15 OFFCURVE",
"53 -3 OFFCURVE",
"78 -3 CURVE SMOOTH",
"96 -3 OFFCURVE",
"114 6 OFFCURVE",
"123 29 CURVE SMOOTH"
);
},
{
closed = 1;
nodes = (
"489 249 LINE",
"208 249 LINE",
"349 609 LINE"
);
}
);
width = 697;
},
{
anchors = (
{
name = bottom;
position = "{363, 0}";
},
{
name = ogonek;
position = "{617, 9}";
},
{
name = top;
position = "{362, 702}";
}
);
layerId = "E1B555A7-F4E1-459C-9C1A-AE952106EEF9";
paths = (
{
closed = 1;
nodes = (
"220 162 LINE",
"507 162 LINE",
"539 70 LINE SMOOTH",
"555 22 OFFCURVE",
"589 1 OFFCURVE",
"622 1 CURVE SMOOTH",
"661 1 OFFCURVE",
"699 32 OFFCURVE",
"699 82 CURVE SMOOTH",
"699 94 OFFCURVE",
"697 107 OFFCURVE",
"692 122 CURVE",
"514 583 LINE",
"474 697 OFFCURVE",
"423 721 OFFCURVE",
"363 721 CURVE SMOOTH",
"303 721 OFFCURVE",
"252 697 OFFCURVE",
"213 583 CURVE",
"35 122 LINE",
"30 107 OFFCURVE",
"28 94 OFFCURVE",
"28 82 CURVE SMOOTH",
"28 32 OFFCURVE",
"65 1 OFFCURVE",
"105 1 CURVE SMOOTH",
"138 1 OFFCURVE",
"172 22 OFFCURVE",
"188 70 CURVE SMOOTH"
);
},
{
closed = 1;
nodes = (
"471 264 LINE",
"256 264 LINE",
"363 569 LINE"
);
}
);
width = 727;
}
);
unicode = 0041;
userData = {
anchors = (
);
b = {
};
com.typemytype.robofont.layerData = {
b = {
anchors = (
);
components = (
);
contours = (
{
points = (
{
segmentType = line;
smooth = 0;
x = 403;
y = 502;
},
{
segmentType = line;
smooth = 0;
x = 703;
y = 1275;
},
{
segmentType = line;
smooth = 0;
x = 705;
y = 1275;
},
{
segmentType = line;
smooth = 0;
x = 1004;
y = 502;
}
);
},
{
points = (
{
segmentType = curve;
smooth = 1;
x = 150;
y = 0;
},
{
smooth = 0;
x = 181;
y = 0;
},
{
smooth = 0;
x = 214;
y = 15;
},
{
segmentType = curve;
smooth = 1;
x = 229;
y = 53;
},
{
segmentType = line;
smooth = 0;
x = 356;
y = 373;
},
{
segmentType = line;
smooth = 0;
x = 1051;
y = 373;
},
{
segmentType = line;
smooth = 1;
x = 1179;
y = 53;
},
{
smooth = 0;
x = 1193;
y = 17;
},
{
smooth = 0;
x = 1228;
y = 0;
},
{
segmentType = curve;
smooth = 1;
x = 1260;
y = 0;
},
{
smooth = 0;
x = 1306;
y = 0;
},
{
smooth = 0;
x = 1354;
y = 31;
},
{
segmentType = curve;
smooth = 1;
x = 1354;
y = 80;
},
{
smooth = 0;
x = 1354;
y = 87;
},
{
smooth = 0;
x = 1352;
y = 97;
},
{
segmentType = curve;
smooth = 0;
x = 1349;
y = 108;
},
{
segmentType = line;
smooth = 1;
x = 871;
y = 1288;
},
{
smooth = 0;
x = 817;
y = 1420;
},
{
smooth = 0;
x = 777;
y = 1430;
},
{
segmentType = curve;
smooth = 1;
x = 710;
y = 1430;
},
{
smooth = 0;
x = 644;
y = 1430;
},
{
smooth = 0;
x = 596;
y = 1413;
},
{
segmentType = curve;
smooth = 1;
x = 542;
y = 1280;
},
{
segmentType = line;
smooth = 1;
x = 66;
y = 108;
},
{
smooth = 0;
x = 62;
y = 97;
},
{
smooth = 0;
x = 60;
y = 87;
},
{
segmentType = curve;
smooth = 1;
x = 60;
y = 78;
},
{
smooth = 0;
x = 60;
y = 32;
},
{
smooth = 0;
x = 106;
y = 0;
}
);
}
);
lib = {
};
name = A;
unicodes = (
);
width = 1414;
};
};
components = (
);
contours = {
};
lib = {
};
name = A;
points = {
};
segmentType = line;
unicodes = (
);
width = 1445;
x = 718;
y = 1232;
};
},
{
glyphname = AE;
lastChange = "2016-08-29 15:56:25 +0000";
layers = (
{
anchors = (
{
name = bottom;
position = "{478, 0}";
},
{
name = top;
position = "{624, 703}";
}
);
layerId = "9E718F8A-2CEA-4931-B05D-987794BD97DA";
paths = (
{
closed = 1;
nodes = (
"190 188 LINE",
"546 188 LINE",
"576 16 LINE SMOOTH",
"579 0 OFFCURVE",
"594 0 OFFCURVE",
"608 0 CURVE SMOOTH",
"909 0 LINE SMOOTH",
"924 0 OFFCURVE",
"931 12 OFFCURVE",
"931 22 CURVE SMOOTH",
"931 38 OFFCURVE",
"918 55 OFFCURVE",
"897 55 CURVE SMOOTH",
"630 55 LINE",
"584 331 LINE",
"882 331 LINE SMOOTH",
"898 331 OFFCURVE",
"907 341 OFFCURVE",
"907 353 CURVE SMOOTH",
"907 369 OFFCURVE",
"894 385 OFFCURVE",
"873 385 CURVE SMOOTH",
"575 385 LINE",
"534 638 LINE",
"897 638 LINE SMOOTH",
"914 638 OFFCURVE",
"920 648 OFFCURVE",
"920 660 CURVE SMOOTH",
"920 675 OFFCURVE",
"908 693 OFFCURVE",
"887 693 CURVE SMOOTH",
"490 693 LINE SMOOTH",
"471 693 OFFCURVE",
"451 688 OFFCURVE",
"418 638 CURVE SMOOTH",
"30 39 LINE SMOOTH",
"26 33 OFFCURVE",
"24 28 OFFCURVE",
"24 24 CURVE SMOOTH",
"24 9 OFFCURVE",
"35 -1 OFFCURVE",
"50 -1 CURVE SMOOTH",
"60 -1 OFFCURVE",
"71 3 OFFCURVE",
"79 16 CURVE SMOOTH"
);
},
{
closed = 1;
nodes = (
"474 637 LINE",
"539 244 LINE",
"228 244 LINE",
"472 637 LINE"
);
}
);
width = 955;
},
{
anchors = (
{
name = bottom;
position = "{480, 0}";
},
{
name = top;
position = "{630, 708}";
}
);
layerId = "334510DF-EE69-4F45-9EE4-32E3392006F4";
paths = (
{
closed = 1;
nodes = (
"209 179 LINE",
"538 179 LINE",
"563 30 LINE SMOOTH",
"567 6 OFFCURVE",
"590 0 OFFCURVE",
"613 0 CURVE SMOOTH",
"903 0 LINE SMOOTH",
"928 0 OFFCURVE",
"939 17 OFFCURVE",
"939 35 CURVE SMOOTH",
"939 55 OFFCURVE",
"923 78 OFFCURVE",
"896 78 CURVE SMOOTH",
"652 78 LINE",
"613 320 LINE",
"879 320 LINE SMOOTH",
"903 320 OFFCURVE",
"915 336 OFFCURVE",
"915 354 CURVE SMOOTH",
"915 375 OFFCURVE",
"899 397 OFFCURVE",
"871 397 CURVE SMOOTH",
"602 397 LINE",
"566 620 LINE",
"895 620 LINE SMOOTH",
"919 620 OFFCURVE",
"930 637 OFFCURVE",
"930 654 CURVE SMOOTH",
"930 675 OFFCURVE",
"915 698 OFFCURVE",
"887 698 CURVE SMOOTH",
"486 698 LINE SMOOTH",
"449 698 OFFCURVE",
"419 688 OFFCURVE",
"381 618 CURVE",
"33 60 LINE SMOOTH",
"28 51 OFFCURVE",
"26 43 OFFCURVE",
"26 37 CURVE SMOOTH",
"26 14 OFFCURVE",
"44 0 OFFCURVE",
"67 0 CURVE SMOOTH",
"84 0 OFFCURVE",
"103 8 OFFCURVE",
"114 30 CURVE"
);
},
{
closed = 1;
nodes = (
"472 629 LINE",
"529 250 LINE",
"249 250 LINE",
"470 629 LINE"
);
}
);
width = 960;
},
{
anchors = (
{
name = bottom;
position = "{486, 0}";
},
{
name = top;
position = "{628, 709}";
}
);
layerId = "E1B555A7-F4E1-459C-9C1A-AE952106EEF9";
paths = (
{
closed = 1;
nodes = (
"248 159 LINE",
"522 159 LINE",
"531 118 LINE",
"542 32 OFFCURVE",
"563 0 OFFCURVE",
"622 0 CURVE SMOOTH",
"871 0 LINE SMOOTH",
"922 0 OFFCURVE",
"954 11 OFFCURVE",
"954 59 CURVE SMOOTH",
"954 120 OFFCURVE",
"930 132 OFFCURVE",
"862 132 CURVE SMOOTH",
"699 132 LINE",
"672 294 LINE",
"854 294 LINE SMOOTH",
"909 294 OFFCURVE",
"933 305 OFFCURVE",
"933 358 CURVE SMOOTH",
"933 416 OFFCURVE",
"889 427 OFFCURVE",
"843 427 CURVE SMOOTH",
"658 427 LINE",
"634 577 LINE",
"863 577 LINE SMOOTH",
"919 577 OFFCURVE",
"951 587 OFFCURVE",
"951 641 CURVE SMOOTH",
"951 695 OFFCURVE",
"908 710 OFFCURVE",
"860 710 CURVE SMOOTH",
"478 709 LINE SMOOTH",
"381 709 OFFCURVE",
"336 640 OFFCURVE",
"265 491 CURVE",
"59 148 LINE",
"45 120 OFFCURVE",
"32 87 OFFCURVE",
"31 63 CURVE SMOOTH",
"31 24 OFFCURVE",
"62 2 OFFCURVE",
"97 2 CURVE SMOOTH",
"143 2 OFFCURVE",
"169 38 OFFCURVE",
"200 92 CURVE"
);
},
{
closed = 1;
nodes = (
"467 610 LINE",
"510 263 LINE",
"292 263 LINE",
"465 610 LINE"
);
}
);
width = 972;
}
);
unicode = 00C6;
userData = {
com.typemytype.robofont.layerData = {
b = {
anchors = (
);
components = (
);
contours = (
);
lib = {
};
name = AE;
unicodes = (
);
width = 1976;
};
};
};
},
{
glyphname = B;
lastChange = "2016-08-29 15:56:25 +0000";
layers = (
{
anchors = (
{
name = bottom;
position = "{303, 0}";
},
{
name = top;
position = "{312, 702}";
}
);
layerId = "9E718F8A-2CEA-4931-B05D-987794BD97DA";
paths = (
{
closed = 1;
nodes = (
"119 693 LINE SMOOTH",
"103 693 OFFCURVE",
"88 681 OFFCURVE",
"88 664 CURVE SMOOTH",
"88 29 LINE SMOOTH",
"88 12 OFFCURVE",
"103 0 OFFCURVE",
"119 0 CURVE SMOOTH",
"348 0 LINE SMOOTH",
"508 0 OFFCURVE",
"566 90 OFFCURVE",
"566 187 CURVE SMOOTH",
"566 290 OFFCURVE",
"494 353 OFFCURVE",
"385 361 CURVE",
"385 363 LINE",
"484 369 OFFCURVE",
"539 447 OFFCURVE",
"539 517 CURVE SMOOTH",
"539 625 OFFCURVE",
"472 693 OFFCURVE",
"296 693 CURVE SMOOTH"
);
},
{
closed = 1;
nodes = (
"147 382 LINE",
"147 646 LINE",
"303 646 LINE SMOOTH",
"388 646 OFFCURVE",
"479 626 OFFCURVE",
"479 520 CURVE SMOOTH",
"479 424 OFFCURVE",
"414 382 OFFCURVE",
"297 382 CURVE SMOOTH"
);
},
{
closed = 1;
nodes = (
"147 47 LINE",
"147 335 LINE",
"295 335 LINE SMOOTH",
"432 335 OFFCURVE",
"503 294 OFFCURVE",
"503 195 CURVE SMOOTH",
"503 83 OFFCURVE",
"448 47 OFFCURVE",
"330 47 CURVE SMOOTH"
);
}
);
width = 606;
},
{
anchors = (
{
name = bottom;
position = "{322, 0}";
},
{
name = top;
position = "{319, 702}";
}
);
layerId = "334510DF-EE69-4F45-9EE4-32E3392006F4";
paths = (
{
closed = 1;
nodes = (
"135 698 LINE SMOOTH",
"108 698 OFFCURVE",
"86 677 OFFCURVE",
"86 650 CURVE SMOOTH",
"86 47 LINE SMOOTH",
"86 21 OFFCURVE",
"108 0 OFFCURVE",
"135 0 CURVE SMOOTH",
"362 0 LINE SMOOTH",
"526 0 OFFCURVE",
"601 92 OFFCURVE",
"601 187 CURVE SMOOTH",
"601 293 OFFCURVE",
"534 352 OFFCURVE",
"431 363 CURVE",
"431 365 LINE",
"525 377 OFFCURVE",
"571 444 OFFCURVE",
"571 524 CURVE SMOOTH",
"571 629 OFFCURVE",
"501 698 OFFCURVE",
"332 698 CURVE SMOOTH"
);
},
{
closed = 1;
nodes = (
"184 397 LINE",
"184 622 LINE",
"328 622 LINE SMOOTH",
"408 622 OFFCURVE",
"476 608 OFFCURVE",
"476 518 CURVE SMOOTH",
"476 431 OFFCURVE",
"426 397 OFFCURVE",
"317 397 CURVE SMOOTH"
);
},
{
closed = 1;
nodes = (
"184 77 LINE",
"184 321 LINE",
"307 321 LINE SMOOTH",
"432 321 OFFCURVE",
"498 297 OFFCURVE",
"498 199 CURVE SMOOTH",
"498 100 OFFCURVE",
"446 77 OFFCURVE",
"342 77 CURVE SMOOTH"
);
}
);
width = 644;
},
{
anchors = (
{
name = bottom;
position = "{348, 0}";
},
{
name = top;
position = "{344, 702}";
}
);
layerId = "E1B555A7-F4E1-459C-9C1A-AE952106EEF9";
paths = (
{
closed = 1;
nodes = (
"186 710 LINE SMOOTH",
"125 710 OFFCURVE",
"73 686 OFFCURVE",
"73 620 CURVE SMOOTH",
"73 138 LINE SMOOTH",
"73 16 OFFCURVE",
"113 0 OFFCURVE",
"186 0 CURVE SMOOTH",
"405 0 LINE SMOOTH",
"575 0 OFFCURVE",
"652 98 OFFCURVE",
"652 198 CURVE SMOOTH",
"652 285 OFFCURVE",
"590 355 OFFCURVE",
"493 370 CURVE",
"493 372 LINE",
"573 385 OFFCURVE",
"626 457 OFFCURVE",
"626 531 CURVE SMOOTH",
"626 705 OFFCURVE",
"481 710 OFFCURVE",
"353 710 CURVE SMOOTH"
);
},
{
closed = 1;
nodes = (
"245 405 LINE",
"245 599 LINE",
"318 599 LINE SMOOTH",
"394 599 OFFCURVE",
"457 583 OFFCURVE",
"457 503 CURVE SMOOTH",
"457 423 OFFCURVE",
"395 405 OFFCURVE",
"308 405 CURVE SMOOTH"
);
},
{
closed = 1;
nodes = (
"245 111 LINE",
"245 318 LINE",
"311 318 LINE SMOOTH",
"411 318 OFFCURVE",
"476 296 OFFCURVE",
"476 218 CURVE SMOOTH",
"476 129 OFFCURVE",
"420 111 OFFCURVE",
"316 111 CURVE SMOOTH"
);
}
);
width = 695;
}
);
unicode = 0042;
userData = {
anchors = (
);
b = {
};
com.typemytype.robofont.layerData = {
b = {
anchors = (
);
components = (
);
contours = (
{
points = (
{
segmentType = curve;
smooth = 1;
x = 266;
y = 0;
},
{
segmentType = line;
smooth = 1;
x = 1035;
y = 0;
},
{
smooth = 0;
x = 1084;
y = 0;
},
{
smooth = 0;
x = 1108;
y = 36;
},
{
segmentType = curve;
smooth = 1;
x = 1108;
y = 73;
},
{
smooth = 0;
x = 1108;
y = 109;
},
{
smooth = 0;
x = 1084;
y = 145;
},
{
segmentType = curve;
smooth = 1;
x = 1035;
y = 145;
},
{
segmentType = line;
smooth = 0;
x = 353;
y = 145;
},
{
segmentType = line;
smooth = 0;
x = 353;
y = 662;
},
{
segmentType = line;
smooth = 1;
x = 975;
y = 662;
},
{
smooth = 0;
x = 1024;
y = 662;
},
{
smooth = 0;
x = 1049;
y = 698;
},
{
segmentType = curve;
smooth = 1;
x = 1049;
y = 734;
},
{
smooth = 0;
x = 1049;
y = 770;
},
{
smooth = 0;
x = 1026;
y = 806;
},
{
segmentType = curve;
smooth = 1;
x = 975;
y = 806;
},
{
segmentType = line;
smooth = 0;
x = 353;
y = 806;
},
{
segmentType = line;
smooth = 0;
x = 353;
y = 1281;
},
{
segmentType = line;
smooth = 1;
x = 1007;
y = 1281;
},
{
smooth = 0;
x = 1056;
y = 1281;
},
{
smooth = 0;
x = 1080;
y = 1317;
},
{
segmentType = curve;
smooth = 1;
x = 1080;
y = 1354;
},
{
smooth = 0;
x = 1080;
y = 1390;
},
{
smooth = 0;
x = 1056;
y = 1426;
},
{
segmentType = curve;
smooth = 1;
x = 1007;
y = 1426;
},
{
segmentType = line;
smooth = 1;
x = 261;
y = 1426;
},
{
smooth = 0;
x = 213;
y = 1426;
},
{
smooth = 0;
x = 178;
y = 1383;
},
{
segmentType = curve;
smooth = 1;
x = 178;
y = 1340;
},
{
segmentType = line;
smooth = 1;
x = 178;
y = 86;
},
{
smooth = 0;
x = 178;
y = 41;
},
{
smooth = 0;
x = 222;
y = 0;
}
);
}
);
lib = {
};
name = B;
unicodes = (
);
width = 1292;
};
};
components = (
);
contours = {
};
lib = {
};
name = B;
points = {
};
segmentType = curve;
unicodes = (
);
width = 1395;
x = 676;
y = 1260;
};
},
{
glyphname = C;
lastChange = "2016-08-29 15:56:25 +0000";
layers = (
{
anchors = (
{
name = bottom;
position = "{371, 7}";
},
{
name = top;
position = "{385, 702}";
}
);
layerId = "9E718F8A-2CEA-4931-B05D-987794BD97DA";
paths = (
{
closed = 1;
nodes = (
"160 689 OFFCURVE",
"68 505 OFFCURVE",
"68 338 CURVE SMOOTH",
"68 158 OFFCURVE",
"158 -11 OFFCURVE",
"381 -11 CURVE SMOOTH",
"465 -11 OFFCURVE",
"524 20 OFFCURVE",
"557 42 CURVE SMOOTH",
"573 52 OFFCURVE",
"580 63 OFFCURVE",
"580 72 CURVE SMOOTH",
"580 83 OFFCURVE",
"568 92 OFFCURVE",
"556 92 CURVE SMOOTH",
"551 92 OFFCURVE",
"545 90 OFFCURVE",
"540 86 CURVE",
"493 58 OFFCURVE",
"452 38 OFFCURVE",
"385 38 CURVE SMOOTH",
"188 38 OFFCURVE",
"132 204 OFFCURVE",
"132 338 CURVE SMOOTH",
"132 472 OFFCURVE",
"191 641 OFFCURVE",
"384 641 CURVE SMOOTH",
"481 641 OFFCURVE",
"514 618 OFFCURVE",
"530 607 CURVE SMOOTH",
"537 604 OFFCURVE",
"542 602 OFFCURVE",
"546 602 CURVE SMOOTH",
"559 602 OFFCURVE",
"565 613 OFFCURVE",
"565 624 CURVE SMOOTH",
"565 631 OFFCURVE",
"563 638 OFFCURVE",
"558 642 CURVE",
"555 646 OFFCURVE",
"504 689 OFFCURVE",
"384 689 CURVE SMOOTH"
);
}
);
width = 661;
},
{
anchors = (
{
name = bottom;
position = "{376, 3}";
},
{
name = top;
position = "{383, 702}";
}
);
layerId = "334510DF-EE69-4F45-9EE4-32E3392006F4";
paths = (
{
closed = 1;
nodes = (
"182 708 OFFCURVE",
"60 547 OFFCURVE",
"60 346 CURVE SMOOTH",
"60 146 OFFCURVE",
"177 -11 OFFCURVE",
"383 -11 CURVE SMOOTH",
"474 -11 OFFCURVE",
"533 15 OFFCURVE",
"575 42 CURVE SMOOTH",
"593 54 OFFCURVE",
"600 67 OFFCURVE",
"600 81 CURVE SMOOTH",
"600 101 OFFCURVE",
"583 118 OFFCURVE",
"563 118 CURVE SMOOTH",
"557 118 OFFCURVE",
"551 116 OFFCURVE",
"544 113 CURVE SMOOTH",
"503 89 OFFCURVE",
"461 68 OFFCURVE",
"397 68 CURVE SMOOTH",
"232 68 OFFCURVE",
"165 196 OFFCURVE",
"165 348 CURVE SMOOTH",
"165 500 OFFCURVE",
"233 629 OFFCURVE",
"395 629 CURVE SMOOTH",
"477 629 OFFCURVE",
"514 604 OFFCURVE",
"536 594 CURVE SMOOTH",
"542 591 OFFCURVE",
"547 590 OFFCURVE",
"552 590 CURVE SMOOTH",
"573 590 OFFCURVE",
"589 609 OFFCURVE",
"589 629 CURVE SMOOTH",
"589 642 OFFCURVE",
"583 654 OFFCURVE",
"567 663 CURVE SMOOTH",
"533 682 OFFCURVE",
"478 708 OFFCURVE",
"391 708 CURVE SMOOTH"
);
}
);
width = 661;
},
{
anchors = (
{
name = bottom;
position = "{390, 0}";
},
{
name = top;
position = "{403, 702}";
}
);
layerId = "E1B555A7-F4E1-459C-9C1A-AE952106EEF9";
paths = (
{
closed = 1;
nodes = (
"206 726 OFFCURVE",
"50 586 OFFCURVE",
"50 348 CURVE SMOOTH",
"50 110 OFFCURVE",
"208 -19 OFFCURVE",
"400 -19 CURVE SMOOTH",
"499 -19 OFFCURVE",
"568 8 OFFCURVE",
"620 48 CURVE SMOOTH",
"646 68 OFFCURVE",
"655 91 OFFCURVE",
"655 111 CURVE SMOOTH",
"655 146 OFFCURVE",
"629 174 OFFCURVE",
"601 174 CURVE SMOOTH",
"594 174 OFFCURVE",
"587 172 OFFCURVE",
"581 169 CURVE SMOOTH",
"530 141 OFFCURVE",
"463 124 OFFCURVE",
"415 124 CURVE SMOOTH",
"296 124 OFFCURVE",
"236 205 OFFCURVE",
"236 353 CURVE SMOOTH",
"236 555 OFFCURVE",
"323 583 OFFCURVE",
"421 583 CURVE SMOOTH",
"474 583 OFFCURVE",
"522 566 OFFCURVE",
"556 551 CURVE SMOOTH",
"567 546 OFFCURVE",
"577 544 OFFCURVE",
"587 544 CURVE SMOOTH",
"624 544 OFFCURVE",
"648 577 OFFCURVE",
"648 612 CURVE SMOOTH",
"648 636 OFFCURVE",
"637 661 OFFCURVE",
"611 678 CURVE",
"583 692 OFFCURVE",
"525 726 OFFCURVE",
"411 726 CURVE SMOOTH"
);
}
);
width = 684;
}
);
unicode = 0043;
userData = {
anchors = (
);
b = {
};
com.typemytype.robofont.layerData = {
b = {
anchors = (
);
components = (
);
contours = (
);
lib = {
};
name = C;
unicodes = (
);
width = 1353.8900;
};
};
components = (
);
contours = (
);
lib = {
};
name = C;
unicodes = (
);
width = 1354;
};
},
{
glyphname = D;
lastChange = "2016-08-29 15:56:25 +0000";
layers = (
{
anchors = (
{
name = bottom;
position = "{361, 0}";
},
{
name = center;
position = "{361, 347}";
},
{
name = mid;
position = "{145, 341}";
},
{
name = top;
position = "{388, 702}";
}
);
layerId = "9E718F8A-2CEA-4931-B05D-987794BD97DA";
paths = (
{
closed = 1;
nodes = (
"119 696 LINE SMOOTH",
"102 696 OFFCURVE",
"88 683 OFFCURVE",
"88 667 CURVE SMOOTH",
"88 32 LINE SMOOTH",
"88 17 OFFCURVE",
"102 3 OFFCURVE",
"119 3 CURVE SMOOTH",
"280 3 LINE SMOOTH",
"518 3 OFFCURVE",
"652 120 OFFCURVE",
"652 349 CURVE SMOOTH",
"652 579 OFFCURVE",
"520 696 OFFCURVE",
"284 696 CURVE SMOOTH"
);
},
{
closed = 1;
nodes = (
"149 51 LINE",
"149 648 LINE",
"261 648 LINE SMOOTH",
"482 648 OFFCURVE",
"589 566 OFFCURVE",
"589 349 CURVE SMOOTH",
"589 159 OFFCURVE",
"507 51 OFFCURVE",
"281 51 CURVE SMOOTH"
);
}
);
width = 721;
},
{
anchors = (
{
name = bottom;
position = "{369, 0}";
},
{
name = center;
position = "{369, 349}";
},
{
name = mid;
position = "{146, 356}";
},
{
name = top;
position = "{375, 702}";
}
);
layerId = "334510DF-EE69-4F45-9EE4-32E3392006F4";
paths = (
{
closed = 1;
nodes = (
"136 699 LINE SMOOTH",
"108 699 OFFCURVE",
"86 678 OFFCURVE",
"86 651 CURVE SMOOTH",
"86 49 LINE SMOOTH",
"86 23 OFFCURVE",
"108 1 OFFCURVE",
"136 1 CURVE SMOOTH",
"307 1 LINE SMOOTH",
"541 1 OFFCURVE",
"677 122 OFFCURVE",
"677 349 CURVE SMOOTH",
"677 577 OFFCURVE",
"547 699 OFFCURVE",
"302 699 CURVE SMOOTH"
);
},
{
closed = 1;
nodes = (
"185 80 LINE",
"185 621 LINE",
"295 621 LINE SMOOTH",
"484 621 OFFCURVE",
"575 548 OFFCURVE",
"575 350 CURVE SMOOTH",
"575 172 OFFCURVE",
"508 80 OFFCURVE",
"312 80 CURVE SMOOTH"
);
}
);
width = 737;
},
{
anchors = (
{
name = bottom;
position = "{377, 0}";
},
{
name = center;
position = "{377, 355}";
},
{
name = mid;
position = "{167, 358}";
},
{
name = top;
position = "{364, 702}";
}
);
layerId = "E1B555A7-F4E1-459C-9C1A-AE952106EEF9";
paths = (
{
closed = 1;
nodes = (
"196 710 LINE SMOOTH",
"105 710 OFFCURVE",
"73 671 OFFCURVE",
"73 573 CURVE SMOOTH",
"73 137 LINE SMOOTH",
"73 69 OFFCURVE",
"92 0 OFFCURVE",
"162 0 CURVE SMOOTH",
"315 0 LINE SMOOTH",
"570 0 OFFCURVE",
"704 119 OFFCURVE",
"704 350 CURVE SMOOTH",
"704 588 OFFCURVE",
"565 710 OFFCURVE",
"301 710 CURVE SMOOTH"
);
},
{
closed = 1;
nodes = (
"251 123 LINE",
"251 587 LINE",
"311 587 LINE SMOOTH",
"457 587 OFFCURVE",
"515 528 OFFCURVE",
"515 354 CURVE SMOOTH",
"515 179 OFFCURVE",
"456 123 OFFCURVE",
"307 123 CURVE SMOOTH"
);
}
);
width = 753;
}
);
unicode = 0044;
userData = {
anchors = (
);
b = {
};
com.typemytype.robofont.layerData = {
b = {
anchors = (
);
components = (
);
contours = (
{
points = (
{
segmentType = curve;
smooth = 1;
x = 266;
y = 0;
},
{
segmentType = line;
smooth = 1;
x = 1035;
y = 0;
},
{
smooth = 0;
x = 1084;
y = 0;
},
{
smooth = 0;
x = 1108;
y = 34;
},
{
segmentType = curve;
smooth = 1;
x = 1108;
y = 71;
},
{
smooth = 0;
x = 1108;
y = 107;
},
{
smooth = 0;
x = 1084;
y = 141;
},
{
segmentType = curve;
smooth = 1;
x = 1035;
y = 141;
},
{
segmentType = line;
smooth = 0;
x = 356;
y = 141;
},
{
segmentType = line;
smooth = 0;
x = 356;
y = 665;
},
{
segmentType = line;
smooth = 1;
x = 975;
y = 665;
},
{
smooth = 0;
x = 1024;
y = 665;
},
{
smooth = 0;
x = 1049;
y = 698;
},
{
segmentType = curve;
smooth = 1;
x = 1049;
y = 734;
},
{
smooth = 0;
x = 1049;
y = 770;
},
{
smooth = 0;
x = 1026;
y = 803;
},
{
segmentType = curve;
smooth = 1;
x = 975;
y = 803;
},
{
segmentType = line;
smooth = 0;
x = 356;
y = 803;
},
{
segmentType = line;
smooth = 0;
x = 356;
y = 1285;
},
{
segmentType = line;
smooth = 1;
x = 1007;
y = 1285;
},
{
smooth = 0;
x = 1056;
y = 1285;
},
{
smooth = 0;
x = 1080;
y = 1319;
},
{
segmentType = curve;
smooth = 1;
x = 1080;
y = 1356;
},
{
smooth = 0;
x = 1080;
y = 1392;
},
{
smooth = 0;
x = 1056;
y = 1426;
},
{
segmentType = curve;
smooth = 1;
x = 1007;
y = 1426;
},
{
segmentType = line;
smooth = 1;
x = 261;
y = 1426;
},
{
smooth = 0;
x = 213;
y = 1426;
},
{
smooth = 0;
x = 178;
y = 1383;
},
{
segmentType = curve;
smooth = 1;
x = 178;
y = 1340;
},
{
segmentType = line;
smooth = 1;
x = 178;
y = 86;
},
{
smooth = 0;
x = 178;
y = 41;
},
{
smooth = 0;
x = 222;
y = 0;
}
);
}
);
lib = {
};
name = D;
unicodes = (
);
width = 1499;
};
};
components = (
);
contours = (
);
lib = {
};
name = D;
unicodes = (
);
width = 1535;
};
},
{
glyphname = Dcroat;
lastChange = "2016-08-29 15:56:25 +0000";
layers = (
{
components = (
{
name = D;
}
);
layerId = "9E718F8A-2CEA-4931-B05D-987794BD97DA";
paths = (
{
closed = 1;
nodes = (
"27 374 LINE SMOOTH",
"10 374 OFFCURVE",
"0 365 OFFCURVE",
"0 351 CURVE SMOOTH",
"0 337 OFFCURVE",
"12 329 OFFCURVE",
"30 329 CURVE SMOOTH",
"258 329 LINE SMOOTH",
"275 329 OFFCURVE",
"285 337 OFFCURVE",
"285 351 CURVE SMOOTH",
"285 365 OFFCURVE",
"275 374 OFFCURVE",
"258 374 CURVE SMOOTH"
);
}
);
width = 726;
},
{
components = (
{
name = D;
}
);
layerId = "334510DF-EE69-4F45-9EE4-32E3392006F4";
paths = (
{
closed = 1;
nodes = (
"38 387 LINE SMOOTH",
"13 387 OFFCURVE",
"-3 374 OFFCURVE",
"-3 354 CURVE SMOOTH",
"-3 334 OFFCURVE",
"12 321 OFFCURVE",
"36 321 CURVE SMOOTH",
"265 321 LINE SMOOTH",
"290 321 OFFCURVE",
"305 334 OFFCURVE",
"305 354 CURVE SMOOTH",
"305 374 OFFCURVE",
"290 387 OFFCURVE",
"265 387 CURVE SMOOTH"
);
}
);
width = 735;
},
{
components = (
{
name = D;
}
);
layerId = "E1B555A7-F4E1-459C-9C1A-AE952106EEF9";
paths = (
{
closed = 1;
nodes = (
"59 417 LINE SMOOTH",
"18 417 OFFCURVE",
"-7 396 OFFCURVE",
"-7 361 CURVE SMOOTH",
"-7 326 OFFCURVE",
"14 305 OFFCURVE",
"47 305 CURVE SMOOTH",
"279 305 LINE SMOOTH",
"319 305 OFFCURVE",
"344 326 OFFCURVE",
"344 361 CURVE SMOOTH",
"344 396 OFFCURVE",
"319 417 OFFCURVE",
"279 417 CURVE SMOOTH"
);
}
);
width = 753;
}
);
unicode = 0110;
},
{
glyphname = E;
lastChange = "2016-08-29 15:56:25 +0000";
layers = (
{
anchors = (
{
name = bottom;
position = "{308, 0}";
},
{
name = ogonek;
position = "{391, 4}";
},
{
name = top;
position = "{309, 702}";
},
{
name = topleft;
position = "{10, 693}";
}
);
layerId = "9E718F8A-2CEA-4931-B05D-987794BD97DA";
paths = (
{
closed = 1;
nodes = (
"149 48 LINE",
"149 334 LINE",
"472 334 LINE SMOOTH",
"491 334 OFFCURVE",
"500 344 OFFCURVE",
"500 358 CURVE SMOOTH",
"500 371 OFFCURVE",
"492 381 OFFCURVE",
"472 381 CURVE SMOOTH",
"149 381 LINE",
"149 645 LINE",
"485 645 LINE SMOOTH",
"504 645 OFFCURVE",
"514 655 OFFCURVE",
"514 669 CURVE SMOOTH",
"514 683 OFFCURVE",
"504 693 OFFCURVE",
"485 693 CURVE SMOOTH",
"116 693 LINE SMOOTH",
"100 693 OFFCURVE",
"88 677 OFFCURVE",
"88 664 CURVE SMOOTH",
"88 29 LINE SMOOTH",
"88 15 OFFCURVE",
"104 0 OFFCURVE",
"119 0 CURVE SMOOTH",
"501 0 LINE SMOOTH",
"520 0 OFFCURVE",
"529 10 OFFCURVE",
"529 25 CURVE SMOOTH",
"529 39 OFFCURVE",
"520 48 OFFCURVE",
"501 48 CURVE SMOOTH"
);
}
);
width = 596;
},
{
anchors = (
{
name = bottom;
position = "{322, 0}";
},
{
name = ogonek;
position = "{400, 4}";
},
{
name = top;
position = "{318, 702}";
},
{
name = topleft;
position = "{10, 698}";
}
);
layerId = "334510DF-EE69-4F45-9EE4-32E3392006F4";
paths = (
{
closed = 1;
nodes = (
"185 79 LINE",
"185 320 LINE",
"478 320 LINE SMOOTH",
"504 320 OFFCURVE",
"518 339 OFFCURVE",
"518 359 CURVE SMOOTH",
"518 378 OFFCURVE",
"505 397 OFFCURVE",
"478 397 CURVE SMOOTH",
"185 397 LINE",
"185 619 LINE",
"495 619 LINE SMOOTH",
"521 619 OFFCURVE",
"534 639 OFFCURVE",
"534 659 CURVE SMOOTH",
"534 678 OFFCURVE",
"521 698 OFFCURVE",
"495 698 CURVE SMOOTH",
"133 698 LINE SMOOTH",
"106 698 OFFCURVE",
"86 674 OFFCURVE",
"86 650 CURVE SMOOTH",
"86 48 LINE SMOOTH",
"86 22 OFFCURVE",
"110 0 OFFCURVE",
"135 0 CURVE SMOOTH",
"507 0 LINE SMOOTH",
"534 0 OFFCURVE",
"546 20 OFFCURVE",
"546 39 CURVE SMOOTH",
"546 59 OFFCURVE",
"534 79 OFFCURVE",
"507 79 CURVE SMOOTH"
);
}
);
width = 606;
},
{
anchors = (
{
name = bottom;
position = "{333, 0}";
},
{
name = ogonek;
position = "{408, 4}";
},
{
name = top;
position = "{325, 702}";
},
{
name = topleft;
position = "{10, 711}";
}
);
layerId = "E1B555A7-F4E1-459C-9C1A-AE952106EEF9";
paths = (
{
closed = 1;
nodes = (
"248 131 LINE",
"248 295 LINE",
"478 295 LINE SMOOTH",
"516 295 OFFCURVE",
"546 323 OFFCURVE",
"546 360 CURVE SMOOTH",
"546 398 OFFCURVE",
"516 427 OFFCURVE",
"478 427 CURVE SMOOTH",
"248 427 LINE",
"248 579 LINE",
"500 579 LINE SMOOTH",
"538 579 OFFCURVE",
"568 606 OFFCURVE",
"568 644 CURVE SMOOTH",
"568 681 OFFCURVE",
"538 710 OFFCURVE",
"500 710 CURVE SMOOTH",
"186 710 LINE SMOOTH",
"85 710 OFFCURVE",
"73 651 OFFCURVE",
"73 568 CURVE SMOOTH",
"73 125 LINE SMOOTH",
"73 66 OFFCURVE",
"95 0 OFFCURVE",
"161 0 CURVE SMOOTH",
"512 0 LINE SMOOTH",
"547 0 OFFCURVE",
"575 28 OFFCURVE",
"575 65 CURVE SMOOTH",
"575 103 OFFCURVE",
"547 131 OFFCURVE",
"512 131 CURVE SMOOTH"
);
}
);
width = 610;
}
);
unicode = 0045;
userData = {
anchors = (
);
b = {
};
com.typemytype.robofont.layerData = {
b = {
anchors = (
);
components = (
);
contours = (
);
lib = {
};
name = E;
unicodes = (
);
width = 1234;
};
};
components = (
);
contours = (
);
lib = {
};
name = E;
unicodes = (
);
width = 1258;
};
},
{
glyphname = F;
lastChange = "2016-08-29 15:56:25 +0000";
layers = (
{
anchors = (
{
name = bottom;
position = "{274, 0}";
},
{
name = top;
position = "{274, 693}";
}
);
layerId = "9E718F8A-2CEA-4931-B05D-987794BD97DA";
paths = (
{
closed = 1;
nodes = (
"150 385 LINE",
"150 645 LINE",
"465 645 LINE SMOOTH",
"484 645 OFFCURVE",
"493 655 OFFCURVE",
"493 669 CURVE SMOOTH",
"493 683 OFFCURVE",
"484 693 OFFCURVE",
"465 693 CURVE SMOOTH",
"117 693 LINE SMOOTH",
"102 693 OFFCURVE",
"89 683 OFFCURVE",
"89 665 CURVE SMOOTH",
"89 28 LINE SMOOTH",
"89 9 OFFCURVE",
"104 0 OFFCURVE",
"120 0 CURVE SMOOTH",
"135 0 OFFCURVE",
"150 8 OFFCURVE",
"150 28 CURVE SMOOTH",
"150 337 LINE",
"453 337 LINE SMOOTH",
"472 337 OFFCURVE",
"482 348 OFFCURVE",
"482 362 CURVE SMOOTH",
"482 376 OFFCURVE",
"472 385 OFFCURVE",
"453 385 CURVE SMOOTH"
);
}
);
width = 548;
},
{
anchors = (
{
name = bottom;
position = "{281, 0}";
},
{
name = top;
position = "{281, 698}";
}
);
layerId = "334510DF-EE69-4F45-9EE4-32E3392006F4";
paths = (
{
closed = 1;
nodes = (
"185 400 LINE",
"185 619 LINE",
"476 619 LINE SMOOTH",
"502 619 OFFCURVE",
"515 639 OFFCURVE",
"515 659 CURVE SMOOTH",
"515 678 OFFCURVE",
"502 698 OFFCURVE",
"476 698 CURVE SMOOTH",
"133 698 LINE SMOOTH",
"108 698 OFFCURVE",
"86 678 OFFCURVE",
"86 650 CURVE SMOOTH",
"86 47 LINE SMOOTH",
"86 16 OFFCURVE",
"110 0 OFFCURVE",
"135 0 CURVE SMOOTH",
"160 0 OFFCURVE",
"185 15 OFFCURVE",
"185 47 CURVE SMOOTH",
"185 323 LINE",
"462 323 LINE SMOOTH",
"489 323 OFFCURVE",
"502 342 OFFCURVE",
"502 362 CURVE SMOOTH",
"502 381 OFFCURVE",
"489 400 OFFCURVE",
"462 400 CURVE SMOOTH"
);
}
);
width = 562;
},
{
anchors = (
{
name = bottom;
position = "{285, 0}";
},
{
name = top;
position = "{285, 711}";
}
);
layerId = "E1B555A7-F4E1-459C-9C1A-AE952106EEF9";
paths = (
{
closed = 1;
nodes = (
"254 429 LINE",
"254 579 LINE",
"491 579 LINE SMOOTH",
"526 579 OFFCURVE",
"554 606 OFFCURVE",
"554 644 CURVE SMOOTH",
"554 681 OFFCURVE",
"526 710 OFFCURVE",
"491 710 CURVE SMOOTH",
"187 710 LINE SMOOTH",
"126 710 OFFCURVE",
"73 683 OFFCURVE",
"73 615 CURVE SMOOTH",
"73 102 LINE SMOOTH",
"73 46 OFFCURVE",
"113 0 OFFCURVE",
"163 0 CURVE SMOOTH",
"213 0 OFFCURVE",
"253 46 OFFCURVE",
"253 102 CURVE SMOOTH",
"254 297 LINE",
"476 297 LINE SMOOTH",
"511 297 OFFCURVE",
"539 325 OFFCURVE",
"539 362 CURVE SMOOTH",
"539 400 OFFCURVE",
"511 429 OFFCURVE",
"476 429 CURVE SMOOTH"
);
}
);
width = 569;
}
);
unicode = 0046;
userData = {
anchors = (
);
b = {
};
com.typemytype.robofont.layerData = {
b = {
anchors = (
);
components = (
);
contours = (
{
points = (
{
segmentType = curve;
smooth = 1;
x = 266;
y = 0;
},
{
segmentType = line;
smooth = 1;
x = 1035;
y = 0;
},
{
smooth = 0;
x = 1084;
y = 0;
},
{
smooth = 0;
x = 1108;
y = 34;
},
{
segmentType = curve;
smooth = 1;
x = 1108;
y = 71;
},
{
smooth = 0;
x = 1108;
y = 107;
},
{
smooth = 0;
x = 1084;
y = 141;
},
{
segmentType = curve;
smooth = 1;
x = 1035;
y = 141;
},
{
segmentType = line;
smooth = 0;
x = 353;
y = 141;
},
{
segmentType = line;
smooth = 0;
x = 353;
y = 665;
},
{
segmentType = line;
smooth = 1;
x = 975;
y = 665;
},
{
smooth = 0;
x = 1024;
y = 665;
},
{
smooth = 0;
x = 1049;
y = 698;
},
{
segmentType = curve;
smooth = 1;
x = 1049;
y = 734;
},
{
smooth = 0;
x = 1049;
y = 770;
},
{
smooth = 0;
x = 1026;
y = 803;
},
{
segmentType = curve;
smooth = 1;
x = 975;
y = 803;
},
{
segmentType = line;
smooth = 0;
x = 353;
y = 803;
},
{
segmentType = line;
smooth = 0;
x = 353;
y = 1285;
},
{
segmentType = line;
smooth = 1;
x = 1007;
y = 1285;
},
{
smooth = 0;
x = 1056;
y = 1285;
},
{
smooth = 0;
x = 1080;
y = 1319;
},
{
segmentType = curve;
smooth = 1;
x = 1080;
y = 1356;
},
{
smooth = 0;
x = 1080;
y = 1392;
},
{
smooth = 0;
x = 1056;
y = 1426;
},
{
segmentType = curve;
smooth = 1;
x = 1007;
y = 1426;
},
{
segmentType = line;
smooth = 1;
x = 261;
y = 1426;
},
{
smooth = 0;
x = 213;
y = 1426;
},
{
smooth = 0;
x = 178;
y = 1383;
},
{
segmentType = curve;
smooth = 1;
x = 178;
y = 1340;
},
{
segmentType = line;
smooth = 1;
x = 178;
y = 86;
},
{
smooth = 0;
x = 178;
y = 41;
},
{
smooth = 0;
x = 222;
y = 0;
}
);
}
);
lib = {
};
name = F;
unicodes = (
);
width = 1142;
};
};
components = (
);
contours = (
);
lib = {
};
name = F;
unicodes = (
);
width = 1175;
};
},
{
glyphname = G;
lastChange = "2016-08-29 15:56:25 +0000";
layers = (
{
anchors = (
{
name = bottom;
position = "{409, 0}";
},
{
name = top;
position = "{436, 693}";
}
);
layerId = "9E718F8A-2CEA-4931-B05D-987794BD97DA";
paths = (
{
closed = 1;
nodes = (
"571 304 LINE",
"571 65 LINE",
"521 50 OFFCURVE",
"446 38 OFFCURVE",
"391 38 CURVE SMOOTH",
"199 38 OFFCURVE",
"132 186 OFFCURVE",
"132 338 CURVE SMOOTH",
"132 517 OFFCURVE",
"229 641 OFFCURVE",
"407 641 CURVE SMOOTH",
"459 641 OFFCURVE",
"521 628 OFFCURVE",
"578 609 CURVE",
"578 609 OFFCURVE",
"583 609 OFFCURVE",
"583 609 CURVE",
"595 609 OFFCURVE",
"604 621 OFFCURVE",
"604 634 CURVE SMOOTH",
"604 642 OFFCURVE",
"601 650 OFFCURVE",
"592 654 CURVE SMOOTH",
"537 677 OFFCURVE",
"470 689 OFFCURVE",
"403 689 CURVE SMOOTH",
"178 689 OFFCURVE",
"68 519 OFFCURVE",
"68 343 CURVE SMOOTH",
"68 100 OFFCURVE",
"210 -11 OFFCURVE",
"380 -11 CURVE SMOOTH",
"465 -11 OFFCURVE",
"553 4 OFFCURVE",
"611 29 CURVE SMOOTH",
"620 34 OFFCURVE",
"631 52 OFFCURVE",
"631 64 CURVE SMOOTH",
"631 325 LINE SMOOTH",
"631 341 OFFCURVE",
"620 352 OFFCURVE",
"604 352 CURVE SMOOTH",
"417 352 LINE SMOOTH",
"399 352 OFFCURVE",
"390 339 OFFCURVE",
"390 327 CURVE SMOOTH",
"390 316 OFFCURVE",
"399 304 OFFCURVE",
"417 304 CURVE SMOOTH"
);
}
);
width = 694;
},
{
anchors = (
{
name = bottom;
position = "{405, 0}";
},
{
name = top;
position = "{414, 698}";
}
);
layerId = "334510DF-EE69-4F45-9EE4-32E3392006F4";
paths = (
{
closed = 1;
nodes = (
"557 292 LINE",
"557 89 LINE",
"511 77 OFFCURVE",
"452 68 OFFCURVE",
"403 68 CURVE SMOOTH",
"236 68 OFFCURVE",
"165 185 OFFCURVE",
"165 350 CURVE SMOOTH",
"165 514 OFFCURVE",
"241 629 OFFCURVE",
"413 629 CURVE SMOOTH",
"472 629 OFFCURVE",
"530 614 OFFCURVE",
"584 599 CURVE",
"587 598 OFFCURVE",
"593 598 OFFCURVE",
"594 598 CURVE SMOOTH",
"616 598 OFFCURVE",
"629 619 OFFCURVE",
"629 639 CURVE SMOOTH",
"629 652 OFFCURVE",
"623 666 OFFCURVE",
"607 672 CURVE SMOOTH",
"550 696 OFFCURVE",
"481 708 OFFCURVE",
"409 708 CURVE SMOOTH",
"174 708 OFFCURVE",
"60 541 OFFCURVE",
"60 350 CURVE SMOOTH",
"60 111 OFFCURVE",
"201 -11 OFFCURVE",
"394 -11 CURVE SMOOTH",
"476 -11 OFFCURVE",
"558 6 OFFCURVE",
"617 26 CURVE SMOOTH",
"639 33 OFFCURVE",
"655 50 OFFCURVE",
"655 80 CURVE SMOOTH",
"655 324 LINE SMOOTH",
"655 350 OFFCURVE",
"641 368 OFFCURVE",
"615 368 CURVE SMOOTH",
"426 368 LINE SMOOTH",
"403 368 OFFCURVE",
"391 346 OFFCURVE",
"391 329 CURVE SMOOTH",
"391 313 OFFCURVE",
"403 292 OFFCURVE",
"426 292 CURVE SMOOTH"
);
}
);
width = 713;
},
{
anchors = (
{
name = bottom;
position = "{427, 0}";
},
{
name = top;
position = "{403, 702}";
}
);
layerId = "E1B555A7-F4E1-459C-9C1A-AE952106EEF9";
paths = (
{
closed = 1;
nodes = (
"536 279 LINE",
"536 133 LINE",
"500 125 OFFCURVE",
"465 120 OFFCURVE",
"432 120 CURVE SMOOTH",
"322 120 OFFCURVE",
"238 169 OFFCURVE",
"238 344 CURVE SMOOTH",
"238 502 OFFCURVE",
"303 590 OFFCURVE",
"433 590 CURVE SMOOTH",
"485 590 OFFCURVE",
"555 576 OFFCURVE",
"595 553 CURVE SMOOTH",
"605 546 OFFCURVE",
"616 542 OFFCURVE",
"625 542 CURVE SMOOTH",
"659 542 OFFCURVE",
"684 573 OFFCURVE",
"684 607 CURVE SMOOTH",
"684 624 OFFCURVE",
"675 648 OFFCURVE",
"652 664 CURVE SMOOTH",
"599 702 OFFCURVE",
"505 726 OFFCURVE",
"422 726 CURVE SMOOTH",
"166 726 OFFCURVE",
"50 559 OFFCURVE",
"50 354 CURVE SMOOTH",
"50 95 OFFCURVE",
"195 -19 OFFCURVE",
"423 -19 CURVE SMOOTH",
"471 -19 OFFCURVE",
"535 -10 OFFCURVE",
"582 -4 CURVE",
"690 16 OFFCURVE",
"705 52 OFFCURVE",
"705 166 CURVE SMOOTH",
"705 294 LINE SMOOTH",
"705 354 OFFCURVE",
"696 382 OFFCURVE",
"645 382 CURVE",
"460 383 LINE",
"419 383 OFFCURVE",
"400 363 OFFCURVE",
"400 332 CURVE SMOOTH",
"400 289 OFFCURVE",
"430 279 OFFCURVE",
"470 279 CURVE SMOOTH"
);
}
);
width = 746;
}
);
unicode = 0047;
userData = {
anchors = (
);
b = {
};
com.typemytype.robofont.layerData = {
b = {
anchors = (
);
components = (
);
contours = (
{
points = (
{
segmentType = curve;
smooth = 1;
x = 783;
y = "-22";
},
{
smooth = 0;
x = 965;
y = "-22";
},
{
smooth = 0;
x = 1086;
y = 34;
},
{
segmentType = curve;
smooth = 1;
x = 1166;
y = 86;
},
{
smooth = 0;
x = 1270;
y = 154;
},
{
smooth = 0;
x = 1186;
y = 258;
},
{
segmentType = curve;
smooth = 1;
x = 1112;
y = 214;
},
{
smooth = 0;
x = 1024;
y = 162;
},
{
smooth = 0;
x = 939;
y = 120;
},
{
segmentType = curve;
smooth = 1;
x = 806;
y = 120;
},
{
smooth = 0;
x = 446;
y = 120;
},
{
smooth = 0;
x = 316;
y = 406;
},
{
segmentType = curve;
smooth = 1;
x = 316;
y = 706;
},
{
smooth = 0;
x = 316;
y = 1005;
},
{
smooth = 0;
x = 450;
y = 1296;
},
{
segmentType = curve;
smooth = 1;
x = 801;
y = 1296;
},
{
smooth = 0;
x = 980;
y = 1296;
},
{
smooth = 0;
x = 1053;
y = 1246;
},
{
segmentType = curve;
smooth = 1;
x = 1094;
y = 1225;
},
{
smooth = 0;
x = 1174;
y = 1184;
},
{
smooth = 0;
x = 1231;
y = 1300;
},
{
segmentType = curve;
smooth = 1;
x = 1156;
y = 1343;
},
{
smooth = 0;
x = 1106;
y = 1372;
},
{
smooth = 0;
x = 995;
y = 1438;
},
{
segmentType = curve;
smooth = 1;
x = 797;
y = 1438;
},
{
smooth = 0;
x = 359;
y = 1438;
},
{
smooth = 0;
x = 128;
y = 1093;
},
{
segmentType = curve;
smooth = 1;
x = 128;
y = 704;
},
{
smooth = 0;
x = 128;
y = 307;
},
{
smooth = 0;
x = 350;
y = "-22";
}
);
}
);
lib = {
};
name = G;
unicodes = (
);
width = 1448;
};
};
components = (
);
contours = (
);
lib = {
};
name = G;
unicodes = (
);
width = 1538;
};
},
{
glyphname = H;
lastChange = "2016-08-29 15:56:25 +0000";
layers = (
{
anchors = (
{
name = bottom;
position = "{349, 0}";
},
{
name = center;
position = "{349, 347}";
},
{
name = top;
position = "{370, 702}";
},
{
name = topleft;
position = "{10, 693}";
}
);
layerId = "9E718F8A-2CEA-4931-B05D-987794BD97DA";
paths = (
{
closed = 1;
nodes = (
"548 384 LINE",
"149 384 LINE",
"149 666 LINE SMOOTH",
"149 684 OFFCURVE",
"134 693 OFFCURVE",
"120 693 CURVE SMOOTH",
"104 693 OFFCURVE",
"88 684 OFFCURVE",
"88 666 CURVE SMOOTH",
"88 27 LINE SMOOTH",
"88 9 OFFCURVE",
"104 0 OFFCURVE",
"119 0 CURVE SMOOTH",
"134 0 OFFCURVE",
"149 8 OFFCURVE",
"149 27 CURVE SMOOTH",
"149 335 LINE",
"548 335 LINE",
"548 27 LINE SMOOTH",
"548 9 OFFCURVE",
"563 0 OFFCURVE",
"578 0 CURVE SMOOTH",
"593 0 OFFCURVE",
"609 8 OFFCURVE",
"609 27 CURVE SMOOTH",
"609 666 LINE SMOOTH",
"609 684 OFFCURVE",
"594 693 OFFCURVE",
"578 693 CURVE SMOOTH",
"563 693 OFFCURVE",
"548 684 OFFCURVE",
"548 666 CURVE SMOOTH"
);
}
);
width = 697;
},
{
anchors = (
{
name = bottom;
position = "{362, 0}";
},
{
name = center;
position = "{362, 349}";
},
{
name = top;
position = "{373, 702}";
},
{
name = topleft;
position = "{10, 698}";
}
);
layerId = "334510DF-EE69-4F45-9EE4-32E3392006F4";
paths = (
{
closed = 1;
nodes = (
"538 401 LINE",
"185 401 LINE",
"185 650 LINE SMOOTH",
"185 682 OFFCURVE",
"161 698 OFFCURVE",
"136 698 CURVE SMOOTH",
"111 698 OFFCURVE",
"86 682 OFFCURVE",
"86 650 CURVE SMOOTH",
"86 47 LINE SMOOTH",
"86 16 OFFCURVE",
"110 0 OFFCURVE",
"135 0 CURVE SMOOTH",
"160 0 OFFCURVE",
"185 16 OFFCURVE",
"185 47 CURVE SMOOTH",
"185 323 LINE",
"538 323 LINE",
"538 47 LINE SMOOTH",
"538 16 OFFCURVE",
"563 0 OFFCURVE",
"587 0 CURVE SMOOTH",
"612 0 OFFCURVE",
"637 16 OFFCURVE",
"637 47 CURVE SMOOTH",
"637 650 LINE SMOOTH",
"637 682 OFFCURVE",
"612 698 OFFCURVE",
"587 698 CURVE SMOOTH",
"563 698 OFFCURVE",
"538 682 OFFCURVE",
"538 650 CURVE SMOOTH"
);
}
);
width = 723;
},
{
anchors = (
{
name = bottom;
position = "{380, 0}";
},
{
name = center;
position = "{380, 355}";
},
{
name = top;
position = "{384, 702}";
},
{
name = topleft;
position = "{10, 711}";
}
);
layerId = "E1B555A7-F4E1-459C-9C1A-AE952106EEF9";
paths = (
{
closed = 1;
nodes = (
"506 440 LINE",
"253 440 LINE",
"253 609 LINE SMOOTH",
"253 665 OFFCURVE",
"213 711 OFFCURVE",
"163 711 CURVE SMOOTH",
"113 711 OFFCURVE",
"73 665 OFFCURVE",
"73 609 CURVE SMOOTH",
"73 102 LINE SMOOTH",
"73 46 OFFCURVE",
"113 0 OFFCURVE",
"163 0 CURVE SMOOTH",
"213 0 OFFCURVE",
"253 46 OFFCURVE",
"253 102 CURVE SMOOTH",
"253 294 LINE",
"506 294 LINE",
"507 102 LINE SMOOTH",
"507 46 OFFCURVE",
"547 0 OFFCURVE",
"597 0 CURVE SMOOTH",
"646 0 OFFCURVE",
"687 46 OFFCURVE",
"687 102 CURVE SMOOTH",
"687 609 LINE SMOOTH",
"687 665 OFFCURVE",
"646 711 OFFCURVE",
"597 711 CURVE SMOOTH",
"547 711 OFFCURVE",
"506 665 OFFCURVE",
"506 609 CURVE SMOOTH"
);
}
);
width = 760;
}
);
unicode = 0048;
userData = {
anchors = (
);
b = {
};
com.typemytype.robofont.layerData = {
b = {
anchors = (
);
components = (
);
contours = (
);
lib = {
};
name = H;
unicodes = (
);
width = 1464;
};
};
components = (
);
contours = (
);
lib = {
};
name = H;
unicodes = (
);
width = 1524;
};
},
{
glyphname = Hbar;
lastChange = "2016-08-29 15:56:25 +0000";
layers = (
{
components = (
{
name = H;
}
);
layerId = "9E718F8A-2CEA-4931-B05D-987794BD97DA";
paths = (
{
closed = 1;
nodes = (
"62 547 LINE SMOOTH",
"44 547 OFFCURVE",
"32 540 OFFCURVE",
"32 525 CURVE SMOOTH",
"32 511 OFFCURVE",
"44 504 OFFCURVE",
"62 504 CURVE SMOOTH",
"641 504 LINE SMOOTH",
"659 504 OFFCURVE",
"671 511 OFFCURVE",
"671 525 CURVE SMOOTH",
"671 540 OFFCURVE",
"659 547 OFFCURVE",
"641 547 CURVE SMOOTH"
);
}
);
width = 701;
},
{
components = (
{
name = H;
}
);
layerId = "334510DF-EE69-4F45-9EE4-32E3392006F4";
paths = (
{
closed = 1;
nodes = (
"58 552 LINE SMOOTH",
"38 552 OFFCURVE",
"26 541 OFFCURVE",
"26 525 CURVE SMOOTH",
"26 510 OFFCURVE",
"38 500 OFFCURVE",
"58 500 CURVE SMOOTH",
"665 500 LINE SMOOTH",
"685 500 OFFCURVE",
"697 510 OFFCURVE",
"697 525 CURVE SMOOTH",
"697 541 OFFCURVE",
"685 552 OFFCURVE",
"665 552 CURVE SMOOTH"
);
}
);
width = 721;
},
{
components = (
{
name = H;
}
);
layerId = "E1B555A7-F4E1-459C-9C1A-AE952106EEF9";
paths = (
{
closed = 1;
nodes = (
"49 561 LINE SMOOTH",
"25 561 OFFCURVE",
"13 543 OFFCURVE",
"13 525 CURVE SMOOTH",
"13 507 OFFCURVE",
"25 490 OFFCURVE",
"49 490 CURVE SMOOTH",
"710 490 LINE SMOOTH",
"734 490 OFFCURVE",
"747 507 OFFCURVE",
"747 525 CURVE SMOOTH",
"747 543 OFFCURVE",
"735 561 OFFCURVE",
"710 561 CURVE SMOOTH"
);
}
);
width = 760;
}
);
unicode = 0126;
userData = {
com.typemytype.robofont.layerData = {
b = {
anchors = (
);
components = (
);
contours = (
);
lib = {
};
name = Hbar;
unicodes = (
);
width = 1464;
};
};
};
},
{
glyphname = I;
lastChange = "2016-08-29 15:56:25 +0000";
layers = (
{
anchors = (
{
name = bottom;
position = "{138, 0}";
},
{
name = ogonek;
position = "{133, 12}";
},
{
name = top;
position = "{145, 702}";
},
{
name = topleft;
position = "{10, 693}";
}
);
layerId = "9E718F8A-2CEA-4931-B05D-987794BD97DA";
paths = (
{
closed = 1;
nodes = (
"108 27 LINE SMOOTH",
"108 9 OFFCURVE",
"124 0 OFFCURVE",
"138 0 CURVE SMOOTH",
"153 0 OFFCURVE",
"169 8 OFFCURVE",
"169 27 CURVE SMOOTH",
"169 664 LINE SMOOTH",
"169 683 OFFCURVE",
"154 692 OFFCURVE",
"139 692 CURVE SMOOTH",
"124 692 OFFCURVE",
"108 682 OFFCURVE",
"108 664 CURVE SMOOTH"
);
}
);
width = 276;
},
{
anchors = (
{
name = bottom;
position = "{148, 0}";
},
{
name = ogonek;
position = "{148, 11}";
},
{
name = top;
position = "{150, 702}";
},
{
name = topleft;
position = "{10, 698}";
}
);
layerId = "334510DF-EE69-4F45-9EE4-32E3392006F4";
paths = (
{
closed = 1;
nodes = (
"99 47 LINE SMOOTH",
"99 16 OFFCURVE",
"123 0 OFFCURVE",
"147 0 CURVE SMOOTH",
"173 0 OFFCURVE",
"197 16 OFFCURVE",
"197 47 CURVE SMOOTH",
"197 651 LINE SMOOTH",
"197 683 OFFCURVE",
"173 698 OFFCURVE",
"148 698 CURVE SMOOTH",
"124 698 OFFCURVE",
"99 682 OFFCURVE",
"99 651 CURVE SMOOTH"
);
}
);
width = 295;
},
{
anchors = (
{
name = bottom;
position = "{168, 0}";
},
{
name = ogonek;
position = "{168, 11}";
},
{
name = top;
position = "{168, 702}";
},
{
name = topleft;
position = "{10, 711}";
}
);
layerId = "E1B555A7-F4E1-459C-9C1A-AE952106EEF9";
paths = (
{
closed = 1;
nodes = (
"78 102 LINE SMOOTH",
"78 46 OFFCURVE",
"118 0 OFFCURVE",
"167 0 CURVE SMOOTH",
"218 0 OFFCURVE",
"258 46 OFFCURVE",
"258 102 CURVE SMOOTH",
"258 609 LINE SMOOTH",
"258 665 OFFCURVE",
"218 711 OFFCURVE",
"168 711 CURVE SMOOTH",
"118 711 OFFCURVE",
"78 665 OFFCURVE",
"78 609 CURVE SMOOTH"
);
}
);
width = 336;
}
);
unicode = 0049;
userData = {
anchors = (
);
b = {
};
com.typemytype.robofont.layerData = {
b = {
anchors = (
);
components = (
);
contours = (
);
lib = {
};
name = I;
unicodes = (
);
width = 592;
};
};
components = (
);
contours = (
);
lib = {
};
name = I;
unicodes = (
);
width = 637;
};
},
{
glyphname = J;
lastChange = "2016-08-29 15:56:25 +0000";
layers = (
{
anchors = (
{
name = bottom;
position = "{237, 0}";
},
{
name = top;
position = "{375, 702}";
}
);
layerId = "9E718F8A-2CEA-4931-B05D-987794BD97DA";
paths = (
{
closed = 1;
nodes = (
"406 666 LINE SMOOTH",
"406 684 OFFCURVE",
"391 693 OFFCURVE",
"375 693 CURVE SMOOTH",
"360 693 OFFCURVE",
"344 684 OFFCURVE",
"344 666 CURVE SMOOTH",
"344 221 LINE SMOOTH",
"344 99 OFFCURVE",
"293 43 OFFCURVE",
"206 43 CURVE SMOOTH",
"153 43 OFFCURVE",
"118 66 OFFCURVE",
"105 83 CURVE",
"89 97 OFFCURVE",
"75 103 OFFCURVE",
"64 103 CURVE SMOOTH",
"48 103 OFFCURVE",
"42 90 OFFCURVE",
"42 77 CURVE SMOOTH",
"42 69 OFFCURVE",
"44 68 OFFCURVE",
"39 63 CURVE",
"49 40 OFFCURVE",
"119 -8 OFFCURVE",
"198 -8 CURVE SMOOTH",
"297 -8 OFFCURVE",
"406 51 OFFCURVE",
"406 215 CURVE SMOOTH"
);
}
);
width = 474;
},
{
anchors = (
{
name = bottom;
position = "{249, 0}";
},
{
name = top;
position = "{377, 702}";
}
);
layerId = "334510DF-EE69-4F45-9EE4-32E3392006F4";
paths = (
{
closed = 1;
nodes = (
"427 651 LINE SMOOTH",
"427 683 OFFCURVE",
"403 698 OFFCURVE",
"377 698 CURVE SMOOTH",
"353 698 OFFCURVE",
"328 683 OFFCURVE",
"328 651 CURVE SMOOTH",
"328 223 LINE SMOOTH",
"328 114 OFFCURVE",
"286 70 OFFCURVE",
"207 70 CURVE SMOOTH",
"163 70 OFFCURVE",
"127 88 OFFCURVE",
"103 104 CURVE",
"92 112 OFFCURVE",
"82 115 OFFCURVE",
"74 115 CURVE SMOOTH",
"51 115 OFFCURVE",
"37 93 OFFCURVE",
"37 71 CURVE SMOOTH",
"37 56 OFFCURVE",
"42 45 OFFCURVE",
"53 38 CURVE",
"81 17 OFFCURVE",
"128 -12 OFFCURVE",
"208 -12 CURVE SMOOTH",
"323 -12 OFFCURVE",
"427 50 OFFCURVE",
"427 216 CURVE SMOOTH"
);
}
);
width = 497;
},
{
anchors = (
{
name = bottom;
position = "{286, 0}";
},
{
name = top;
position = "{417, 702}";
}
);
layerId = "E1B555A7-F4E1-459C-9C1A-AE952106EEF9";
paths = (
{
closed = 1;
nodes = (
"506 609 LINE SMOOTH",
"506 665 OFFCURVE",
"466 711 OFFCURVE",
"416 711 CURVE SMOOTH",
"366 711 OFFCURVE",
"326 665 OFFCURVE",
"326 609 CURVE SMOOTH",
"326 250 LINE SMOOTH",
"326 169 OFFCURVE",
"297 144 OFFCURVE",
"233 144 CURVE SMOOTH",
"202 144 OFFCURVE",
"171 160 OFFCURVE",
"153 174 CURVE",
"136 189 OFFCURVE",
"120 195 OFFCURVE",
"104 195 CURVE SMOOTH",
"65 195 OFFCURVE",
"35 159 OFFCURVE",
"35 116 CURVE SMOOTH",
"35 91 OFFCURVE",
"45 70 OFFCURVE",
"63 51 CURVE SMOOTH",
"108 4 OFFCURVE",
"177 -17 OFFCURVE",
"250 -17 CURVE SMOOTH",
"411 -17 OFFCURVE",
"505 71 OFFCURVE",
"505 234 CURVE SMOOTH"
);
}
);
width = 572;
}
);
unicode = 004A;
userData = {
anchors = (
);
b = {
};
com.typemytype.robofont.layerData = {
b = {
anchors = (
);
components = (
);
contours = (
);
lib = {
};
name = J;
unicodes = (
);
width = 1003;
};
};
components = (
);
contours = (
);
lib = {
};
name = J;
unicodes = (
);
width = 1126;
};
},
{
glyphname = K;
lastChange = "2016-08-29 15:56:25 +0000";
layers = (
{
anchors = (
{
name = bottom;
position = "{307, 0}";
},
{
name = top;
position = "{309, 702}";
}
);
layerId = "9E718F8A-2CEA-4931-B05D-987794BD97DA";
paths = (
{
closed = 1;
nodes = (
"146 361 LINE",
"146 665 LINE SMOOTH",
"146 683 OFFCURVE",
"132 693 OFFCURVE",
"118 693 CURVE SMOOTH",
"103 693 OFFCURVE",
"88 683 OFFCURVE",
"88 665 CURVE SMOOTH",
"88 28 LINE SMOOTH",
"88 9 OFFCURVE",
"103 0 OFFCURVE",
"116 0 CURVE SMOOTH",
"131 0 OFFCURVE",
"146 8 OFFCURVE",
"146 28 CURVE SMOOTH",
"146 346 LINE",
"502 10 LINE",
"510 4 OFFCURVE",
"518 0 OFFCURVE",
"525 0 CURVE SMOOTH",
"542 0 OFFCURVE",
"552 10 OFFCURVE",
"552 25 CURVE SMOOTH",
"552 33 OFFCURVE",
"550 41 OFFCURVE",
"542 47 CURVE SMOOTH",
"209 356 LINE",
"516 650 LINE SMOOTH",
"522 656 OFFCURVE",
"525 663 OFFCURVE",
"525 670 CURVE SMOOTH",
"525 683 OFFCURVE",
"517 693 OFFCURVE",
"501 693 CURVE SMOOTH",
"495 693 OFFCURVE",
"487 691 OFFCURVE",
"480 686 CURVE"
);
}
);
width = 579;
},
{
anchors = (
{
name = bottom;
position = "{319, 0}";
},
{
name = top;
position = "{313, 702}";
}
);
layerId = "334510DF-EE69-4F45-9EE4-32E3392006F4";
paths = (
{
closed = 1;
nodes = (
"185 374 LINE",
"185 651 LINE SMOOTH",
"185 682 OFFCURVE",
"160 698 OFFCURVE",
"136 698 CURVE SMOOTH",
"111 698 OFFCURVE",
"86 682 OFFCURVE",
"86 651 CURVE SMOOTH",
"86 46 LINE SMOOTH",
"86 15 OFFCURVE",
"110 0 OFFCURVE",
"135 0 CURVE SMOOTH",
"159 0 OFFCURVE",
"185 15 OFFCURVE",
"185 46 CURVE SMOOTH",
"185 346 LINE",
"495 21 LINE SMOOTH",
"507 7 OFFCURVE",
"520 0 OFFCURVE",
"533 0 CURVE SMOOTH",
"559 0 OFFCURVE",
"582 19 OFFCURVE",
"582 45 CURVE SMOOTH",
"582 54 OFFCURVE",
"579 65 OFFCURVE",
"570 74 CURVE SMOOTH",
"286 365 LINE",
"544 630 LINE SMOOTH",
"553 638 OFFCURVE",
"555 648 OFFCURVE",
"555 657 CURVE SMOOTH",
"555 680 OFFCURVE",
"534 698 OFFCURVE",
"511 698 CURVE SMOOTH",
"498 698 OFFCURVE",
"486 691 OFFCURVE",
"474 679 CURVE SMOOTH"
);
}
);
width = 621;
},
{
anchors = (
{
name = bottom;
position = "{348, 0}";
},
{
name = top;
position = "{344, 702}";
}
);
layerId = "E1B555A7-F4E1-459C-9C1A-AE952106EEF9";
paths = (
{
closed = 1;
nodes = (
"252 389 LINE",
"253 609 LINE SMOOTH",
"253 665 OFFCURVE",
"211 711 OFFCURVE",
"163 711 CURVE SMOOTH",
"113 711 OFFCURVE",
"74 665 OFFCURVE",
"74 609 CURVE SMOOTH",
"74 102 LINE SMOOTH",
"74 46 OFFCURVE",
"113 0 OFFCURVE",
"163 0 CURVE SMOOTH",
"213 0 OFFCURVE",
"253 46 OFFCURVE",
"253 102 CURVE",
"252 349 LINE",
"466 94 LINE",
"494 55 OFFCURVE",
"526 0 OFFCURVE",
"572 0 CURVE SMOOTH",
"613 0 OFFCURVE",
"656 33 OFFCURVE",
"656 79 CURVE SMOOTH",
"656 108 OFFCURVE",
"631 147 OFFCURVE",
"609 178 CURVE",
"441 372 LINE",
"598 540 LINE",
"619 568 OFFCURVE",
"644 603 OFFCURVE",
"644 631 CURVE SMOOTH",
"644 677 OFFCURVE",
"604 710 OFFCURVE",
"564 710 CURVE SMOOTH",
"529 710 OFFCURVE",
"506 680 OFFCURVE",
"476 640 CURVE"
);
}
);
width = 693;
}
);
unicode = 004B;
userData = {
anchors = (
);
b = {
};
com.typemytype.robofont.layerData = {
b = {
anchors = (
);
components = (
);
contours = (
);
lib = {
};
name = K;
unicodes = (
);
width = 1210;
};
};
components = (
);
contours = (
);
lib = {
};
name = K;
unicodes = (
);
width = 1329;
};
},
{
glyphname = L;
lastChange = "2016-08-29 15:56:25 +0000";
layers = (
{
anchors = (
{
name = bottom;
position = "{316, 0}";
},
{
name = caron.alt;
position = "{395, 373}";
},
{
name = center;
position = "{263, 347}";
},
{
name = mid;
position = "{119, 328}";
},
{
name = top;
position = "{114, 714}";
},
{
name = topright;
position = "{515, 693}";
}
);
layerId = "9E718F8A-2CEA-4931-B05D-987794BD97DA";
paths = (
{
closed = 1;
nodes = (
"149 48 LINE",
"149 666 LINE SMOOTH",
"149 684 OFFCURVE",
"134 693 OFFCURVE",
"120 693 CURVE SMOOTH",
"104 693 OFFCURVE",
"88 683 OFFCURVE",
"88 666 CURVE SMOOTH",
"88 29 LINE SMOOTH",
"88 12 OFFCURVE",
"103 0 OFFCURVE",
"119 0 CURVE SMOOTH",
"485 0 LINE SMOOTH",
"503 0 OFFCURVE",
"513 11 OFFCURVE",
"513 24 CURVE SMOOTH",
"513 38 OFFCURVE",
"505 48 OFFCURVE",
"485 48 CURVE SMOOTH"
);
}
);
width = 525;
},
{
anchors = (
{
name = bottom;
position = "{323, 0}";
},
{
name = caron.alt;
position = "{204, 491}";
},
{
name = center;
position = "{270, 349}";
},
{
name = mid;
position = "{135, 348}";
},
{
name = top;
position = "{209, 708}";
},
{
name = topright;
position = "{530, 698}";
}
);
layerId = "334510DF-EE69-4F45-9EE4-32E3392006F4";
paths = (
{
closed = 1;
nodes = (
"185 79 LINE",
"185 650 LINE SMOOTH",
"185 682 OFFCURVE",
"161 698 OFFCURVE",
"136 698 CURVE SMOOTH",
"111 698 OFFCURVE",
"86 682 OFFCURVE",
"86 650 CURVE SMOOTH",
"86 49 LINE SMOOTH",
"86 21 OFFCURVE",
"109 0 OFFCURVE",
"136 0 CURVE SMOOTH",
"492 0 LINE SMOOTH",
"519 0 OFFCURVE",
"532 20 OFFCURVE",
"532 39 CURVE SMOOTH",
"532 59 OFFCURVE",
"519 79 OFFCURVE",
"492 79 CURVE SMOOTH"
);
}
);
width = 540;
},
{
anchors = (
{
name = bottom;
position = "{329, 0}";
},
{
name = caron.alt;
position = "{212, 484}";
},
{
name = center;
position = "{291, 355}";
},
{
name = mid;
position = "{165, 363}";
},
{
name = top;
position = "{219, 709}";
},
{
name = topright;
position = "{571, 711}";
}
);
layerId = "E1B555A7-F4E1-459C-9C1A-AE952106EEF9";
paths = (
{
closed = 1;
nodes = (
"254 135 LINE",
"253 609 LINE",
"253 665 OFFCURVE",
"213 711 OFFCURVE",
"163 711 CURVE SMOOTH",
"113 711 OFFCURVE",
"73 665 OFFCURVE",
"73 609 CURVE SMOOTH",
"73 147 LINE SMOOTH",
"73 75 OFFCURVE",
"94 0 OFFCURVE",
"164 0 CURVE SMOOTH",
"499 0 LINE SMOOTH",
"534 0 OFFCURVE",
"563 30 OFFCURVE",
"563 68 CURVE SMOOTH",
"563 105 OFFCURVE",
"534 135 OFFCURVE",
"499 135 CURVE SMOOTH"
);
}
);
width = 581;
}
);
unicode = 004C;
userData = {
anchors = (
);
b = {
};
com.typemytype.robofont.layerData = {
b = {
anchors = (
);
components = (
);
contours = (
{
points = (
{
segmentType = curve;
smooth = 1;
x = 266;
y = 0;
},
{
segmentType = line;
smooth = 1;
x = 1035;
y = 0;
},
{
smooth = 0;
x = 1084;
y = 0;
},
{
smooth = 0;
x = 1108;
y = 34;
},
{
segmentType = curve;
smooth = 1;
x = 1108;
y = 71;
},
{
smooth = 0;
x = 1108;
y = 107;
},
{
smooth = 0;
x = 1084;
y = 141;
},
{
segmentType = curve;
smooth = 1;
x = 1035;
y = 141;
},
{
segmentType = line;
smooth = 0;
x = 356;
y = 141;
},
{
segmentType = line;
smooth = 0;
x = 356;
y = 665;
},
{
segmentType = line;
smooth = 1;
x = 975;
y = 665;
},
{
smooth = 0;
x = 1024;
y = 665;
},
{
smooth = 0;
x = 1049;
y = 698;
},
{
segmentType = curve;
smooth = 1;
x = 1049;
y = 734;
},
{
smooth = 0;
x = 1049;
y = 770;
},
{
smooth = 0;
x = 1026;
y = 803;
},
{
segmentType = curve;
smooth = 1;
x = 975;
y = 803;
},
{
segmentType = line;
smooth = 0;
x = 356;
y = 803;
},
{
segmentType = line;
smooth = 0;
x = 356;
y = 1285;
},
{
segmentType = line;
smooth = 1;
x = 1007;
y = 1285;
},
{
smooth = 0;
x = 1056;
y = 1285;
},
{
smooth = 0;
x = 1080;
y = 1319;
},
{
segmentType = curve;
smooth = 1;
x = 1080;
y = 1356;
},
{
smooth = 0;
x = 1080;
y = 1392;
},
{
smooth = 0;
x = 1056;
y = 1426;
},
{
segmentType = curve;
smooth = 1;
x = 1007;
y = 1426;
},
{
segmentType = line;
smooth = 1;
x = 261;
y = 1426;
},
{
smooth = 0;
x = 213;
y = 1426;
},
{
smooth = 0;
x = 178;
y = 1383;
},
{
segmentType = curve;
smooth = 1;
x = 178;
y = 1340;
},
{
segmentType = line;
smooth = 1;
x = 178;
y = 86;
},
{
smooth = 0;
x = 178;
y = 41;
},
{
smooth = 0;
x = 222;
y = 0;
}
);
}
);
lib = {
};
name = L;
unicodes = (
);
width = 1095;
};
};
components = (
);
contours = (
);
lib = {
};
name = L;
unicodes = (
);
width = 1169;
};
},
{
glyphname = Lslash;
lastChange = "2016-08-29 15:56:25 +0000";
layers = (
{
layerId = "9E718F8A-2CEA-4931-B05D-987794BD97DA";
paths = (
{
closed = 1;
nodes = (
"149 48 LINE",
"149 369 LINE",
"229 421 LINE",
"235 425 OFFCURVE",
"237 431 OFFCURVE",
"237 437 CURVE SMOOTH",
"237 450 OFFCURVE",
"226 465 OFFCURVE",
"214 465 CURVE SMOOTH",
"211 465 OFFCURVE",
"207 464 OFFCURVE",
"204 462 CURVE SMOOTH",
"149 425 LINE",
"149 666 LINE SMOOTH",
"149 684 OFFCURVE",
"134 693 OFFCURVE",
"120 693 CURVE SMOOTH",
"104 693 OFFCURVE",
"88 683 OFFCURVE",
"88 666 CURVE SMOOTH",
"88 385 LINE",
"37 350 LINE SMOOTH",
"29 345 OFFCURVE",
"26 338 OFFCURVE",
"26 331 CURVE SMOOTH",
"26 318 OFFCURVE",
"36 306 OFFCURVE",
"48 306 CURVE SMOOTH",
"52 306 OFFCURVE",
"56 307 OFFCURVE",
"60 309 CURVE",
"88 328 LINE",
"88 29 LINE SMOOTH",
"88 12 OFFCURVE",
"103 0 OFFCURVE",
"119 0 CURVE SMOOTH",
"485 0 LINE SMOOTH",
"503 0 OFFCURVE",
"513 11 OFFCURVE",
"513 24 CURVE SMOOTH",
"513 38 OFFCURVE",
"505 48 OFFCURVE",
"485 48 CURVE SMOOTH"
);
}
);
width = 555;
},
{
layerId = "334510DF-EE69-4F45-9EE4-32E3392006F4";
paths = (
{
closed = 1;
nodes = (
"185 79 LINE",
"185 367 LINE",
"261 415 LINE SMOOTH",
"271 422 OFFCURVE",
"275 431 OFFCURVE",
"275 441 CURVE SMOOTH",
"275 458 OFFCURVE",
"261 476 OFFCURVE",
"244 476 CURVE SMOOTH",
"238 476 OFFCURVE",
"233 474 OFFCURVE",
"227 470 CURVE SMOOTH",
"185 444 LINE",
"185 650 LINE SMOOTH",
"185 682 OFFCURVE",
"161 698 OFFCURVE",
"136 698 CURVE SMOOTH",
"111 698 OFFCURVE",
"86 682 OFFCURVE",
"86 650 CURVE SMOOTH",
"86 381 LINE",
"37 350 LINE SMOOTH",
"26 342 OFFCURVE",
"22 332 OFFCURVE",
"22 321 CURVE SMOOTH",
"22 304 OFFCURVE",
"34 288 OFFCURVE",
"51 288 CURVE SMOOTH",
"56 288 OFFCURVE",
"63 290 OFFCURVE",
"69 294 CURVE SMOOTH",
"86 305 LINE",
"86 49 LINE SMOOTH",
"86 21 OFFCURVE",
"109 0 OFFCURVE",
"136 0 CURVE SMOOTH",
"492 0 LINE SMOOTH",
"519 0 OFFCURVE",
"532 20 OFFCURVE",
"532 39 CURVE SMOOTH",
"532 59 OFFCURVE",
"519 79 OFFCURVE",
"492 79 CURVE SMOOTH"
);
}
);
width = 565;
},
{
layerId = "E1B555A7-F4E1-459C-9C1A-AE952106EEF9";
paths = (
{
closed = 1;
nodes = (
"254 135 LINE",
"254 350 LINE",
"354 415 LINE SMOOTH",
"367 423 OFFCURVE",
"373 436 OFFCURVE",
"373 450 CURVE SMOOTH",
"373 478 OFFCURVE",
"351 508 OFFCURVE",
"325 508 CURVE SMOOTH",
"317 508 OFFCURVE",
"310 506 OFFCURVE",
"303 501 CURVE SMOOTH",
"254 469 LINE",
"253 609 LINE",
"253 665 OFFCURVE",
"213 711 OFFCURVE",
"163 711 CURVE SMOOTH",
"113 711 OFFCURVE",
"73 665 OFFCURVE",
"73 609 CURVE SMOOTH",
"73 353 LINE",
"12 313 LINE SMOOTH",
"-2 303 OFFCURVE",
"-9 288 OFFCURVE",
"-9 272 CURVE SMOOTH",
"-9 246 OFFCURVE",
"10 218 OFFCURVE",
"36 218 CURVE",
"36 218 OFFCURVE",
"51 221 OFFCURVE",
"60 226 CURVE",
"73 234 LINE",
"73 147 LINE SMOOTH",
"73 75 OFFCURVE",
"94 0 OFFCURVE",
"164 0 CURVE SMOOTH",
"499 0 LINE SMOOTH",
"534 0 OFFCURVE",
"563 30 OFFCURVE",
"563 68 CURVE SMOOTH",
"563 105 OFFCURVE",
"534 135 OFFCURVE",
"499 135 CURVE SMOOTH"
);
}
);
width = 584;
}
);
unicode = 0141;
},
{
glyphname = M;
lastChange = "2016-08-29 15:56:25 +0000";
layers = (
{
anchors = (
{
name = bottom;
position = "{460, 0}";
},
{
name = top;
position = "{478, 702}";
}
);
layerId = "9E718F8A-2CEA-4931-B05D-987794BD97DA";
paths = (
{
closed = 1;
nodes = (
"146 622 LINE",
"424 40 LINE SMOOTH",
"434 21 OFFCURVE",
"449 12 OFFCURVE",
"463 12 CURVE SMOOTH",
"477 12 OFFCURVE",
"492 21 OFFCURVE",
"502 40 CURVE SMOOTH",
"780 622 LINE",
"780 21 LINE SMOOTH",
"780 4 OFFCURVE",
"794 -4 OFFCURVE",
"808 -4 CURVE SMOOTH",
"821 -4 OFFCURVE",
"835 4 OFFCURVE",
"835 21 CURVE SMOOTH",
"835 645 LINE SMOOTH",
"835 671 OFFCURVE",
"814 694 OFFCURVE",
"790 694 CURVE SMOOTH",
"772 694 OFFCURVE",
"753 683 OFFCURVE",
"738 653 CURVE SMOOTH",
"463 77 LINE",
"188 653 LINE SMOOTH",
"172 683 OFFCURVE",
"153 694 OFFCURVE",
"136 694 CURVE SMOOTH",
"112 694 OFFCURVE",
"91 671 OFFCURVE",
"91 645 CURVE SMOOTH",
"91 21 LINE SMOOTH",
"91 4 OFFCURVE",
"104 -4 OFFCURVE",
"118 -4 CURVE SMOOTH",
"132 -4 OFFCURVE",
"146 4 OFFCURVE",
"146 21 CURVE SMOOTH"
);
}
);
width = 920;
},
{
anchors = (
{
name = bottom;
position = "{465, 0}";
},
{
name = top;
position = "{477, 702}";
}
);
layerId = "334510DF-EE69-4F45-9EE4-32E3392006F4";
paths = (
{
closed = 1;
nodes = (
"178 572 LINE",
"406 62 LINE SMOOTH",
"418 33 OFFCURVE",
"442 18 OFFCURVE",
"464 18 CURVE SMOOTH",
"486 18 OFFCURVE",
"510 33 OFFCURVE",
"523 62 CURVE SMOOTH",
"750 572 LINE",
"750 41 LINE SMOOTH",
"750 17 OFFCURVE",
"773 5 OFFCURVE",
"796 5 CURVE SMOOTH",
"818 5 OFFCURVE",
"841 17 OFFCURVE",
"841 41 CURVE SMOOTH",
"841 619 LINE SMOOTH",
"841 658 OFFCURVE",
"805 685 OFFCURVE",
"767 685 CURVE SMOOTH",
"736 685 OFFCURVE",
"704 668 OFFCURVE",
"686 627 CURVE SMOOTH",
"464 135 LINE",
"243 627 LINE SMOOTH",
"224 668 OFFCURVE",
"192 685 OFFCURVE",
"162 685 CURVE SMOOTH",
"123 685 OFFCURVE",
"87 658 OFFCURVE",
"87 619 CURVE SMOOTH",
"87 41 LINE SMOOTH",
"87 17 OFFCURVE",
"110 5 OFFCURVE",
"133 5 CURVE SMOOTH",
"156 5 OFFCURVE",
"178 17 OFFCURVE",
"178 41 CURVE SMOOTH"
);
}
);
width = 931;
},
{
anchors = (
{
name = bottom;
position = "{490, 0}";
},
{
name = top;
position = "{499, 702}";
}
);
layerId = "E1B555A7-F4E1-459C-9C1A-AE952106EEF9";
paths = (
{
closed = 1;
nodes = (
"226 532 LINE",
"385 136 LINE SMOOTH",
"410 69 OFFCURVE",
"432 35 OFFCURVE",
"490 35 CURVE SMOOTH",
"547 35 OFFCURVE",
"570 69 OFFCURVE",
"594 136 CURVE SMOOTH",
"754 532 LINE",
"753 63 LINE SMOOTH",
"753 11 OFFCURVE",
"791 -14 OFFCURVE",
"829 -14 CURVE SMOOTH",
"867 -14 OFFCURVE",
"906 12 OFFCURVE",
"906 63 CURVE SMOOTH",
"906 584 LINE SMOOTH",
"906 658 OFFCURVE",
"843 710 OFFCURVE",
"776 710 CURVE SMOOTH",
"721 710 OFFCURVE",
"663 676 OFFCURVE",
"632 592 CURVE",
"490 241 LINE",
"347 592 LINE",
"317 676 OFFCURVE",
"259 710 OFFCURVE",
"204 710 CURVE SMOOTH",
"136 710 OFFCURVE",
"73 658 OFFCURVE",
"73 584 CURVE SMOOTH",
"74 63 LINE SMOOTH",
"74 12 OFFCURVE",
"112 -14 OFFCURVE",
"150 -14 CURVE SMOOTH",
"188 -14 OFFCURVE",
"226 11 OFFCURVE",
"226 63 CURVE SMOOTH"
);
}
);
width = 979;
}
);
unicode = 004D;
userData = {
anchors = (
);
b = {
};
com.typemytype.robofont.layerData = {
b = {
anchors = (
);
components = (
);
contours = (
);
lib = {
};
name = M;
unicodes = (
);
width = 1899;
};
};
components = (
);
contours = (
);
lib = {
};
name = M;
unicodes = (
);
width = 1984;
};
},
{
glyphname = N;
lastChange = "2016-08-29 15:56:25 +0000";
layers = (
{
anchors = (
{
name = bottom;
position = "{366, 0}";
},
{
name = top;
position = "{384, 702}";
}
);
layerId = "9E718F8A-2CEA-4931-B05D-987794BD97DA";
paths = (
{
closed = 1;
nodes = (
"568 76 LINE",
"181 653 LINE SMOOTH",
"162 680 OFFCURVE",
"144 693 OFFCURVE",
"128 693 CURVE SMOOTH",
"104 693 OFFCURVE",
"90 676 OFFCURVE",
"90 647 CURVE SMOOTH",
"90 29 LINE SMOOTH",
"90 9 OFFCURVE",
"102 0 OFFCURVE",
"119 0 CURVE SMOOTH",
"134 0 OFFCURVE",
"146 10 OFFCURVE",
"146 29 CURVE SMOOTH",
"146 606 LINE",
"542 20 LINE SMOOTH",
"552 3 OFFCURVE",
"563 0 OFFCURVE",
"579 0 CURVE SMOOTH",
"605 0 OFFCURVE",
"625 16 OFFCURVE",
"625 45 CURVE SMOOTH",
"625 664 LINE SMOOTH",
"625 683 OFFCURVE",
"611 693 OFFCURVE",
"597 693 CURVE SMOOTH",
"581 693 OFFCURVE",
"568 683 OFFCURVE",
"568 664 CURVE SMOOTH"
);
}
);
width = 715;
},
{
anchors = (
{
name = bottom;
position = "{382, 0}";
},
{
name = top;
position = "{389, 702}";
}
);
layerId = "334510DF-EE69-4F45-9EE4-32E3392006F4";
paths = (
{
closed = 1;
nodes = (
"563 142 LINE",
"208 659 LINE SMOOTH",
"189 686 OFFCURVE",
"162 698 OFFCURVE",
"141 698 CURVE SMOOTH",
"110 698 OFFCURVE",
"85 675 OFFCURVE",
"85 635 CURVE SMOOTH",
"85 43 LINE SMOOTH",
"85 14 OFFCURVE",
"108 0 OFFCURVE",
"131 0 CURVE SMOOTH",
"154 0 OFFCURVE",
"177 15 OFFCURVE",
"177 43 CURVE SMOOTH",
"177 550 LINE",
"534 32 LINE SMOOTH",
"549 10 OFFCURVE",
"574 0 OFFCURVE",
"594 0 CURVE SMOOTH",
"627 0 OFFCURVE",
"654 23 OFFCURVE",
"654 63 CURVE SMOOTH",
"654 654 LINE SMOOTH",
"654 683 OFFCURVE",
"631 698 OFFCURVE",
"609 698 CURVE SMOOTH",
"585 698 OFFCURVE",
"563 683 OFFCURVE",
"563 654 CURVE SMOOTH"
);
}
);
width = 740;
},
{
anchors = (
{
name = bottom;
position = "{405, 0}";
},
{
name = top;
position = "{426, 709}";
}
);
layerId = "E1B555A7-F4E1-459C-9C1A-AE952106EEF9";
paths = (
{
closed = 1;
nodes = (
"560 252 LINE",
"271 627 LINE",
"241 672 OFFCURVE",
"203 710 OFFCURVE",
"162 711 CURVE SMOOTH",
"113 711 OFFCURVE",
"73 674 OFFCURVE",
"73 607 CURVE SMOOTH",
"73 81 LINE SMOOTH",
"73 38 OFFCURVE",
"106 0 OFFCURVE",
"149 0 CURVE SMOOTH",
"191 0 OFFCURVE",
"226 37 OFFCURVE",
"226 81 CURVE SMOOTH",
"226 465 LINE",
"518 83 LINE",
"550 37 OFFCURVE",
"585 0 OFFCURVE",
"625 0 CURVE SMOOTH",
"701 0 OFFCURVE",
"712 71 OFFCURVE",
"712 147 CURVE SMOOTH",
"712 630 LINE SMOOTH",
"712 674 OFFCURVE",
"678 711 OFFCURVE",
"636 711 CURVE SMOOTH",
"593 711 OFFCURVE",
"560 674 OFFCURVE",
"560 630 CURVE SMOOTH"
);
}
);
width = 786;
}
);
unicode = 004E;
userData = {
anchors = (
);
b = {
};
com.typemytype.robofont.layerData = {
b = {
anchors = (
);
components = (
);
contours = (
);
lib = {
};
name = N;
unicodes = (
);
width = 1499;
};
};
components = (
);
contours = (
);
lib = {
};
name = N;
unicodes = (
);
width = 1557;
};
},
{
glyphname = Eng;
lastChange = "2016-08-29 15:56:25 +0000";
layers = (
{
layerId = "9E718F8A-2CEA-4931-B05D-987794BD97DA";
paths = (
{
closed = 1;
nodes = (
"148 606 LINE",
"570 -3 LINE",
"570 -3 LINE",
"570 -106 OFFCURVE",
"548 -158 OFFCURVE",
"461 -158 CURVE SMOOTH",
"426 -158 OFFCURVE",
"380 -149 OFFCURVE",
"319 -133 CURVE SMOOTH",
"316 -132 OFFCURVE",
"313 -132 OFFCURVE",
"310 -132 CURVE SMOOTH",
"292 -132 OFFCURVE",
"280 -142 OFFCURVE",
"280 -156 CURVE SMOOTH",
"280 -168 OFFCURVE",
"289 -180 OFFCURVE",
"312 -185 CURVE SMOOTH",
"365 -198 OFFCURVE",
"417 -207 OFFCURVE",
"459 -207 CURVE SMOOTH",
"569 -207 OFFCURVE",
"626 -155 OFFCURVE",
"626 24 CURVE SMOOTH",
"626 664 LINE SMOOTH",
"626 683 OFFCURVE",
"613 693 OFFCURVE",
"598 693 CURVE SMOOTH",
"582 693 OFFCURVE",
"570 683 OFFCURVE",
"570 664 CURVE SMOOTH",
"570 85 LINE",
"182 653 LINE SMOOTH",
"164 680 OFFCURVE",
"146 693 OFFCURVE",
"130 693 CURVE SMOOTH",
"106 693 OFFCURVE",
"91 676 OFFCURVE",
"91 647 CURVE SMOOTH",
"91 29 LINE SMOOTH",
"91 9 OFFCURVE",
"104 0 OFFCURVE",
"120 0 CURVE SMOOTH",
"135 0 OFFCURVE",
"148 10 OFFCURVE",
"148 29 CURVE SMOOTH"
);
}
);
width = 712;
},
{
layerId = "334510DF-EE69-4F45-9EE4-32E3392006F4";
paths = (
{
closed = 1;
nodes = (
"177 550 LINE",
"563 -2 LINE",
"564 -3 LINE",
"564 -105 OFFCURVE",
"538 -150 OFFCURVE",
"455 -150 CURVE SMOOTH",
"421 -150 OFFCURVE",
"378 -143 OFFCURVE",
"324 -129 CURVE",
"320 -128 OFFCURVE",
"315 -127 OFFCURVE",
"311 -127 CURVE SMOOTH",
"288 -127 OFFCURVE",
"272 -145 OFFCURVE",
"272 -163 CURVE SMOOTH",
"272 -179 OFFCURVE",
"284 -195 OFFCURVE",
"311 -201 CURVE SMOOTH",
"367 -213 OFFCURVE",
"417 -221 OFFCURVE",
"461 -221 CURVE SMOOTH",
"585 -221 OFFCURVE",
"655 -159 OFFCURVE",
"655 24 CURVE SMOOTH",
"655 654 LINE SMOOTH",
"655 683 OFFCURVE",
"632 698 OFFCURVE",
"609 698 CURVE SMOOTH",
"586 698 OFFCURVE",
"564 683 OFFCURVE",
"564 654 CURVE SMOOTH",
"564 142 LINE",
"208 659 LINE SMOOTH",
"190 686 OFFCURVE",
"163 698 OFFCURVE",
"142 698 CURVE SMOOTH",
"111 698 OFFCURVE",
"86 675 OFFCURVE",
"86 635 CURVE SMOOTH",
"86 43 LINE SMOOTH",
"86 14 OFFCURVE",
"108 0 OFFCURVE",
"131 0 CURVE SMOOTH",
"154 0 OFFCURVE",
"177 15 OFFCURVE",
"177 43 CURVE SMOOTH"
);
}
);
width = 738;
},
{
layerId = "E1B555A7-F4E1-459C-9C1A-AE952106EEF9";
paths = (
{
closed = 1;
nodes = (
"226 465 LINE",
"558 -2 LINE",
"558 -3 LINE",
"558 -88 OFFCURVE",
"532 -129 OFFCURVE",
"461 -129 CURVE SMOOTH",
"435 -129 OFFCURVE",
"403 -124 OFFCURVE",
"364 -113 CURVE SMOOTH",
"359 -111 OFFCURVE",
"353 -110 OFFCURVE",
"348 -110 CURVE SMOOTH",
"320 -110 OFFCURVE",
"301 -136 OFFCURVE",
"301 -161 CURVE SMOOTH",
"301 -182 OFFCURVE",
"314 -204 OFFCURVE",
"344 -211 CURVE SMOOTH",
"401 -225 OFFCURVE",
"452 -233 OFFCURVE",
"497 -233 CURVE SMOOTH",
"633 -233 OFFCURVE",
"712 -162 OFFCURVE",
"712 24 CURVE SMOOTH",
"712 630 LINE SMOOTH",
"712 674 OFFCURVE",
"678 711 OFFCURVE",
"636 711 CURVE SMOOTH",
"593 711 OFFCURVE",
"560 674 OFFCURVE",
"560 630 CURVE SMOOTH",
"560 228 LINE",
"271 627 LINE SMOOTH",
"239 671 OFFCURVE",
"203 710 OFFCURVE",
"162 711 CURVE SMOOTH",
"113 711 OFFCURVE",
"73 674 OFFCURVE",
"73 607 CURVE SMOOTH",
"73 81 LINE SMOOTH",
"73 38 OFFCURVE",
"106 0 OFFCURVE",
"149 0 CURVE SMOOTH",
"191 0 OFFCURVE",
"226 37 OFFCURVE",
"226 81 CURVE SMOOTH"
);
}
);
width = 786;
}
);
unicode = 014A;
userData = {
com.typemytype.robofont.layerData = {
b = {
anchors = (
);
components = (
);
contours = (
);
lib = {
};
name = Eng;
unicodes = (
);
width = 1495;
};
};
};
},
{
glyphname = O;
lastChange = "2016-08-29 15:56:25 +0000";
layers = (
{
anchors = (
{
name = bottom;
position = "{389, 0}";
},
{
name = center;
position = "{389, 347}";
},
{
name = ogonek;
position = "{700, 5}";
},
{
name = top;
position = "{388, 702}";
},
{
name = topleft;
position = "{10, 693}";
},
{
name = topright;
position = "{768, 693}";
}
);
layerId = "9E718F8A-2CEA-4931-B05D-987794BD97DA";
paths = (
{
closed = 1;
nodes = (
"199 689 OFFCURVE",
"71 558 OFFCURVE",
"71 339 CURVE SMOOTH",
"71 121 OFFCURVE",
"199 -11 OFFCURVE",
"389 -11 CURVE SMOOTH",
"578 -11 OFFCURVE",
"707 121 OFFCURVE",
"707 339 CURVE SMOOTH",
"707 558 OFFCURVE",
"578 689 OFFCURVE",
"389 689 CURVE SMOOTH"
);
},
{
closed = 1;
nodes = (
"539 641 OFFCURVE",
"642 533 OFFCURVE",
"642 339 CURVE SMOOTH",
"642 147 OFFCURVE",
"540 38 OFFCURVE",
"389 38 CURVE SMOOTH",
"239 38 OFFCURVE",
"136 147 OFFCURVE",
"136 339 CURVE SMOOTH",
"136 533 OFFCURVE",
"239 641 OFFCURVE",
"389 641 CURVE SMOOTH"
);
}
);
width = 778;
},
{
anchors = (
{
name = bottom;
position = "{391, 0}";
},
{
name = center;
position = "{391, 349}";
},
{
name = ogonek;
position = "{703, 5}";
},
{
name = top;
position = "{391, 702}";
},
{
name = topleft;
position = "{10, 698}";
},
{
name = topright;
position = "{771, 698}";
}
);
layerId = "334510DF-EE69-4F45-9EE4-32E3392006F4";
paths = (
{
closed = 1;
nodes = (
"185 708 OFFCURVE",
"60 567 OFFCURVE",
"60 349 CURVE SMOOTH",
"60 130 OFFCURVE",
"185 -11 OFFCURVE",
"391 -11 CURVE SMOOTH",
"597 -11 OFFCURVE",
"721 130 OFFCURVE",
"721 349 CURVE SMOOTH",
"721 567 OFFCURVE",
"597 708 OFFCURVE",
"391 708 CURVE SMOOTH"
);
},
{
closed = 1;
nodes = (
"535 629 OFFCURVE",
"616 521 OFFCURVE",
"616 349 CURVE SMOOTH",
"616 176 OFFCURVE",
"535 68 OFFCURVE",
"391 68 CURVE SMOOTH",
"247 68 OFFCURVE",
"165 176 OFFCURVE",
"165 349 CURVE SMOOTH",
"165 521 OFFCURVE",
"246 629 OFFCURVE",
"391 629 CURVE SMOOTH"
);
}
);
width = 781;
},
{
anchors = (
{
name = bottom;
position = "{399, 0}";
},
{
name = center;
position = "{399, 355}";
},
{
name = ogonek;
position = "{718, 5}";
},
{
name = top;
position = "{398, 709}";
},
{
name = topleft;
position = "{10, 711}";
},
{
name = topright;
position = "{788, 711}";
}
);
layerId = "E1B555A7-F4E1-459C-9C1A-AE952106EEF9";
paths = (
{
closed = 1;
nodes = (
"169 726 OFFCURVE",
"50 603 OFFCURVE",
"50 354 CURVE SMOOTH",
"50 105 OFFCURVE",
"169 -19 OFFCURVE",
"399 -19 CURVE SMOOTH",
"628 -19 OFFCURVE",
"748 105 OFFCURVE",
"748 354 CURVE SMOOTH",
"748 603 OFFCURVE",
"628 726 OFFCURVE",
"399 726 CURVE SMOOTH"
);
},
{
closed = 1;
nodes = (
"514 595 OFFCURVE",
"560 533 OFFCURVE",
"560 354 CURVE SMOOTH",
"560 175 OFFCURVE",
"514 113 OFFCURVE",
"399 113 CURVE SMOOTH",
"285 113 OFFCURVE",
"239 175 OFFCURVE",
"239 354 CURVE SMOOTH",
"239 533 OFFCURVE",
"285 595 OFFCURVE",
"399 595 CURVE SMOOTH"
);
}
);
width = 797;
}
);
unicode = 004F;
userData = {
anchors = (
);
b = {
};
com.typemytype.robofont.guides = (
);
com.typemytype.robofont.layerData = {
b = {
anchors = (
);
components = (
);
contours = (
);
lib = {
};
name = O;
unicodes = (
);
width = 1597;
};
};
components = (
);
contours = (
);
lib = {
};
name = O;
unicodes = (
);
width = 1604;
};
},
{
glyphname = Oslash;
lastChange = "2016-08-29 15:56:25 +0000";
layers = (
{
anchors = (
{
name = bottom;
position = "{389, 0}";
},
{
name = top;
position = "{389, 693}";
}
);
components = (
{
name = O;
}
);
layerId = "9E718F8A-2CEA-4931-B05D-987794BD97DA";
paths = (
{
closed = 1;
nodes = (
"110 -11 LINE",
"107 -16 OFFCURVE",
"106 -19 OFFCURVE",
"106 -23 CURVE SMOOTH",
"106 -34 OFFCURVE",
"116 -44 OFFCURVE",
"128 -44 CURVE SMOOTH",
"135 -44 OFFCURVE",
"144 -44 OFFCURVE",
"152 -34 CURVE",
"674 697 LINE SMOOTH",
"681 706 OFFCURVE",
"683 714 OFFCURVE",
"683 720 CURVE SMOOTH",
"683 734 OFFCURVE",
"672 743 OFFCURVE",
"661 743 CURVE SMOOTH",
"653 743 OFFCURVE",
"643 740 OFFCURVE",
"634 728 CURVE SMOOTH"
);
}
);
width = 778;
},
{
anchors = (
{
name = bottom;
position = "{391, 0}";
},
{
name = top;
position = "{391, 698}";
}
);
layerId = "334510DF-EE69-4F45-9EE4-32E3392006F4";
paths = (
{
closed = 1;
nodes = (
"573 660 LINE",
"523 691 OFFCURVE",
"462 708 OFFCURVE",
"391 708 CURVE SMOOTH",
"185 708 OFFCURVE",
"60 567 OFFCURVE",
"60 349 CURVE SMOOTH",
"60 226 OFFCURVE",
"99 128 OFFCURVE",
"170 66 CURVE",
"115 -16 LINE SMOOTH",
"110 -23 OFFCURVE",
"107 -30 OFFCURVE",
"107 -37 CURVE SMOOTH",
"107 -54 OFFCURVE",
"121 -66 OFFCURVE",
"137 -66 CURVE SMOOTH",
"148 -66 OFFCURVE",
"158 -60 OFFCURVE",
"168 -46 CURVE",
"220 30 LINE",
"268 3 OFFCURVE",
"325 -11 OFFCURVE",
"391 -11 CURVE SMOOTH",
"597 -11 OFFCURVE",
"721 130 OFFCURVE",
"721 349 CURVE SMOOTH",
"721 464 OFFCURVE",
"686 558 OFFCURVE",
"623 620 CURVE",
"680 703 LINE SMOOTH",
"687 713 OFFCURVE",
"690 723 OFFCURVE",
"690 732 CURVE SMOOTH",
"690 750 OFFCURVE",
"676 761 OFFCURVE",
"660 761 CURVE SMOOTH",
"650 761 OFFCURVE",
"638 757 OFFCURVE",
"629 744 CURVE SMOOTH"
);
},
{
closed = 1;
nodes = (
"223 144 LINE",
"185 193 OFFCURVE",
"165 263 OFFCURVE",
"165 349 CURVE SMOOTH",
"165 521 OFFCURVE",
"246 629 OFFCURVE",
"391 629 CURVE SMOOTH",
"444 629 OFFCURVE",
"488 614 OFFCURVE",
"523 587 CURVE"
);
},
{
closed = 1;
nodes = (
"568 539 LINE",
"599 491 OFFCURVE",
"616 426 OFFCURVE",
"616 349 CURVE SMOOTH",
"616 176 OFFCURVE",
"535 68 OFFCURVE",
"391 68 CURVE SMOOTH",
"343 68 OFFCURVE",
"303 80 OFFCURVE",
"269 102 CURVE"
);
}
);
width = 781;
},
{
anchors = (
{
name = bottom;
position = "{394, 0}";
},
{
name = top;
position = "{394, 711}";
}
);
components = (
{
name = O;
}
);
layerId = "E1B555A7-F4E1-459C-9C1A-AE952106EEF9";
paths = (
{
closed = 1;
nodes = (
"123 -25 LINE SMOOTH",
"115 -39 OFFCURVE",
"109 -55 OFFCURVE",
"109 -69 CURVE SMOOTH",
"109 -97 OFFCURVE",
"130 -113 OFFCURVE",
"154 -113 CURVE SMOOTH",
"175 -113 OFFCURVE",
"186 -94 OFFCURVE",
"199 -71 CURVE SMOOTH",
"690 715 LINE SMOOTH",
"698 728 OFFCURVE",
"705 744 OFFCURVE",
"705 758 CURVE SMOOTH",
"705 784 OFFCURVE",
"683 802 OFFCURVE",
"659 802 CURVE SMOOTH",
"643 802 OFFCURVE",
"629 794 OFFCURVE",
"620 778 CURVE SMOOTH"
);
}
);
width = 787;
}
);
unicode = 00D8;
userData = {
com.typemytype.robofont.layerData = {
b = {
anchors = (
);
components = (
);
contours = (
);
lib = {
};
name = Oslash;
unicodes = (
);
width = 1597;
};
};
};
},
{
glyphname = OE;
lastChange = "2016-08-29 15:56:25 +0000";
layers = (
{
anchors = (
{
name = bottom;
position = "{488, 0}";
},
{
name = top;
position = "{488, 693}";
}
);
layerId = "9E718F8A-2CEA-4931-B05D-987794BD97DA";
paths = (
{
closed = 1;
nodes = (
"597 54 LINE",
"597 330 LINE",
"852 330 LINE SMOOTH",
"874 330 OFFCURVE",
"884 344 OFFCURVE",
"884 357 CURVE SMOOTH",
"884 372 OFFCURVE",
"874 386 OFFCURVE",
"852 386 CURVE SMOOTH",
"597 386 LINE",
"597 638 LINE",
"866 638 LINE SMOOTH",
"885 638 OFFCURVE",
"896 652 OFFCURVE",
"896 666 CURVE SMOOTH",
"896 681 OFFCURVE",
"885 693 OFFCURVE",
"866 693 CURVE SMOOTH",
"536 693 LINE SMOOTH",
"536 693 OFFCURVE",
"417 708 OFFCURVE",
"351 708 CURVE SMOOTH",
"171 708 OFFCURVE",
"62 562 OFFCURVE",
"62 346 CURVE SMOOTH",
"62 130 OFFCURVE",
"171 -16 OFFCURVE",
"351 -16 CURVE SMOOTH",
"416 -16 OFFCURVE",
"536 0 OFFCURVE",
"536 0 CURVE",
"880 0 LINE SMOOTH",
"899 0 OFFCURVE",
"909 12 OFFCURVE",
"909 26 CURVE SMOOTH",
"909 41 OFFCURVE",
"899 54 OFFCURVE",
"880 54 CURVE SMOOTH"
);
},
{
closed = 1;
nodes = (
"536 54 LINE",
"536 54 OFFCURVE",
"464 42 OFFCURVE",
"351 40 CURVE SMOOTH",
"194 40 OFFCURVE",
"125 194 OFFCURVE",
"125 346 CURVE SMOOTH",
"125 498 OFFCURVE",
"194 652 OFFCURVE",
"351 652 CURVE SMOOTH",
"470 652 OFFCURVE",
"535 641 OFFCURVE",
"536 641 CURVE"
);
}
);
width = 976;
},
{
anchors = (
{
name = bottom;
position = "{488, 0}";
},
{
name = top;
position = "{488, 698}";
}
);
layerId = "334510DF-EE69-4F45-9EE4-32E3392006F4";
paths = (
{
closed = 1;
nodes = (
"616 77 LINE",
"616 320 LINE",
"848 320 LINE SMOOTH",
"875 320 OFFCURVE",
"889 339 OFFCURVE",
"889 358 CURVE SMOOTH",
"889 378 OFFCURVE",
"875 397 OFFCURVE",
"848 397 CURVE SMOOTH",
"616 397 LINE",
"616 620 LINE",
"865 620 LINE SMOOTH",
"891 620 OFFCURVE",
"905 640 OFFCURVE",
"905 659 CURVE SMOOTH",
"905 679 OFFCURVE",
"891 698 OFFCURVE",
"865 698 CURVE SMOOTH",
"537 698 LINE SMOOTH",
"530 698 OFFCURVE",
"422 710 OFFCURVE",
"358 710 CURVE SMOOTH",
"169 710 OFFCURVE",
"56 569 OFFCURVE",
"56 349 CURVE SMOOTH",
"56 129 OFFCURVE",
"170 -14 OFFCURVE",
"353 -14 CURVE SMOOTH",
"414 -14 OFFCURVE",
"524 0 OFFCURVE",
"530 0 CURVE SMOOTH",
"877 0 LINE SMOOTH",
"903 0 OFFCURVE",
"916 19 OFFCURVE",
"916 38 CURVE SMOOTH",
"916 58 OFFCURVE",
"903 77 OFFCURVE",
"877 77 CURVE SMOOTH"
);
},
{
closed = 1;
nodes = (
"520 75 LINE",
"518 74 OFFCURVE",
"455 63 OFFCURVE",
"357 62 CURVE SMOOTH",
"217 62 OFFCURVE",
"155 198 OFFCURVE",
"155 349 CURVE SMOOTH",
"155 501 OFFCURVE",
"218 635 OFFCURVE",
"357 635 CURVE SMOOTH",
"461 635 OFFCURVE",
"517 625 OFFCURVE",
"520 625 CURVE"
);
}
);
width = 976;
},
{
anchors = (
{
name = bottom;
position = "{488, 0}";
},
{
name = top;
position = "{488, 711}";
}
);
layerId = "E1B555A7-F4E1-459C-9C1A-AE952106EEF9";
paths = (
{
closed = 1;
nodes = (
"659 131 LINE",
"659 296 LINE",
"791 296 LINE SMOOTH",
"859 296 OFFCURVE",
"901 305 OFFCURVE",
"901 361 CURVE SMOOTH",
"901 423 OFFCURVE",
"851 427 OFFCURVE",
"804 427 CURVE SMOOTH",
"659 427 LINE",
"659 579 LINE",
"814 579 LINE SMOOTH",
"884 579 OFFCURVE",
"925 588 OFFCURVE",
"925 645 CURVE SMOOTH",
"925 700 OFFCURVE",
"884 710 OFFCURVE",
"838 710 CURVE SMOOTH",
"541 710 LINE SMOOTH",
"515 710 OFFCURVE",
"432 718 OFFCURVE",
"375 718 CURVE SMOOTH",
"162 718 OFFCURVE",
"42 582 OFFCURVE",
"42 354 CURVE SMOOTH",
"42 124 OFFCURVE",
"168 -8 OFFCURVE",
"357 -8 CURVE SMOOTH",
"372 -8 OFFCURVE",
"504 0 OFFCURVE",
"518 0 CURVE SMOOTH",
"847 0 LINE SMOOTH",
"899 0 OFFCURVE",
"933 15 OFFCURVE",
"933 65 CURVE SMOOTH",
"933 129 OFFCURVE",
"874 131 OFFCURVE",
"820 131 CURVE SMOOTH"
);
},
{
closed = 1;
nodes = (
"487 125 LINE",
"481 122 OFFCURVE",
"433 113 OFFCURVE",
"372 113 CURVE SMOOTH",
"260 113 OFFCURVE",
"219 210 OFFCURVE",
"219 358 CURVE SMOOTH",
"219 508 OFFCURVE",
"269 597 OFFCURVE",
"373 597 CURVE SMOOTH",
"439 597 OFFCURVE",
"479 590 OFFCURVE",
"487 586 CURVE"
);
}
);
width = 976;
}
);
unicode = 0152;
},
{
glyphname = P;
lastChange = "2016-08-29 15:56:25 +0000";
layers = (
{
anchors = (
{
name = bottom;
position = "{281, 0}";
},
{
name = top;
position = "{306, 702}";
}
);
layerId = "9E718F8A-2CEA-4931-B05D-987794BD97DA";
paths = (
{
closed = 1;
nodes = (
"149 320 LINE",
"311 320 LINE SMOOTH",
"441 320 OFFCURVE",
"552 361 OFFCURVE",
"552 505 CURVE SMOOTH",
"552 647 OFFCURVE",
"463 693 OFFCURVE",
"315 693 CURVE SMOOTH",
"119 693 LINE SMOOTH",
"101 693 OFFCURVE",
"88 680 OFFCURVE",
"88 664 CURVE SMOOTH",
"88 28 LINE SMOOTH",
"88 10 OFFCURVE",
"104 0 OFFCURVE",
"119 0 CURVE SMOOTH",
"133 0 OFFCURVE",
"149 9 OFFCURVE",
"149 28 CURVE SMOOTH"
);
},
{
closed = 1;
nodes = (
"149 368 LINE",
"149 645 LINE",
"323 645 LINE SMOOTH",
"452 645 OFFCURVE",
"493 595 OFFCURVE",
"493 505 CURVE SMOOTH",
"493 414 OFFCURVE",
"440 368 OFFCURVE",
"314 368 CURVE SMOOTH"
);
}
);
width = 562;
},
{
anchors = (
{
name = bottom;
position = "{301, 0}";
},
{
name = top;
position = "{316, 702}";
}
);
layerId = "334510DF-EE69-4F45-9EE4-32E3392006F4";
paths = (
{
closed = 1;
nodes = (
"185 300 LINE",
"334 300 LINE SMOOTH",
"483 300 OFFCURVE",
"589 349 OFFCURVE",
"589 499 CURVE SMOOTH",
"589 646 OFFCURVE",
"495 698 OFFCURVE",
"343 698 CURVE SMOOTH",
"136 698 LINE SMOOTH",
"108 698 OFFCURVE",
"86 676 OFFCURVE",
"86 649 CURVE SMOOTH",
"86 47 LINE SMOOTH",
"86 16 OFFCURVE",
"111 0 OFFCURVE",
"136 0 CURVE SMOOTH",
"161 0 OFFCURVE",
"185 15 OFFCURVE",
"185 47 CURVE SMOOTH"
);
},
{
closed = 1;
nodes = (
"185 375 LINE",
"185 620 LINE",
"339 620 LINE SMOOTH",
"444 620 OFFCURVE",
"492 589 OFFCURVE",
"492 499 CURVE SMOOTH",
"492 407 OFFCURVE",
"439 375 OFFCURVE",
"333 375 CURVE SMOOTH"
);
}
);
width = 603;
},
{
anchors = (
{
name = bottom;
position = "{337, 0}";
},
{
name = top;
position = "{359, 702}";
}
);
layerId = "E1B555A7-F4E1-459C-9C1A-AE952106EEF9";
paths = (
{
closed = 1;
nodes = (
"254 268 LINE",
"380 268 LINE SMOOTH",
"553 268 OFFCURVE",
"654 342 OFFCURVE",
"654 490 CURVE SMOOTH",
"654 668 OFFCURVE",
"531 711 OFFCURVE",
"380 711 CURVE SMOOTH",
"189 711 LINE SMOOTH",
"86 711 OFFCURVE",
"73 646 OFFCURVE",
"73 563 CURVE SMOOTH",
"73 102 LINE SMOOTH",
"73 46 OFFCURVE",
"113 0 OFFCURVE",
"163 0 CURVE SMOOTH",
"213 0 OFFCURVE",
"254 46 OFFCURVE",
"254 102 CURVE SMOOTH"
);
},
{
closed = 1;
nodes = (
"254 379 LINE",
"254 593 LINE",
"359 593 LINE SMOOTH",
"436 593 OFFCURVE",
"478 576 OFFCURVE",
"478 490 CURVE SMOOTH",
"478 401 OFFCURVE",
"434 381 OFFCURVE",
"351 379 CURVE SMOOTH"
);
}
);
width = 675;
}
);
unicode = 0050;
userData = {
anchors = (
);
b = {
};
com.typemytype.robofont.layerData = {
b = {
anchors = (
);
components = (
);
contours = (
{
points = (
{
segmentType = curve;
smooth = 1;
x = 266;
y = 0;
},
{
segmentType = line;
smooth = 1;
x = 1035;
y = 0;
},
{
smooth = 0;
x = 1084;
y = 0;
},
{
smooth = 0;
x = 1108;
y = 34;
},
{
segmentType = curve;
smooth = 1;
x = 1108;
y = 71;
},
{
smooth = 0;
x = 1108;
y = 107;
},
{
smooth = 0;
x = 1084;
y = 141;
},
{
segmentType = curve;
smooth = 1;
x = 1035;
y = 141;
},
{
segmentType = line;
smooth = 0;
x = 356;
y = 141;
},
{
segmentType = line;
smooth = 0;
x = 356;
y = 665;
},
{
segmentType = line;
smooth = 1;
x = 975;
y = 665;
},
{
smooth = 0;
x = 1024;
y = 665;
},
{
smooth = 0;
x = 1049;
y = 698;
},
{
segmentType = curve;
smooth = 1;
x = 1049;
y = 734;
},
{
smooth = 0;
x = 1049;
y = 770;
},
{
smooth = 0;
x = 1026;
y = 803;
},
{
segmentType = curve;
smooth = 1;
x = 975;
y = 803;
},
{
segmentType = line;
smooth = 0;
x = 356;
y = 803;
},
{
segmentType = line;
smooth = 0;
x = 356;
y = 1285;
},
{
segmentType = line;
smooth = 1;
x = 1007;
y = 1285;
},
{
smooth = 0;
x = 1056;
y = 1285;
},
{
smooth = 0;
x = 1080;
y = 1319;
},
{
segmentType = curve;
smooth = 1;
x = 1080;
y = 1356;
},
{
smooth = 0;
x = 1080;
y = 1392;
},
{
smooth = 0;
x = 1056;
y = 1426;
},
{
segmentType = curve;
smooth = 1;
x = 1007;
y = 1426;
},
{
segmentType = line;
smooth = 1;
x = 261;
y = 1426;
},
{
smooth = 0;
x = 213;
y = 1426;
},
{
smooth = 0;
x = 178;
y = 1383;
},
{
segmentType = curve;
smooth = 1;
x = 178;
y = 1340;
},
{
segmentType = line;
smooth = 1;
x = 178;
y = 86;
},
{
smooth = 0;
x = 178;
y = 41;
},
{
smooth = 0;
x = 222;
y = 0;
}
);
}
);
lib = {
};
name = P;
unicodes = (
);
width = 1201;
};
};
components = (
);
contours = (
);
lib = {
};
name = P;
unicodes = (
);
width = 1319;
};
},
{
glyphname = Thorn;
lastChange = "2016-08-29 15:56:25 +0000";
layers = (
{
anchors = (
{
name = bottom;
position = "{304, 0}";
},
{
name = top;
position = "{304, 693}";
}
);
layerId = "9E718F8A-2CEA-4931-B05D-987794BD97DA";
paths = (
{
closed = 1;
nodes = (
"161 214 LINE",
"294 214 LINE SMOOTH",
"427 214 OFFCURVE",
"573 250 OFFCURVE",
"573 410 CURVE SMOOTH",
"573 569 OFFCURVE",
"427 605 OFFCURVE",
"293 605 CURVE SMOOTH",
"161 605 LINE",
"161 667 LINE SMOOTH",
"161 686 OFFCURVE",
"146 695 OFFCURVE",
"130 695 CURVE SMOOTH",
"116 695 OFFCURVE",
"101 686 OFFCURVE",
"101 667 CURVE SMOOTH",
"101 27 LINE SMOOTH",
"101 9 OFFCURVE",
"116 0 OFFCURVE",
"131 0 CURVE SMOOTH",
"146 0 OFFCURVE",
"161 8 OFFCURVE",
"161 27 CURVE SMOOTH"
);
},
{
closed = 1;
nodes = (
"161 271 LINE",
"161 549 LINE",
"322 549 LINE SMOOTH",
"420 549 OFFCURVE",
"507 520 OFFCURVE",
"507 410 CURVE SMOOTH",
"507 299 OFFCURVE",
"420 271 OFFCURVE",
"323 271 CURVE SMOOTH"
);
}
);
width = 608;
},
{
anchors = (
{
name = bottom;
position = "{316, 0}";
},
{
name = top;
position = "{316, 698}";
}
);
layerId = "334510DF-EE69-4F45-9EE4-32E3392006F4";
paths = (
{
closed = 1;
nodes = (
"192 193 LINE",
"318 193 LINE SMOOTH",
"462 193 OFFCURVE",
"600 240 OFFCURVE",
"600 397 CURVE SMOOTH",
"600 552 OFFCURVE",
"465 599 OFFCURVE",
"324 599 CURVE SMOOTH",
"192 599 LINE",
"192 655 LINE SMOOTH",
"192 687 OFFCURVE",
"167 702 OFFCURVE",
"142 702 CURVE SMOOTH",
"117 702 OFFCURVE",
"92 687 OFFCURVE",
"92 655 CURVE SMOOTH",
"92 47 LINE SMOOTH",
"92 15 OFFCURVE",
"117 0 OFFCURVE",
"142 0 CURVE SMOOTH",
"167 0 OFFCURVE",
"192 15 OFFCURVE",
"192 47 CURVE SMOOTH"
);
},
{
closed = 1;
nodes = (
"192 268 LINE",
"192 525 LINE",
"330 525 LINE SMOOTH",
"421 525 OFFCURVE",
"498 497 OFFCURVE",
"498 397 CURVE SMOOTH",
"498 296 OFFCURVE",
"421 268 OFFCURVE",
"328 268 CURVE SMOOTH"
);
}
);
width = 631;
},
{
anchors = (
{
name = bottom;
position = "{339, 0}";
},
{
name = top;
position = "{339, 711}";
}
);
layerId = "E1B555A7-F4E1-459C-9C1A-AE952106EEF9";
paths = (
{
closed = 1;
nodes = (
"255 153 LINE",
"367 153 LINE SMOOTH",
"544 153 OFFCURVE",
"655 231 OFFCURVE",
"655 375 CURVE SMOOTH",
"655 532 OFFCURVE",
"518 595 OFFCURVE",
"353 595 CURVE SMOOTH",
"255 595 LINE",
"255 611 LINE SMOOTH",
"255 688 OFFCURVE",
"218 726 OFFCURVE",
"160 726 CURVE SMOOTH",
"84 726 OFFCURVE",
"74 655 OFFCURVE",
"74 590 CURVE SMOOTH",
"74 123 LINE SMOOTH",
"74 46 OFFCURVE",
"98 2 OFFCURVE",
"160 2 CURVE SMOOTH",
"226 2 OFFCURVE",
"255 68 OFFCURVE",
"255 152 CURVE SMOOTH"
);
},
{
closed = 1;
nodes = (
"255 272 LINE",
"255 476 LINE",
"346 476 LINE SMOOTH",
"424 476 OFFCURVE",
"479 451 OFFCURVE",
"479 375 CURVE SMOOTH",
"479 298 OFFCURVE",
"421 272 OFFCURVE",
"338 272 CURVE SMOOTH"
);
}
);
width = 679;
}
);
unicode = 00DE;
},
{
glyphname = Q;
lastChange = "2016-08-29 15:56:25 +0000";
layers = (
{
anchors = (
{
name = bottom;
position = "{389, 0}";
},
{
name = top;
position = "{389, 693}";
}
);
components = (
{
name = O;
}
);
layerId = "9E718F8A-2CEA-4931-B05D-987794BD97DA";
paths = (
{
closed = 1;
nodes = (
"476 18 LINE",
"359 11 LINE",
"663 -118 LINE SMOOTH",
"667 -120 OFFCURVE",
"672 -120 OFFCURVE",
"676 -120 CURVE SMOOTH",
"689 -120 OFFCURVE",
"702 -110 OFFCURVE",
"702 -94 CURVE SMOOTH",
"702 -83 OFFCURVE",
"696 -72 OFFCURVE",
"685 -68 CURVE"
);
}
);
width = 778;
},
{
anchors = (
{
name = bottom;
position = "{391, 0}";
},
{
name = top;
position = "{391, 698}";
}
);
components = (
{
name = O;
}
);
layerId = "334510DF-EE69-4F45-9EE4-32E3392006F4";
paths = (
{
closed = 1;
nodes = (
"491 38 LINE",
"354 16 LINE",
"620 -104 LINE",
"625 -107 OFFCURVE",
"631 -108 OFFCURVE",
"637 -108 CURVE SMOOTH",
"656 -108 OFFCURVE",
"674 -91 OFFCURVE",
"674 -69 CURVE SMOOTH",
"674 -56 OFFCURVE",
"667 -42 OFFCURVE",
"651 -35 CURVE SMOOTH"
);
}
);
width = 781;
},
{
anchors = (
{
name = bottom;
position = "{399, 0}";
},
{
name = top;
position = "{399, 711}";
}
);
components = (
{
name = O;
}
);
layerId = "E1B555A7-F4E1-459C-9C1A-AE952106EEF9";
paths = (
{
closed = 1;
nodes = (
"526 91 LINE",
"372 34 LINE",
"632 -128 LINE SMOOTH",
"648 -138 OFFCURVE",
"664 -144 OFFCURVE",
"679 -144 CURVE SMOOTH",
"710 -144 OFFCURVE",
"736 -110 OFFCURVE",
"736 -80 CURVE SMOOTH",
"736 -58 OFFCURVE",
"721 -41 OFFCURVE",
"699 -26 CURVE SMOOTH"
);
}
);
width = 797;
}
);
unicode = 0051;
userData = {
anchors = (
);
b = {
};
com.typemytype.robofont.layerData = {
b = {
anchors = (
);
components = (
);
contours = (
);
lib = {
};
name = Q;
unicodes = (
);
width = 1597;
};
};
components = (
);
contours = (
);
lib = {
};
name = Q;
unicodes = (
);
width = 1604;
};
},
{
glyphname = R;
lastChange = "2016-08-29 15:56:25 +0000";
layers = (
{
anchors = (
{
name = bottom;
position = "{325, 0}";
},
{
name = top;
position = "{336, 702}";
}
);
layerId = "9E718F8A-2CEA-4931-B05D-987794BD97DA";
paths = (
{
closed = 1;
nodes = (
"149 335 LINE",
"347 335 LINE SMOOTH",
"454 335 OFFCURVE",
"474 316 OFFCURVE",
"490 174 CURVE SMOOTH",
"507 29 LINE SMOOTH",
"509 9 OFFCURVE",
"526 0 OFFCURVE",
"541 0 CURVE SMOOTH",
"557 0 OFFCURVE",
"568 12 OFFCURVE",
"568 30 CURVE SMOOTH",
"568 32 OFFCURVE",
"568 34 OFFCURVE",
"567 36 CURVE",
"547 215 LINE SMOOTH",
"537 301 OFFCURVE",
"502 348 OFFCURVE",
"432 362 CURVE",
"432 364 LINE",
"524 385 OFFCURVE",
"565 446 OFFCURVE",
"565 521 CURVE SMOOTH",
"565 671 OFFCURVE",
"435 693 OFFCURVE",
"321 693 CURVE SMOOTH",
"119 693 LINE SMOOTH",
"102 693 OFFCURVE",
"88 680 OFFCURVE",
"88 664 CURVE SMOOTH",
"88 28 LINE SMOOTH",
"88 9 OFFCURVE",
"104 0 OFFCURVE",
"119 0 CURVE SMOOTH",
"133 0 OFFCURVE",
"149 8 OFFCURVE",
"149 28 CURVE SMOOTH"
);
},
{
closed = 1;
nodes = (
"149 382 LINE",
"149 645 LINE",
"335 645 LINE SMOOTH",
"407 645 OFFCURVE",
"506 628 OFFCURVE",
"506 521 CURVE SMOOTH",
"506 414 OFFCURVE",
"429 382 OFFCURVE",
"336 382 CURVE SMOOTH"
);
}
);
width = 641;
},
{
anchors = (
{
name = bottom;
position = "{350, 0}";
},
{
name = top;
position = "{333, 702}";
}
);
layerId = "334510DF-EE69-4F45-9EE4-32E3392006F4";
paths = (
{
closed = 1;
nodes = (
"185 319 LINE",
"348 319 LINE SMOOTH",
"450 319 OFFCURVE",
"470 292 OFFCURVE",
"482 181 CURVE SMOOTH",
"498 44 LINE SMOOTH",
"500 15 OFFCURVE",
"527 0 OFFCURVE",
"551 0 CURVE SMOOTH",
"575 0 OFFCURVE",
"597 17 OFFCURVE",
"597 44 CURVE SMOOTH",
"597 46 OFFCURVE",
"597 49 OFFCURVE",
"597 51 CURVE",
"579 205 LINE SMOOTH",
"569 289 OFFCURVE",
"531 344 OFFCURVE",
"449 361 CURVE",
"449 363 LINE",
"550 382 OFFCURVE",
"597 445 OFFCURVE",
"597 522 CURVE SMOOTH",
"597 668 OFFCURVE",
"471 698 OFFCURVE",
"348 698 CURVE SMOOTH",
"136 698 LINE SMOOTH",
"108 698 OFFCURVE",
"86 676 OFFCURVE",
"86 650 CURVE SMOOTH",
"86 47 LINE SMOOTH",
"86 16 OFFCURVE",
"111 0 OFFCURVE",
"135 0 CURVE SMOOTH",
"160 0 OFFCURVE",
"185 16 OFFCURVE",
"185 47 CURVE SMOOTH"
);
},
{
closed = 1;
nodes = (
"185 395 LINE",
"185 620 LINE",
"340 620 LINE SMOOTH",
"410 620 OFFCURVE",
"498 614 OFFCURVE",
"498 513 CURVE SMOOTH",
"498 411 OFFCURVE",
"413 395 OFFCURVE",
"327 395 CURVE SMOOTH"
);
}
);
width = 667;
},
{
anchors = (
{
name = bottom;
position = "{372, 0}";
},
{
name = top;
position = "{359, 702}";
}
);
layerId = "E1B555A7-F4E1-459C-9C1A-AE952106EEF9";
paths = (
{
closed = 1;
nodes = (
"253 289 LINE",
"354 289 LINE SMOOTH",
"432 289 OFFCURVE",
"460 256 OFFCURVE",
"467 184 CURVE SMOOTH",
"474 120 LINE SMOOTH",
"481 36 OFFCURVE",
"509 0 OFFCURVE",
"568 0 CURVE SMOOTH",
"626 0 OFFCURVE",
"652 31 OFFCURVE",
"652 101 CURVE SMOOTH",
"652 113 OFFCURVE",
"651 127 OFFCURVE",
"650 143 CURVE",
"641 208 LINE SMOOTH",
"628 314 OFFCURVE",
"601 352 OFFCURVE",
"498 364 CURVE",
"498 366 LINE",
"613 386 OFFCURVE",
"655 451 OFFCURVE",
"655 533 CURVE SMOOTH",
"655 682 OFFCURVE",
"524 711 OFFCURVE",
"380 711 CURVE SMOOTH",
"184 711 LINE SMOOTH",
"125 711 OFFCURVE",
"73 681 OFFCURVE",
"73 616 CURVE SMOOTH",
"73 102 LINE SMOOTH",
"73 36 OFFCURVE",
"113 0 OFFCURVE",
"163 0 CURVE SMOOTH",
"213 0 OFFCURVE",
"253 33 OFFCURVE",
"253 102 CURVE SMOOTH"
);
},
{
closed = 1;
nodes = (
"250 405 LINE",
"250 600 LINE",
"326 600 LINE SMOOTH",
"403 600 OFFCURVE",
"478 597 OFFCURVE",
"478 501 CURVE SMOOTH",
"478 418 OFFCURVE",
"400 405 OFFCURVE",
"330 405 CURVE SMOOTH"
);
}
);
width = 707;
}
);
unicode = 0052;
userData = {
anchors = (
);
b = {
};
com.typemytype.robofont.guides = (
);
com.typemytype.robofont.layerData = {
b = {
anchors = (
);
components = (
);
contours = (
{
points = (
{
segmentType = curve;
smooth = 1;
x = 267;
y = 0;
},
{
smooth = 0;
x = 311;
y = 0;
},
{
smooth = 0;
x = 356;
y = 27;
},
{
segmentType = curve;
smooth = 1;
x = 356;
y = 84;
},
{
segmentType = line;
smooth = 0;
x = 356;
y = 628;
},
{
segmentType = line;
smooth = 1;
x = 669;
y = 628;
},
{
smooth = 0;
x = 962;
y = 628;
},
{
smooth = 0;
x = 1182;
y = 722;
},
{
segmentType = curve;
smooth = 1;
x = 1182;
y = 1026;
},
{
smooth = 0;
x = 1182;
y = 1324;
},
{
smooth = 0;
x = 993;
y = 1426;
},
{
segmentType = curve;
smooth = 1;
x = 684;
y = 1426;
},
{
segmentType = line;
smooth = 1;
x = 268;
y = 1426;
},
{
smooth = 0;
x = 217;
y = 1426;
},
{
smooth = 0;
x = 178;
y = 1387;
},
{
segmentType = curve;
smooth = 1;
x = 178;
y = 1339;
},
{
segmentType = line;
smooth = 1;
x = 178;
y = 84;
},
{
smooth = 0;
x = 178;
y = 28;
},
{
smooth = 0;
x = 222;
y = 0;
}
);
},
{
points = (
{
segmentType = line;
smooth = 0;
x = 356;
y = 764;
},
{
segmentType = line;
smooth = 0;
x = 356;
y = 1285;
},
{
segmentType = line;
smooth = 1;
x = 684;
y = 1285;
},
{
smooth = 0;
x = 914;
y = 1285;
},
{
smooth = 0;
x = 1008;
y = 1210;
},
{
segmentType = curve;
smooth = 1;
x = 1008;
y = 1026;
},
{
smooth = 0;
x = 1008;
y = 838;
},
{
smooth = 0;
x = 901;
y = 764;
},
{
segmentType = curve;
smooth = 1;
x = 670;
y = 764;
}
);
}
);
lib = {
};
name = R;
unicodes = (
);
width = 1363;
};
};
components = (
);
contours = (
);
lib = {
};
name = R;
unicodes = (
);
width = 1408;
};
},
{
glyphname = S;
lastChange = "2016-08-29 15:56:25 +0000";
layers = (
{
anchors = (
{
name = bottom;
position = "{306, 7}";
},
{
name = top;
position = "{310, 702}";
}
);
layerId = "9E718F8A-2CEA-4931-B05D-987794BD97DA";
paths = (
{
closed = 1;
nodes = (
"268 393 LINE SMOOTH",
"181 421 OFFCURVE",
"135 450 OFFCURVE",
"135 517 CURVE SMOOTH",
"135 584 OFFCURVE",
"197 641 OFFCURVE",
"310 641 CURVE SMOOTH",
"397 641 OFFCURVE",
"465 596 OFFCURVE",
"483 580 CURVE",
"488 575 OFFCURVE",
"495 573 OFFCURVE",
"501 573 CURVE SMOOTH",
"514 573 OFFCURVE",
"526 582 OFFCURVE",
"526 594 CURVE SMOOTH",
"526 600 OFFCURVE",
"523 605 OFFCURVE",
"518 611 CURVE",
"485 645 OFFCURVE",
"400 689 OFFCURVE",
"304 689 CURVE SMOOTH",
"178 689 OFFCURVE",
"76 622 OFFCURVE",
"76 516 CURVE SMOOTH",
"76 418 OFFCURVE",
"144 378 OFFCURVE",
"229 349 CURVE SMOOTH",
"344 310 LINE SMOOTH",
"441 278 OFFCURVE",
"486 254 OFFCURVE",
"486 167 CURVE SMOOTH",
"486 82 OFFCURVE",
"406 38 OFFCURVE",
"309 38 CURVE SMOOTH",
"226 38 OFFCURVE",
"161 73 OFFCURVE",
"124 107 CURVE",
"121 110 OFFCURVE",
"116 112 OFFCURVE",
"111 112 CURVE SMOOTH",
"97 112 OFFCURVE",
"78 100 OFFCURVE",
"78 87 CURVE SMOOTH",
"78 84 OFFCURVE",
"80 81 OFFCURVE",
"83 78 CURVE SMOOTH",
"134 25 OFFCURVE",
"208 -11 OFFCURVE",
"300 -11 CURVE SMOOTH",
"447 -11 OFFCURVE",
"544 53 OFFCURVE",
"544 180 CURVE SMOOTH",
"544 285 OFFCURVE",
"475 324 OFFCURVE",
"384 354 CURVE SMOOTH"
);
}
);
width = 609;
},
{
anchors = (
{
name = bottom;
position = "{313, 3}";
},
{
name = top;
position = "{318, 702}";
}
);
layerId = "334510DF-EE69-4F45-9EE4-32E3392006F4";
paths = (
{
closed = 1;
nodes = (
"258 424 LINE SMOOTH",
"195 445 OFFCURVE",
"163 472 OFFCURVE",
"163 524 CURVE SMOOTH",
"163 594 OFFCURVE",
"230 629 OFFCURVE",
"324 629 CURVE SMOOTH",
"402 629 OFFCURVE",
"467 595 OFFCURVE",
"496 577 CURVE SMOOTH",
"503 572 OFFCURVE",
"510 570 OFFCURVE",
"517 570 CURVE SMOOTH",
"538 570 OFFCURVE",
"555 590 OFFCURVE",
"555 609 CURVE SMOOTH",
"555 618 OFFCURVE",
"552 627 OFFCURVE",
"544 634 CURVE SMOOTH",
"504 669 OFFCURVE",
"415 708 OFFCURVE",
"316 708 CURVE SMOOTH",
"177 708 OFFCURVE",
"68 638 OFFCURVE",
"68 521 CURVE SMOOTH",
"68 423 OFFCURVE",
"125 377 OFFCURVE",
"222 345 CURVE SMOOTH",
"362 298 LINE SMOOTH",
"439 272 OFFCURVE",
"477 249 OFFCURVE",
"477 179 CURVE SMOOTH",
"477 104 OFFCURVE",
"405 68 OFFCURVE",
"315 68 CURVE SMOOTH",
"229 68 OFFCURVE",
"162 102 OFFCURVE",
"123 133 CURVE SMOOTH",
"119 136 OFFCURVE",
"115 137 OFFCURVE",
"110 137 CURVE SMOOTH",
"90 137 OFFCURVE",
"65 108 OFFCURVE",
"65 88 CURVE SMOOTH",
"65 82 OFFCURVE",
"67 77 OFFCURVE",
"71 73 CURVE SMOOTH",
"120 28 OFFCURVE",
"197 -11 OFFCURVE",
"311 -11 CURVE SMOOTH",
"470 -11 OFFCURVE",
"573 62 OFFCURVE",
"573 191 CURVE SMOOTH",
"573 300 OFFCURVE",
"504 345 OFFCURVE",
"399 379 CURVE SMOOTH"
);
}
);
width = 628;
},
{
anchors = (
{
name = bottom;
position = "{328, 0}";
},
{
name = top;
position = "{329, 702}";
}
);
layerId = "E1B555A7-F4E1-459C-9C1A-AE952106EEF9";
paths = (
{
closed = 1;
nodes = (
"316 437 LINE",
"259 456 OFFCURVE",
"213 477 OFFCURVE",
"213 522 CURVE SMOOTH",
"213 574 OFFCURVE",
"277 595 OFFCURVE",
"340 595 CURVE SMOOTH",
"407 595 OFFCURVE",
"448 585 OFFCURVE",
"508 551 CURVE SMOOTH",
"515 548 OFFCURVE",
"521 546 OFFCURVE",
"527 546 CURVE SMOOTH",
"558 546 OFFCURVE",
"585 580 OFFCURVE",
"585 614 CURVE SMOOTH",
"585 630 OFFCURVE",
"579 647 OFFCURVE",
"565 661 CURVE",
"515 708 OFFCURVE",
"407 726 OFFCURVE",
"333 726 CURVE SMOOTH",
"154 726 OFFCURVE",
"42 640 OFFCURVE",
"42 509 CURVE SMOOTH",
"42 410 OFFCURVE",
"91 364 OFFCURVE",
"209 320 CURVE",
"371 266 LINE SMOOTH",
"413 252 OFFCURVE",
"446 231 OFFCURVE",
"446 190 CURVE SMOOTH",
"446 135 OFFCURVE",
"390 113 OFFCURVE",
"323 113 CURVE SMOOTH",
"262 113 OFFCURVE",
"205 128 OFFCURVE",
"159 148 CURVE",
"147 153 OFFCURVE",
"137 156 OFFCURVE",
"127 156 CURVE SMOOTH",
"89 156 OFFCURVE",
"63 120 OFFCURVE",
"63 85 CURVE SMOOTH",
"63 65 OFFCURVE",
"71 46 OFFCURVE",
"90 34 CURVE SMOOTH",
"147 -1 OFFCURVE",
"230 -19 OFFCURVE",
"328 -19 CURVE SMOOTH",
"507 -19 OFFCURVE",
"620 68 OFFCURVE",
"620 206 CURVE SMOOTH",
"620 333 OFFCURVE",
"529 380 OFFCURVE",
"392 422 CURVE"
);
}
);
width = 651;
}
);
unicode = 0053;
userData = {
anchors = (
);
b = {
};
com.typemytype.robofont.layerData = {
b = {
anchors = (
);
components = (
);
contours = (
);
lib = {
};
name = S;
unicodes = (
);
width = 1274;
};
};
components = (
);
contours = (
);
lib = {
};
name = S;
unicodes = (
);
width = 1317;
};
},
{
glyphname = T;
lastChange = "2016-08-29 15:56:25 +0000";
layers = (
{
anchors = (
{
name = bottom;
position = "{279, 7}";
},
{
name = center;
position = "{277, 347}";
},
{
name = mid;
position = "{282, 373}";
},
{
name = top;
position = "{286, 702}";
}
);
layerId = "9E718F8A-2CEA-4931-B05D-987794BD97DA";
paths = (
{
closed = 1;
nodes = (
"249 645 LINE",
"249 29 LINE SMOOTH",
"249 10 OFFCURVE",
"263 0 OFFCURVE",
"279 0 CURVE SMOOTH",
"293 0 OFFCURVE",
"310 10 OFFCURVE",
"310 29 CURVE SMOOTH",
"310 645 LINE",
"511 645 LINE SMOOTH",
"529 645 OFFCURVE",
"540 655 OFFCURVE",
"540 668 CURVE SMOOTH",
"540 682 OFFCURVE",
"531 693 OFFCURVE",
"511 693 CURVE SMOOTH",
"42 693 LINE SMOOTH",
"23 693 OFFCURVE",
"14 682 OFFCURVE",
"14 668 CURVE SMOOTH",
"14 655 OFFCURVE",
"23 645 OFFCURVE",
"42 645 CURVE SMOOTH"
);
}
);
width = 553;
},
{
anchors = (
{
name = bottom;
position = "{287, 3}";
},
{
name = center;
position = "{286, 349}";
},
{
name = mid;
position = "{289, 355}";
},
{
name = top;
position = "{293, 702}";
}
);
layerId = "334510DF-EE69-4F45-9EE4-32E3392006F4";
paths = (
{
closed = 1;
nodes = (
"237 619 LINE",
"237 47 LINE SMOOTH",
"237 16 OFFCURVE",
"262 0 OFFCURVE",
"287 0 CURVE SMOOTH",
"311 0 OFFCURVE",
"336 16 OFFCURVE",
"336 47 CURVE SMOOTH",
"336 619 LINE",
"518 619 LINE SMOOTH",
"544 619 OFFCURVE",
"558 639 OFFCURVE",
"558 659 CURVE SMOOTH",
"558 678 OFFCURVE",
"545 698 OFFCURVE",
"518 698 CURVE SMOOTH",
"53 698 LINE SMOOTH",
"26 698 OFFCURVE",
"13 678 OFFCURVE",
"13 659 CURVE SMOOTH",
"13 639 OFFCURVE",
"26 619 OFFCURVE",
"53 619 CURVE SMOOTH"
);
}
);
width = 571;
},
{
anchors = (
{
name = bottom;
position = "{297, 0}";
},
{
name = center;
position = "{298, 355}";
},
{
name = mid;
position = "{301, 360}";
},
{
name = top;
position = "{305, 710}";
}
);
layerId = "E1B555A7-F4E1-459C-9C1A-AE952106EEF9";
paths = (
{
closed = 1;
nodes = (
"209 576 LINE",
"209 102 LINE SMOOTH",
"209 46 OFFCURVE",
"249 0 OFFCURVE",
"299 0 CURVE SMOOTH",
"349 0 OFFCURVE",
"389 46 OFFCURVE",
"389 102 CURVE SMOOTH",
"389 576 LINE",
"521 576 LINE SMOOTH",
"558 576 OFFCURVE",
"590 606 OFFCURVE",
"590 643 CURVE SMOOTH",
"590 681 OFFCURVE",
"558 711 OFFCURVE",
"521 711 CURVE SMOOTH",
"75 711 LINE SMOOTH",
"37 711 OFFCURVE",
"5 681 OFFCURVE",
"5 644 CURVE SMOOTH",
"5 606 OFFCURVE",
"37 576 OFFCURVE",
"75 576 CURVE SMOOTH"
);
}
);
width = 595;
}
);
unicode = 0054;
userData = {
anchors = (
);
b = {
};
com.typemytype.robofont.layerData = {
b = {
anchors = (
);
components = (
);
contours = (
{
points = (
{
segmentType = curve;
smooth = 1;
x = 581;
y = 0;
},
{
segmentType = line;
smooth = 1;
x = 1350;
y = 0;
},
{
smooth = 0;
x = 1399;
y = 0;
},
{
smooth = 0;
x = 1423;
y = 34;
},
{
segmentType = curve;
smooth = 1;
x = 1423;
y = 71;
},
{
smooth = 0;
x = 1423;
y = 107;
},
{
smooth = 0;
x = 1399;
y = 141;
},
{
segmentType = curve;
smooth = 1;
x = 1350;
y = 141;
},
{
segmentType = line;
smooth = 0;
x = 671;
y = 141;
},
{
segmentType = line;
smooth = 0;
x = 671;
y = 665;
},
{
segmentType = line;
smooth = 1;
x = 1290;
y = 665;
},
{
smooth = 0;
x = 1339;
y = 665;
},
{
smooth = 0;
x = 1364;
y = 698;
},
{
segmentType = curve;
smooth = 1;
x = 1364;
y = 734;
},
{
smooth = 0;
x = 1364;
y = 770;
},
{
smooth = 0;
x = 1341;
y = 803;
},
{
segmentType = curve;
smooth = 1;
x = 1290;
y = 803;
},
{
segmentType = line;
smooth = 0;
x = 671;
y = 803;
},
{
segmentType = line;
smooth = 0;
x = 671;
y = 1285;
},
{
segmentType = line;
smooth = 1;
x = 1322;
y = 1285;
},
{
smooth = 0;
x = 1371;
y = 1285;
},
{
smooth = 0;
x = 1395;
y = 1319;
},
{
segmentType = curve;
smooth = 1;
x = 1395;
y = 1356;
},
{
smooth = 0;
x = 1395;
y = 1392;
},
{
smooth = 0;
x = 1371;
y = 1426;
},
{
segmentType = curve;
smooth = 1;
x = 1322;
y = 1426;
},
{
segmentType = line;
smooth = 1;
x = 576;
y = 1426;
},
{
smooth = 0;
x = 528;
y = 1426;
},
{
smooth = 0;
x = 493;
y = 1383;
},
{
segmentType = curve;
smooth = 1;
x = 493;
y = 1340;
},
{
segmentType = line;
smooth = 1;
x = 493;
y = 86;
},
{
smooth = 0;
x = 493;
y = 41;
},
{
smooth = 0;
x = 537;
y = 0;
}
);
}
);
lib = {
};
name = T;
unicodes = (
);
width = 1158;
};
};
components = (
);
contours = (
);
lib = {
};
name = T;
unicodes = (
);
width = 1199;
};
},
{
glyphname = U;
lastChange = "2016-08-29 15:56:25 +0000";
layers = (
{
anchors = (
{
name = bottom;
position = "{360, 0}";
},
{
name = ogonek;
position = "{407, 4}";
},
{
name = top;
position = "{363, 702}";
},
{
name = topright;
position = "{711, 693}";
}
);
layerId = "9E718F8A-2CEA-4931-B05D-987794BD97DA";
paths = (
{
closed = 1;
nodes = (
"99 241 LINE SMOOTH",
"99 70 OFFCURVE",
"230 -11 OFFCURVE",
"360 -11 CURVE SMOOTH",
"491 -11 OFFCURVE",
"623 70 OFFCURVE",
"623 241 CURVE SMOOTH",
"623 662 LINE SMOOTH",
"623 681 OFFCURVE",
"607 690 OFFCURVE",
"593 690 CURVE SMOOTH",
"577 690 OFFCURVE",
"562 680 OFFCURVE",
"562 662 CURVE SMOOTH",
"562 242 LINE SMOOTH",
"562 106 OFFCURVE",
"461 38 OFFCURVE",
"360 38 CURVE SMOOTH",
"260 38 OFFCURVE",
"160 106 OFFCURVE",
"160 242 CURVE SMOOTH",
"160 662 LINE SMOOTH",
"160 681 OFFCURVE",
"145 690 OFFCURVE",
"130 690 CURVE SMOOTH",
"114 690 OFFCURVE",
"99 680 OFFCURVE",
"99 662 CURVE SMOOTH"
);
}
);
width = 721;
},
{
anchors = (
{
name = bottom;
position = "{365, 0}";
},
{
name = ogonek;
position = "{424, 4}";
},
{
name = top;
position = "{372, 702}";
},
{
name = topright;
position = "{721, 698}";
}
);
layerId = "334510DF-EE69-4F45-9EE4-32E3392006F4";
paths = (
{
closed = 1;
nodes = (
"89 243 LINE SMOOTH",
"89 71 OFFCURVE",
"220 -11 OFFCURVE",
"365 -11 CURVE SMOOTH",
"511 -11 OFFCURVE",
"642 71 OFFCURVE",
"642 243 CURVE SMOOTH",
"642 651 LINE SMOOTH",
"642 683 OFFCURVE",
"617 699 OFFCURVE",
"593 699 CURVE SMOOTH",
"567 699 OFFCURVE",
"543 683 OFFCURVE",
"543 651 CURVE SMOOTH",
"543 245 LINE SMOOTH",
"543 124 OFFCURVE",
"454 68 OFFCURVE",
"365 68 CURVE SMOOTH",
"277 68 OFFCURVE",
"188 124 OFFCURVE",
"188 245 CURVE SMOOTH",
"188 651 LINE SMOOTH",
"188 683 OFFCURVE",
"164 699 OFFCURVE",
"139 699 CURVE SMOOTH",
"114 699 OFFCURVE",
"89 683 OFFCURVE",
"89 651 CURVE SMOOTH"
);
}
);
width = 730;
},
{
anchors = (
{
name = bottom;
position = "{373, 0}";
},
{
name = ogonek;
position = "{459, 4}";
},
{
name = top;
position = "{376, 702}";
},
{
name = topright;
position = "{736, 711}";
}
);
layerId = "E1B555A7-F4E1-459C-9C1A-AE952106EEF9";
paths = (
{
closed = 1;
nodes = (
"68 239 LINE SMOOTH",
"68 65 OFFCURVE",
"197 -19 OFFCURVE",
"373 -19 CURVE SMOOTH",
"550 -19 OFFCURVE",
"678 68 OFFCURVE",
"678 239 CURVE SMOOTH",
"678 608 LINE SMOOTH",
"678 664 OFFCURVE",
"638 710 OFFCURVE",
"588 710 CURVE SMOOTH",
"538 710 OFFCURVE",
"498 664 OFFCURVE",
"498 608 CURVE SMOOTH",
"498 242 LINE SMOOTH",
"498 152 OFFCURVE",
"435 113 OFFCURVE",
"373 113 CURVE SMOOTH",
"311 113 OFFCURVE",
"248 152 OFFCURVE",
"248 242 CURVE SMOOTH",
"248 608 LINE SMOOTH",
"248 664 OFFCURVE",
"208 710 OFFCURVE",
"158 710 CURVE SMOOTH",
"107 710 OFFCURVE",
"68 664 OFFCURVE",
"68 608 CURVE SMOOTH"
);
}
);
width = 746;
}
);
unicode = 0055;
userData = {
anchors = (
);
b = {
};
com.typemytype.robofont.layerData = {
b = {
anchors = (
);
components = (
);
contours = (
);
lib = {
};
name = U;
unicodes = (
);
width = 1490;
};
};
components = (
);
contours = (
);
lib = {
};
name = U;
unicodes = (
);
width = 1513;
};
},
{
glyphname = V;
lastChange = "2016-08-29 15:56:25 +0000";
layers = (
{
anchors = (
{
name = bottom;
position = "{304, 0}";
},
{
name = top;
position = "{304, 693}";
}
);
layerId = "9E718F8A-2CEA-4931-B05D-987794BD97DA";
paths = (
{
closed = 1;
nodes = (
"307 73 LINE",
"71 671 LINE SMOOTH",
"66 684 OFFCURVE",
"56 689 OFFCURVE",
"46 689 CURVE SMOOTH",
"30 689 OFFCURVE",
"15 677 OFFCURVE",
"15 661 CURVE SMOOTH",
"15 657 OFFCURVE",
"16 654 OFFCURVE",
"17 650 CURVE SMOOTH",
"259 41 LINE",
"269 21 OFFCURVE",
"290 1 OFFCURVE",
"307 1 CURVE SMOOTH",
"325 1 OFFCURVE",
"346 21 OFFCURVE",
"355 41 CURVE",
"597 650 LINE SMOOTH",
"599 654 OFFCURVE",
"600 658 OFFCURVE",
"600 661 CURVE SMOOTH",
"600 677 OFFCURVE",
"584 689 OFFCURVE",
"569 689 CURVE SMOOTH",
"559 689 OFFCURVE",
"549 684 OFFCURVE",
"543 671 CURVE SMOOTH"
);
}
);
width = 607;
},
{
anchors = (
{
name = bottom;
position = "{320, 0}";
},
{
name = top;
position = "{320, 698}";
}
);
layerId = "334510DF-EE69-4F45-9EE4-32E3392006F4";
paths = (
{
closed = 1;
nodes = (
"323 104 LINE",
"120 668 LINE SMOOTH",
"112 690 OFFCURVE",
"94 699 OFFCURVE",
"76 699 CURVE SMOOTH",
"51 699 OFFCURVE",
"25 682 OFFCURVE",
"25 656 CURVE SMOOTH",
"25 651 OFFCURVE",
"26 646 OFFCURVE",
"28 640 CURVE SMOOTH",
"240 65 LINE SMOOTH",
"258 16 OFFCURVE",
"286 -4 OFFCURVE",
"323 -4 CURVE SMOOTH",
"360 -4 OFFCURVE",
"388 16 OFFCURVE",
"406 65 CURVE SMOOTH",
"617 640 LINE SMOOTH",
"619 646 OFFCURVE",
"620 651 OFFCURVE",
"620 656 CURVE SMOOTH",
"620 682 OFFCURVE",
"595 699 OFFCURVE",
"570 699 CURVE SMOOTH",
"552 699 OFFCURVE",
"534 690 OFFCURVE",
"526 668 CURVE SMOOTH"
);
}
);
width = 640;
},
{
anchors = (
{
name = bottom;
position = "{354, 0}";
},
{
name = top;
position = "{354, 711}";
}
);
layerId = "E1B555A7-F4E1-459C-9C1A-AE952106EEF9";
paths = (
{
closed = 1;
nodes = (
"350 191 LINE",
"201 621 LINE",
"182 684 OFFCURVE",
"142 710 OFFCURVE",
"105 710 CURVE SMOOTH",
"66 710 OFFCURVE",
"30 678 OFFCURVE",
"30 626 CURVE SMOOTH",
"30 613 OFFCURVE",
"33 598 OFFCURVE",
"38 582 CURVE",
"184 206 LINE",
"232 56 OFFCURVE",
"252 1 OFFCURVE",
"350 1 CURVE SMOOTH",
"448 1 OFFCURVE",
"468 56 OFFCURVE",
"516 206 CURVE",
"662 582 LINE",
"667 598 OFFCURVE",
"669 613 OFFCURVE",
"669 626 CURVE SMOOTH",
"669 678 OFFCURVE",
"634 710 OFFCURVE",
"594 710 CURVE SMOOTH",
"558 710 OFFCURVE",
"518 684 OFFCURVE",
"499 621 CURVE"
);
}
);
width = 708;
}
);
unicode = 0056;
userData = {
anchors = (
);
b = {
};
com.typemytype.robofont.guides = (
);
com.typemytype.robofont.layerData = {
b = {
anchors = (
);
components = (
);
contours = (
{
points = (
{
segmentType = curve;
smooth = 1;
x = 644;
y = "-5";
},
{
smooth = 0;
x = 712;
y = "-5";
},
{
smooth = 0;
x = 764;
y = 38;
},
{
segmentType = curve;
smooth = 1;
x = 793;
y = 117;
},
{
segmentType = line;
smooth = 1;
x = 1243;
y = 1324;
},
{
smooth = 0;
x = 1247;
y = 1335;
},
{
smooth = 0;
x = 1248;
y = 1342;
},
{
segmentType = curve;
smooth = 1;
x = 1248;
y = 1351;
},
{
smooth = 0;
x = 1248;
y = 1395;
},
{
smooth = 0;
x = 1203;
y = 1427;
},
{
segmentType = curve;
smooth = 1;
x = 1160;
y = 1427;
},
{
smooth = 0;
x = 1125;
y = 1427;
},
{
smooth = 0;
x = 1090;
y = 1408;
},
{
segmentType = curve;
smooth = 1;
x = 1076;
y = 1369;
},
{
segmentType = line;
smooth = 0;
x = 651;
y = 192;
},
{
segmentType = line;
smooth = 0;
x = 650;
y = 190;
},
{
segmentType = line;
smooth = 1;
x = 214;
y = 1370;
},
{
smooth = 0;
x = 200;
y = 1407;
},
{
smooth = 0;
x = 170;
y = 1427;
},
{
segmentType = curve;
smooth = 1;
x = 135;
y = 1427;
},
{
smooth = 0;
x = 90;
y = 1427;
},
{
smooth = 0;
x = 43;
y = 1392;
},
{
segmentType = curve;
smooth = 1;
x = 43;
y = 1344;
},
{
smooth = 0;
x = 43;
y = 1336;
},
{
smooth = 0;
x = 44;
y = 1326;
},
{
segmentType = curve;
smooth = 0;
x = 48;
y = 1318;
},
{
segmentType = line;
smooth = 1;
x = 501;
y = 117;
},
{
smooth = 0;
x = 532;
y = 35;
},
{
smooth = 0;
x = 581;
y = "-5";
}
);
}
);
lib = {
};
name = V;
unicodes = (
);
width = 1289;
};
};
components = (
);
contours = (
);
lib = {
};
name = V;
unicodes = (
);
width = 1365;
};
},
{
glyphname = W;
lastChange = "2016-08-29 15:56:25 +0000";
layers = (
{
anchors = (
{
name = bottom;
position = "{527, 0}";
},
{
name = top;
position = "{523, 702}";
}
);
layerId = "9E718F8A-2CEA-4931-B05D-987794BD97DA";
paths = (
{
closed = 1;
nodes = (
"782 56 LINE",
"578 627 LINE SMOOTH",
"557 687 OFFCURVE",
"545 692 OFFCURVE",
"525 692 CURVE SMOOTH",
"504 692 OFFCURVE",
"491 681 OFFCURVE",
"472 627 CURVE SMOOTH",
"268 56 LINE",
"104 673 LINE SMOOTH",
"100 689 OFFCURVE",
"87 697 OFFCURVE",
"74 697 CURVE SMOOTH",
"60 697 OFFCURVE",
"46 687 OFFCURVE",
"46 668 CURVE SMOOTH",
"46 664 OFFCURVE",
"47 659 OFFCURVE",
"48 654 CURVE SMOOTH",
"219 33 LINE SMOOTH",
"227 7 OFFCURVE",
"244 -6 OFFCURVE",
"263 -6 CURVE SMOOTH",
"282 -6 OFFCURVE",
"303 8 OFFCURVE",
"313 34 CURVE SMOOTH",
"525 623 LINE",
"737 34 LINE SMOOTH",
"748 6 OFFCURVE",
"766 -5 OFFCURVE",
"785 -5 CURVE SMOOTH",
"805 -5 OFFCURVE",
"824 9 OFFCURVE",
"831 33 CURVE SMOOTH",
"1002 654 LINE SMOOTH",
"1003 659 OFFCURVE",
"1004 664 OFFCURVE",
"1004 667 CURVE SMOOTH",
"1004 687 OFFCURVE",
"990 697 OFFCURVE",
"976 697 CURVE SMOOTH",
"963 697 OFFCURVE",
"950 689 OFFCURVE",
"946 673 CURVE SMOOTH"
);
}
);
width = 1055;
},
{
anchors = (
{
name = bottom;
position = "{515, 0}";
},
{
name = top;
position = "{513, 702}";
}
);
layerId = "334510DF-EE69-4F45-9EE4-32E3392006F4";
paths = (
{
closed = 1;
nodes = (
"757 96 LINE",
"582 638 LINE SMOOTH",
"564 690 OFFCURVE",
"543 698 OFFCURVE",
"513 698 CURVE SMOOTH",
"483 698 OFFCURVE",
"461 687 OFFCURVE",
"445 638 CURVE SMOOTH",
"270 96 LINE",
"124 666 LINE SMOOTH",
"118 688 OFFCURVE",
"98 699 OFFCURVE",
"78 699 CURVE SMOOTH",
"54 699 OFFCURVE",
"30 683 OFFCURVE",
"30 655 CURVE SMOOTH",
"30 650 OFFCURVE",
"30 646 OFFCURVE",
"32 640 CURVE SMOOTH",
"191 54 LINE SMOOTH",
"202 16 OFFCURVE",
"232 -2 OFFCURVE",
"263 -2 CURVE SMOOTH",
"294 -2 OFFCURVE",
"326 17 OFFCURVE",
"338 53 CURVE SMOOTH",
"513 586 LINE",
"688 53 LINE SMOOTH",
"701 16 OFFCURVE",
"732 -2 OFFCURVE",
"763 -2 CURVE SMOOTH",
"794 -2 OFFCURVE",
"826 17 OFFCURVE",
"835 54 CURVE SMOOTH",
"995 640 LINE SMOOTH",
"997 646 OFFCURVE",
"997 650 OFFCURVE",
"997 655 CURVE SMOOTH",
"997 683 OFFCURVE",
"973 699 OFFCURVE",
"949 699 CURVE SMOOTH",
"929 699 OFFCURVE",
"909 688 OFFCURVE",
"903 666 CURVE SMOOTH"
);
}
);
width = 1030;
},
{
anchors = (
{
name = bottom;
position = "{535, 0}";
},
{
name = top;
position = "{534, 702}";
}
);
layerId = "E1B555A7-F4E1-459C-9C1A-AE952106EEF9";
paths = (
{
closed = 1;
nodes = (
"781 183 LINE",
"666 560 LINE",
"643 648 OFFCURVE",
"615 710 OFFCURVE",
"535 710 CURVE SMOOTH",
"454 710 OFFCURVE",
"426 648 OFFCURVE",
"403 560 CURVE",
"288 183 LINE",
"189 635 LINE SMOOTH",
"177 693 OFFCURVE",
"144 717 OFFCURVE",
"110 717 CURVE SMOOTH",
"70 717 OFFCURVE",
"30 683 OFFCURVE",
"30 632 CURVE SMOOTH",
"30 625 OFFCURVE",
"31 618 OFFCURVE",
"32 610 CURVE",
"157 79 LINE SMOOTH",
"170 24 OFFCURVE",
"221 -8 OFFCURVE",
"275 -8 CURVE SMOOTH",
"328 -8 OFFCURVE",
"383 24 OFFCURVE",
"403 100 CURVE SMOOTH",
"535 545 LINE",
"666 100 LINE SMOOTH",
"686 24 OFFCURVE",
"741 -8 OFFCURVE",
"794 -8 CURVE SMOOTH",
"848 -8 OFFCURVE",
"899 24 OFFCURVE",
"912 79 CURVE SMOOTH",
"1037 610 LINE",
"1038 618 OFFCURVE",
"1039 625 OFFCURVE",
"1039 632 CURVE SMOOTH",
"1039 683 OFFCURVE",
"999 718 OFFCURVE",
"959 718 CURVE SMOOTH",
"926 718 OFFCURVE",
"892 693 OFFCURVE",
"880 635 CURVE SMOOTH"
);
}
);
width = 1069;
}
);
unicode = 0057;
userData = {
anchors = (
);
b = {
};
com.typemytype.robofont.layerData = {
b = {
anchors = (
);
components = (
);
contours = (
);
lib = {
};
name = W;
unicodes = (
);
width = 2126;
};
};
components = (
);
contours = (
);
lib = {
};
name = W;
unicodes = (
);
width = 2070;
};
},
{
glyphname = X;
lastChange = "2016-08-29 15:56:25 +0000";
layers = (
{
anchors = (
{
name = bottom;
position = "{304, 0}";
},
{
name = top;
position = "{304, 693}";
}
);
layerId = "9E718F8A-2CEA-4931-B05D-987794BD97DA";
paths = (
{
closed = 1;
nodes = (
"307 398 LINE",
"111 674 LINE SMOOTH",
"105 683 OFFCURVE",
"97 687 OFFCURVE",
"88 687 CURVE SMOOTH",
"72 687 OFFCURVE",
"55 671 OFFCURVE",
"55 659 CURVE SMOOTH",
"55 656 OFFCURVE",
"56 654 OFFCURVE",
"58 652 CURVE",
"271 354 LINE",
"45 45 LINE",
"43 41 OFFCURVE",
"42 37 OFFCURVE",
"42 33 CURVE SMOOTH",
"42 19 OFFCURVE",
"54 3 OFFCURVE",
"69 3 CURVE SMOOTH",
"77 3 OFFCURVE",
"84 7 OFFCURVE",
"92 18 CURVE SMOOTH",
"302 310 LINE",
"508 20 LINE",
"514 11 OFFCURVE",
"522 7 OFFCURVE",
"531 7 CURVE SMOOTH",
"546 7 OFFCURVE",
"562 20 OFFCURVE",
"562 34 CURVE SMOOTH",
"562 37 OFFCURVE",
"561 41 OFFCURVE",
"559 44 CURVE",
"338 354 LINE",
"551 649 LINE SMOOTH",
"554 654 OFFCURVE",
"556 658 OFFCURVE",
"556 663 CURVE SMOOTH",
"556 676 OFFCURVE",
"542 686 OFFCURVE",
"528 686 CURVE SMOOTH",
"520 686 OFFCURVE",
"511 682 OFFCURVE",
"505 673 CURVE SMOOTH"
);
}
);
width = 608;
},
{
anchors = (
{
name = bottom;
position = "{314, 0}";
},
{
name = top;
position = "{314, 698}";
}
);
layerId = "334510DF-EE69-4F45-9EE4-32E3392006F4";
paths = (
{
closed = 1;
nodes = (
"323 423 LINE",
"137 677 LINE SMOOTH",
"126 691 OFFCURVE",
"113 698 OFFCURVE",
"100 698 CURVE SMOOTH",
"74 698 OFFCURVE",
"49 674 OFFCURVE",
"49 650 CURVE SMOOTH",
"49 643 OFFCURVE",
"51 636 OFFCURVE",
"57 629 CURVE SMOOTH",
"261 351 LINE",
"44 67 LINE SMOOTH",
"37 59 OFFCURVE",
"34 49 OFFCURVE",
"34 41 CURVE SMOOTH",
"34 18 OFFCURVE",
"54 -1 OFFCURVE",
"77 -1 CURVE SMOOTH",
"90 -1 OFFCURVE",
"104 5 OFFCURVE",
"116 21 CURVE SMOOTH",
"311 283 LINE",
"505 19 LINE SMOOTH",
"515 5 OFFCURVE",
"528 0 OFFCURVE",
"542 0 CURVE SMOOTH",
"566 0 OFFCURVE",
"592 20 OFFCURVE",
"592 44 CURVE SMOOTH",
"592 52 OFFCURVE",
"589 61 OFFCURVE",
"583 69 CURVE SMOOTH",
"375 354 LINE",
"584 635 LINE SMOOTH",
"591 644 OFFCURVE",
"593 652 OFFCURVE",
"593 660 CURVE SMOOTH",
"593 681 OFFCURVE",
"575 698 OFFCURVE",
"553 698 CURVE SMOOTH",
"539 698 OFFCURVE",
"524 692 OFFCURVE",
"512 676 CURVE SMOOTH"
);
}
);
width = 628;
},
{
anchors = (
{
name = bottom;
position = "{335, 0}";
},
{
name = top;
position = "{335, 711}";
}
);
layerId = "E1B555A7-F4E1-459C-9C1A-AE952106EEF9";
paths = (
{
closed = 1;
nodes = (
"349 479 LINE",
"205 667 LINE",
"182 700 OFFCURVE",
"154 713 OFFCURVE",
"128 713 CURVE SMOOTH",
"87 713 OFFCURVE",
"51 680 OFFCURVE",
"51 634 CURVE SMOOTH",
"51 615 OFFCURVE",
"58 594 OFFCURVE",
"72 572 CURVE",
"238 357 LINE",
"63 151 LINE",
"44 125 OFFCURVE",
"36 101 OFFCURVE",
"36 79 CURVE SMOOTH",
"36 36 OFFCURVE",
"69 5 OFFCURVE",
"107 5 CURVE SMOOTH",
"131 5 OFFCURVE",
"158 18 OFFCURVE",
"179 47 CURVE",
"329 238 LINE",
"479 43 LINE",
"504 7 OFFCURVE",
"533 -7 OFFCURVE",
"559 -7 CURVE SMOOTH",
"601 -7 OFFCURVE",
"637 30 OFFCURVE",
"637 74 CURVE SMOOTH",
"637 91 OFFCURVE",
"631 109 OFFCURVE",
"618 126 CURVE SMOOTH",
"437 363 LINE",
"616 584 LINE SMOOTH",
"627 599 OFFCURVE",
"631 614 OFFCURVE",
"631 629 CURVE SMOOTH",
"631 669 OFFCURVE",
"599 706 OFFCURVE",
"559 706 CURVE SMOOTH",
"535 706 OFFCURVE",
"507 692 OFFCURVE",
"482 655 CURVE"
);
}
);
width = 670;
}
);
unicode = 0058;
userData = {
anchors = (
);
b = {
};
com.typemytype.robofont.layerData = {
b = {
anchors = (
);
components = (
);
contours = (
{
points = (
{
segmentType = curve;
smooth = 1;
x = 151;
y = 0;
},
{
smooth = 0;
x = 176;
y = 0;
},
{
smooth = 0;
x = 201;
y = 12;
},
{
segmentType = curve;
smooth = 1;
x = 222;
y = 41;
},
{
segmentType = line;
smooth = 0;
x = 641;
y = 616;
},
{
segmentType = line;
smooth = 0;
x = 746;
y = 734;
},
{
segmentType = line;
smooth = 1;
x = 1175;
y = 1310;
},
{
smooth = 0;
x = 1186;
y = 1325;
},
{
smooth = 0;
x = 1190;
y = 1338;
},
{
segmentType = curve;
smooth = 1;
x = 1190;
y = 1353;
},
{
smooth = 0;
x = 1190;
y = 1393;
},
{
smooth = 0;
x = 1153;
y = 1426;
},
{
segmentType = curve;
smooth = 1;
x = 1110;
y = 1426;
},
{
smooth = 0;
x = 1083;
y = 1426;
},
{
smooth = 0;
x = 1058;
y = 1414;
},
{
segmentType = curve;
smooth = 1;
x = 1037;
y = 1385;
},
{
segmentType = line;
smooth = 0;
x = 648;
y = 844;
},
{
segmentType = line;
smooth = 0;
x = 542;
y = 732;
},
{
segmentType = line;
smooth = 1;
x = 84;
y = 121;
},
{
smooth = 0;
x = 73;
y = 106;
},
{
smooth = 0;
x = 68;
y = 91;
},
{
segmentType = curve;
smooth = 1;
x = 68;
y = 76;
},
{
smooth = 0;
x = 68;
y = 35;
},
{
smooth = 0;
x = 108;
y = 0;
}
);
},
{
points = (
{
segmentType = curve;
smooth = 1;
x = 1104;
y = 0;
},
{
smooth = 0;
x = 1151;
y = 0;
},
{
smooth = 0;
x = 1200;
y = 40;
},
{
segmentType = curve;
smooth = 1;
x = 1200;
y = 85;
},
{
smooth = 0;
x = 1200;
y = 98;
},
{
smooth = 0;
x = 1195;
y = 113;
},
{
segmentType = curve;
smooth = 0;
x = 1186;
y = 126;
},
{
segmentType = line;
smooth = 0;
x = 272;
y = 1385;
},
{
smooth = 0;
x = 252;
y = 1414;
},
{
smooth = 0;
x = 225;
y = 1426;
},
{
segmentType = curve;
smooth = 1;
x = 197;
y = 1426;
},
{
smooth = 0;
x = 149;
y = 1426;
},
{
smooth = 0;
x = 100;
y = 1388;
},
{
segmentType = curve;
smooth = 1;
x = 100;
y = 1343;
},
{
smooth = 0;
x = 100;
y = 1328;
},
{
smooth = 0;
x = 105;
y = 1315;
},
{
segmentType = curve;
smooth = 0;
x = 114;
y = 1303;
},
{
segmentType = line;
smooth = 0;
x = 1033;
y = 40;
},
{
smooth = 0;
x = 1052;
y = 13;
},
{
smooth = 0;
x = 1076;
y = 0;
}
);
}
);
lib = {
};
name = X;
unicodes = (
);
width = 1274;
};
};
components = (
);
contours = (
);
lib = {
};
name = X;
unicodes = (
);
width = 1322;
};
},
{
glyphname = Y;
lastChange = "2016-08-29 15:56:25 +0000";
layers = (
{
anchors = (
{
name = bottom;
position = "{309, 0}";
},
{
name = top;
position = "{327, 702}";
},
{
name = topleft;
position = "{10, 693}";
}
);
layerId = "9E718F8A-2CEA-4931-B05D-987794BD97DA";
paths = (
{
closed = 1;
nodes = (
"281 300 LINE",
"281 28 LINE SMOOTH",
"281 10 OFFCURVE",
"296 1 OFFCURVE",
"312 1 CURVE SMOOTH",
"327 1 OFFCURVE",
"342 10 OFFCURVE",
"342 29 CURVE SMOOTH",
"342 301 LINE",
"576 648 LINE SMOOTH",
"579 654 OFFCURVE",
"581 659 OFFCURVE",
"581 665 CURVE SMOOTH",
"581 679 OFFCURVE",
"570 691 OFFCURVE",
"557 691 CURVE SMOOTH",
"548 691 OFFCURVE",
"539 686 OFFCURVE",
"531 674 CURVE SMOOTH",
"315 349 LINE",
"94 680 LINE",
"88 688 OFFCURVE",
"80 691 OFFCURVE",
"71 691 CURVE SMOOTH",
"56 691 OFFCURVE",
"40 681 OFFCURVE",
"40 665 CURVE SMOOTH",
"40 660 OFFCURVE",
"42 653 OFFCURVE",
"46 647 CURVE SMOOTH"
);
}
);
width = 617;
},
{
anchors = (
{
name = bottom;
position = "{314, 0}";
},
{
name = top;
position = "{324, 702}";
},
{
name = topleft;
position = "{10, 698}";
}
);
layerId = "334510DF-EE69-4F45-9EE4-32E3392006F4";
paths = (
{
closed = 1;
nodes = (
"264 291 LINE",
"264 48 LINE SMOOTH",
"264 16 OFFCURVE",
"289 0 OFFCURVE",
"314 0 CURVE SMOOTH",
"339 0 OFFCURVE",
"363 16 OFFCURVE",
"363 47 CURVE SMOOTH",
"363 294 LINE",
"585 636 LINE SMOOTH",
"590 645 OFFCURVE",
"592 652 OFFCURVE",
"592 660 CURVE SMOOTH",
"592 681 OFFCURVE",
"572 698 OFFCURVE",
"551 698 CURVE SMOOTH",
"537 698 OFFCURVE",
"523 691 OFFCURVE",
"513 675 CURVE SMOOTH",
"319 369 LINE",
"127 673 LINE SMOOTH",
"117 690 OFFCURVE",
"102 697 OFFCURVE",
"87 697 CURVE SMOOTH",
"62 697 OFFCURVE",
"37 677 OFFCURVE",
"37 652 CURVE SMOOTH",
"37 645 OFFCURVE",
"39 637 OFFCURVE",
"43 630 CURVE SMOOTH"
);
}
);
width = 627;
},
{
anchors = (
{
name = bottom;
position = "{324, 0}";
},
{
name = top;
position = "{332, 702}";
},
{
name = topleft;
position = "{10, 711}";
}
);
layerId = "E1B555A7-F4E1-459C-9C1A-AE952106EEF9";
paths = (
{
closed = 1;
nodes = (
"231 269 LINE",
"231 95 LINE SMOOTH",
"231 31 OFFCURVE",
"277 -1 OFFCURVE",
"322 -1 CURVE SMOOTH",
"367 -1 OFFCURVE",
"413 31 OFFCURVE",
"413 95 CURVE SMOOTH",
"413 271 LINE",
"600 577 LINE SMOOTH",
"610 594 OFFCURVE",
"614 611 OFFCURVE",
"614 626 CURVE SMOOTH",
"614 669 OFFCURVE",
"580 701 OFFCURVE",
"542 701 CURVE SMOOTH",
"516 701 OFFCURVE",
"488 685 OFFCURVE",
"468 647 CURVE",
"331 415 LINE",
"200 642 LINE",
"176 688 OFFCURVE",
"143 708 OFFCURVE",
"112 708 CURVE SMOOTH",
"71 708 OFFCURVE",
"35 673 OFFCURVE",
"35 623 CURVE SMOOTH",
"35 604 OFFCURVE",
"40 584 OFFCURVE",
"52 562 CURVE"
);
}
);
width = 648;
}
);
unicode = 0059;
userData = {
anchors = (
);
b = {
};
com.typemytype.robofont.guides = (
);
com.typemytype.robofont.layerData = {
b = {
anchors = (
);
components = (
);
contours = (
{
points = (
{
segmentType = curve;
smooth = 1;
x = 641;
y = 0;
},
{
smooth = 0;
x = 685;
y = 0;
},
{
smooth = 0;
x = 730;
y = 29;
},
{
segmentType = curve;
smooth = 1;
x = 730;
y = 85;
},
{
segmentType = line;
smooth = 0;
x = 730;
y = 1285;
},
{
segmentType = line;
smooth = 1;
x = 1115;
y = 1285;
},
{
smooth = 0;
x = 1164;
y = 1285;
},
{
smooth = 0;
x = 1190;
y = 1319;
},
{
segmentType = curve;
smooth = 1;
x = 1190;
y = 1355;
},
{
smooth = 0;
x = 1190;
y = 1392;
},
{
smooth = 0;
x = 1166;
y = 1426;
},
{
segmentType = curve;
smooth = 1;
x = 1115;
y = 1426;
},
{
segmentType = line;
smooth = 1;
x = 160;
y = 1426;
},
{
smooth = 0;
x = 111;
y = 1426;
},
{
smooth = 0;
x = 86;
y = 1392;
},
{
segmentType = curve;
smooth = 1;
x = 86;
y = 1355;
},
{
smooth = 0;
x = 86;
y = 1319;
},
{
smooth = 0;
x = 111;
y = 1285;
},
{
segmentType = curve;
smooth = 1;
x = 160;
y = 1285;
},
{
segmentType = line;
smooth = 0;
x = 552;
y = 1285;
},
{
segmentType = line;
smooth = 1;
x = 552;
y = 85;
},
{
smooth = 0;
x = 552;
y = 29;
},
{
smooth = 0;
x = 596;
y = 0;
}
);
}
);
lib = {
};
name = Y;
unicodes = (
);
width = 1278;
};
};
components = (
);
contours = (
);
lib = {
};
name = Y;
unicodes = (
);
width = 1321;
};
},
{
glyphname = Z;
lastChange = "2016-08-29 15:56:25 +0000";
layers = (
{
anchors = (
{
name = bottom;
position = "{280, 0}";
},
{
name = top;
position = "{308, 702}";
}
);
layerId = "9E718F8A-2CEA-4931-B05D-987794BD97DA";
paths = (
{
closed = 1;
nodes = (
"470 645 LINE",
"63 65 LINE",
"58 57 OFFCURVE",
"55 48 OFFCURVE",
"55 39 CURVE SMOOTH",
"55 19 OFFCURVE",
"68 0 OFFCURVE",
"102 0 CURVE SMOOTH",
"498 0 LINE SMOOTH",
"517 0 OFFCURVE",
"526 10 OFFCURVE",
"526 24 CURVE SMOOTH",
"526 38 OFFCURVE",
"517 48 OFFCURVE",
"498 48 CURVE SMOOTH",
"116 48 LINE",
"521 628 LINE SMOOTH",
"529 639 OFFCURVE",
"532 650 OFFCURVE",
"532 659 CURVE SMOOTH",
"532 679 OFFCURVE",
"518 693 OFFCURVE",
"495 693 CURVE SMOOTH",
"85 693 LINE SMOOTH",
"66 693 OFFCURVE",
"57 682 OFFCURVE",
"57 669 CURVE SMOOTH",
"57 654 OFFCURVE",
"67 645 OFFCURVE",
"85 645 CURVE SMOOTH"
);
}
);
width = 560;
},
{
anchors = (
{
name = bottom;
position = "{287, 0}";
},
{
name = top;
position = "{312, 702}";
}
);
layerId = "334510DF-EE69-4F45-9EE4-32E3392006F4";
paths = (
{
closed = 1;
nodes = (
"433 619 LINE",
"57 80 LINE SMOOTH",
"50 69 OFFCURVE",
"46 58 OFFCURVE",
"46 46 CURVE SMOOTH",
"46 22 OFFCURVE",
"63 0 OFFCURVE",
"102 0 CURVE SMOOTH",
"504 0 LINE SMOOTH",
"531 0 OFFCURVE",
"544 20 OFFCURVE",
"544 40 CURVE SMOOTH",
"544 59 OFFCURVE",
"531 79 OFFCURVE",
"504 79 CURVE SMOOTH",
"160 79 LINE",
"536 619 LINE SMOOTH",
"544 631 OFFCURVE",
"548 643 OFFCURVE",
"548 654 CURVE SMOOTH",
"548 679 OFFCURVE",
"530 698 OFFCURVE",
"500 698 CURVE SMOOTH",
"90 698 LINE SMOOTH",
"63 698 OFFCURVE",
"51 678 OFFCURVE",
"51 659 CURVE SMOOTH",
"51 639 OFFCURVE",
"64 619 OFFCURVE",
"90 619 CURVE SMOOTH"
);
}
);
width = 573;
},
{
anchors = (
{
name = bottom;
position = "{301, 0}";
},
{
name = top;
position = "{315, 702}";
}
);
layerId = "E1B555A7-F4E1-459C-9C1A-AE952106EEF9";
paths = (
{
closed = 1;
nodes = (
"362 580 LINE",
"67 144 LINE SMOOTH",
"50 117 OFFCURVE",
"37 84 OFFCURVE",
"37 61 CURVE SMOOTH",
"37 26 OFFCURVE",
"62 0 OFFCURVE",
"109 0 CURVE SMOOTH",
"514 0 LINE SMOOTH",
"549 0 OFFCURVE",
"577 28 OFFCURVE",
"577 65 CURVE SMOOTH",
"577 103 OFFCURVE",
"549 131 OFFCURVE",
"514 131 CURVE SMOOTH",
"250 131 LINE",
"546 569 LINE",
"562 594 OFFCURVE",
"576 625 OFFCURVE",
"576 648 CURVE SMOOTH",
"576 697 OFFCURVE",
"539 711 OFFCURVE",
"494 711 CURVE SMOOTH",
"106 711 LINE SMOOTH",
"72 711 OFFCURVE",
"44 682 OFFCURVE",
"44 645 CURVE SMOOTH",
"44 607 OFFCURVE",
"72 580 OFFCURVE",
"106 580 CURVE SMOOTH"
);
}
);
width = 602;
}
);
unicode = 005A;
userData = {
anchors = (
);
b = {
};
com.typemytype.robofont.layerData = {
b = {
anchors = (
);
components = (
);
contours = (
{
points = (
{
segmentType = curve;
smooth = 1;
x = 266;
y = 0;
},
{
segmentType = line;
smooth = 1;
x = 1035;
y = 0;
},
{
smooth = 0;
x = 1084;
y = 0;
},
{
smooth = 0;
x = 1108;
y = 34;
},
{
segmentType = curve;
smooth = 1;
x = 1108;
y = 71;
},
{
smooth = 0;
x = 1108;
y = 107;
},
{
smooth = 0;
x = 1084;
y = 141;
},
{
segmentType = curve;
smooth = 1;
x = 1035;
y = 141;
},
{
segmentType = line;
smooth = 0;
x = 356;
y = 141;
},
{
segmentType = line;
smooth = 0;
x = 356;
y = 665;
},
{
segmentType = line;
smooth = 1;
x = 975;
y = 665;
},
{
smooth = 0;
x = 1024;
y = 665;
},
{
smooth = 0;
x = 1049;
y = 698;
},
{
segmentType = curve;
smooth = 1;
x = 1049;
y = 734;
},
{
smooth = 0;
x = 1049;
y = 770;
},
{
smooth = 0;
x = 1026;
y = 803;
},
{
segmentType = curve;
smooth = 1;
x = 975;
y = 803;
},
{
segmentType = line;
smooth = 0;
x = 356;
y = 803;
},
{
segmentType = line;
smooth = 0;
x = 356;
y = 1285;
},
{
segmentType = line;
smooth = 1;
x = 1007;
y = 1285;
},
{
smooth = 0;
x = 1056;
y = 1285;
},
{
smooth = 0;
x = 1080;
y = 1319;
},
{
segmentType = curve;
smooth = 1;
x = 1080;
y = 1356;
},
{
smooth = 0;
x = 1080;
y = 1392;
},
{
smooth = 0;
x = 1056;
y = 1426;
},
{
segmentType = curve;
smooth = 1;
x = 1007;
y = 1426;
},
{
segmentType = line;
smooth = 1;
x = 261;
y = 1426;
},
{
smooth = 0;
x = 213;
y = 1426;
},
{
smooth = 0;
x = 178;
y = 1383;
},
{
segmentType = curve;
smooth = 1;
x = 178;
y = 1340;
},
{
segmentType = line;
smooth = 1;
x = 178;
y = 86;
},
{
smooth = 0;
x = 178;
y = 41;
},
{
smooth = 0;
x = 222;
y = 0;
}
);
}
);
lib = {
};
name = Z;
unicodes = (
);
width = 1165;
};
};
components = (
);
contours = (
);
lib = {
};
name = Z;
unicodes = (
);
width = 1222;
};
},
{
glyphname = a;
lastChange = "2016-08-29 15:56:25 +0000";
layers = (
{
anchors = (
{
name = bottom;
position = "{250, 0}";
},
{
name = ogonek;
position = "{403, -1}";
},
{
name = top;
position = "{231, 481}";
}
);
layerId = "9E718F8A-2CEA-4931-B05D-987794BD97DA";
paths = (
{
closed = 1;
nodes = (
"371 20 LINE SMOOTH",
"371 5 OFFCURVE",
"382 -1 OFFCURVE",
"396 -1 CURVE SMOOTH",
"411 -1 OFFCURVE",
"427 7 OFFCURVE",
"427 22 CURVE SMOOTH",
"427 336 LINE SMOOTH",
"427 445 OFFCURVE",
"358 495 OFFCURVE",
"246 495 CURVE SMOOTH",
"173 495 OFFCURVE",
"113 480 OFFCURVE",
"63 446 CURVE",
"59 443 OFFCURVE",
"57 438 OFFCURVE",
"57 434 CURVE SMOOTH",
"57 423 OFFCURVE",
"67 412 OFFCURVE",
"79 412 CURVE SMOOTH",
"82 412 OFFCURVE",
"85 413 OFFCURVE",
"89 415 CURVE",
"136 439 OFFCURVE",
"174 455 OFFCURVE",
"246 455 CURVE SMOOTH",
"317 455 OFFCURVE",
"373 422 OFFCURVE",
"373 342 CURVE SMOOTH",
"373 273 LINE",
"105 273 OFFCURVE",
"32 244 OFFCURVE",
"32 129 CURVE SMOOTH",
"32 36 OFFCURVE",
"103 -12 OFFCURVE",
"205 -12 CURVE SMOOTH",
"286 -12 OFFCURVE",
"337 30 OFFCURVE",
"371 102 CURVE"
);
},
{
closed = 1;
nodes = (
"373 220 LINE SMOOTH",
"373 104 OFFCURVE",
"296 27 OFFCURVE",
"213 27 CURVE SMOOTH",
"136 27 OFFCURVE",
"85 57 OFFCURVE",
"85 132 CURVE SMOOTH",
"85 216 OFFCURVE",
"139 238 OFFCURVE",
"373 238 CURVE"
);
}
);
width = 500;
},
{
anchors = (
{
name = bottom;
position = "{256, 0}";
},
{
name = ogonek;
position = "{395, 7}";
},
{
name = top;
position = "{253, 485}";
}
);
layerId = "334510DF-EE69-4F45-9EE4-32E3392006F4";
paths = (
{
closed = 1;
nodes = (
"356 40 LINE SMOOTH",
"356 13 OFFCURVE",
"377 0 OFFCURVE",
"398 0 CURVE SMOOTH",
"420 0 OFFCURVE",
"443 14 OFFCURVE",
"443 41 CURVE SMOOTH",
"443 325 LINE SMOOTH",
"443 445 OFFCURVE",
"366 495 OFFCURVE",
"252 495 CURVE SMOOTH",
"174 495 OFFCURVE",
"117 477 OFFCURVE",
"72 452 CURVE SMOOTH",
"63 447 OFFCURVE",
"59 438 OFFCURVE",
"59 430 CURVE SMOOTH",
"59 413 OFFCURVE",
"73 396 OFFCURVE",
"90 396 CURVE SMOOTH",
"94 396 OFFCURVE",
"98 396 OFFCURVE",
"102 398 CURVE",
"140 416 OFFCURVE",
"186 435 OFFCURVE",
"250 435 CURVE SMOOTH",
"313 435 OFFCURVE",
"355 405 OFFCURVE",
"355 333 CURVE SMOOTH",
"355 280 LINE",
"119 280 OFFCURVE",
"33 261 OFFCURVE",
"33 132 CURVE SMOOTH",
"33 39 OFFCURVE",
"107 -9 OFFCURVE",
"206 -9 CURVE SMOOTH",
"291 -9 OFFCURVE",
"333 37 OFFCURVE",
"356 86 CURVE"
);
},
{
closed = 1;
nodes = (
"355 214 LINE SMOOTH",
"355 115 OFFCURVE",
"287 50 OFFCURVE",
"215 50 CURVE SMOOTH",
"158 50 OFFCURVE",
"117 74 OFFCURVE",
"117 136 CURVE SMOOTH",
"117 214 OFFCURVE",
"164 229 OFFCURVE",
"355 229 CURVE"
);
}
);
width = 512;
},
{
anchors = (
{
name = bottom;
position = "{273, 0}";
},
{
name = ogonek;
position = "{420, 15}";
},
{
name = top;
position = "{280, 489}";
}
);
layerId = "E1B555A7-F4E1-459C-9C1A-AE952106EEF9";
paths = (
{
closed = 1;
nodes = (
"351 81 LINE SMOOTH",
"351 26 OFFCURVE",
"385 -1 OFFCURVE",
"419 -1 CURVE SMOOTH",
"454 -1 OFFCURVE",
"488 26 OFFCURVE",
"488 80 CURVE SMOOTH",
"488 288 LINE SMOOTH",
"488 448 OFFCURVE",
"399 500 OFFCURVE",
"275 500 CURVE SMOOTH",
"210 500 OFFCURVE",
"132 483 OFFCURVE",
"88 462 CURVE SMOOTH",
"69 452 OFFCURVE",
"61 434 OFFCURVE",
"61 416 CURVE SMOOTH",
"61 388 OFFCURVE",
"81 359 OFFCURVE",
"108 359 CURVE SMOOTH",
"113 359 OFFCURVE",
"119 360 OFFCURVE",
"125 362 CURVE SMOOTH",
"157 376 OFFCURVE",
"208 397 OFFCURVE",
"266 397 CURVE SMOOTH",
"315 397 OFFCURVE",
"345 375 OFFCURVE",
"345 322 CURVE SMOOTH",
"345 292 LINE",
"118 292 OFFCURVE",
"34 257 OFFCURVE",
"34 134 CURVE SMOOTH",
"34 51 OFFCURVE",
"103 -6 OFFCURVE",
"197 -6 CURVE SMOOTH",
"249 -6 OFFCURVE",
"322 5 OFFCURVE",
"351 89 CURVE"
);
},
{
closed = 1;
nodes = (
"345 203 LINE SMOOTH",
"345 131 OFFCURVE",
"285 82 OFFCURVE",
"231 82 CURVE SMOOTH",
"186 82 OFFCURVE",
"163 112 OFFCURVE",
"163 149 CURVE SMOOTH",
"163 217 OFFCURVE",
"229 222 OFFCURVE",
"345 222 CURVE"
);
}
);
width = 545;
}
);
unicode = 0061;
userData = {
anchors = (
);
b = {
};
com.typemytype.robofont.layerData = {
b = {
anchors = (
);
components = (
);
contours = (
);
lib = {
};
name = a;
unicodes = (
);
width = 1040;
};
};
components = (
);
contours = (
);
lib = {
};
name = a;
unicodes = (
);
width = 1101;
};
},
{
glyphname = ae;
lastChange = "2016-08-29 15:56:25 +0000";
layers = (
{
anchors = (
{
name = bottom;
position = "{410, 0}";
},
{
name = top;
position = "{415, 478}";
}
);
layerId = "9E718F8A-2CEA-4931-B05D-987794BD97DA";
paths = (
{
closed = 1;
nodes = (
"365 296 LINE",
"344 296 OFFCURVE",
"325 297 OFFCURVE",
"306 298 CURVE",
"148 298 OFFCURVE",
"37 254 OFFCURVE",
"37 135 CURVE SMOOTH",
"37 41 OFFCURVE",
"110 -15 OFFCURVE",
"203 -15 CURVE SMOOTH",
"267 -15 OFFCURVE",
"356 17 OFFCURVE",
"395 103 CURVE",
"424 34 OFFCURVE",
"477 -15 OFFCURVE",
"558 -15 CURVE SMOOTH",
"647 -15 OFFCURVE",
"746 39 OFFCURVE",
"746 78 CURVE SMOOTH",
"746 89 OFFCURVE",
"738 98 OFFCURVE",
"725 98 CURVE SMOOTH",
"719 98 OFFCURVE",
"711 96 OFFCURVE",
"704 89 CURVE",
"675 63 OFFCURVE",
"624 37 OFFCURVE",
"577 37 CURVE SMOOTH",
"470 37 OFFCURVE",
"428 124 OFFCURVE",
"426 228 CURVE",
"736 228 LINE SMOOTH",
"757 228 OFFCURVE",
"764 242 OFFCURVE",
"764 256 CURVE",
"759 389 OFFCURVE",
"704 496 OFFCURVE",
"567 496 CURVE SMOOTH",
"493 496 OFFCURVE",
"439 458 OFFCURVE",
"405 403 CURVE",
"381 468 OFFCURVE",
"327 496 OFFCURVE",
"245 496 CURVE SMOOTH",
"178 496 OFFCURVE",
"117 475 OFFCURVE",
"72 439 CURVE",
"65 433 OFFCURVE",
"62 426 OFFCURVE",
"62 418 CURVE SMOOTH",
"62 404 OFFCURVE",
"73 393 OFFCURVE",
"86 393 CURVE SMOOTH",
"92 393 OFFCURVE",
"98 395 OFFCURVE",
"105 400 CURVE SMOOTH",
"145 426 OFFCURVE",
"176 445 OFFCURVE",
"245 445 CURVE SMOOTH",
"315 445 OFFCURVE",
"365 420 OFFCURVE",
"365 340 CURVE SMOOTH"
);
},
{
closed = 1;
nodes = (
"364 193 LINE",
"359 89 OFFCURVE",
"293 39 OFFCURVE",
"211 37 CURVE",
"150 39 OFFCURVE",
"99 69 OFFCURVE",
"99 134 CURVE SMOOTH",
"99 260 OFFCURVE",
"278 237 OFFCURVE",
"364 243 CURVE"
);
},
{
closed = 1;
nodes = (
"429 280 LINE",
"436 364 OFFCURVE",
"480 444 OFFCURVE",
"568 444 CURVE SMOOTH",
"656 444 OFFCURVE",
"696 372 OFFCURVE",
"703 280 CURVE"
);
}
);
width = 819;
},
{
anchors = (
{
name = bottom;
position = "{417, 0}";
},
{
name = top;
position = "{420, 487}";
}
);
layerId = "334510DF-EE69-4F45-9EE4-32E3392006F4";
paths = (
{
closed = 1;
nodes = (
"359 297 LINE",
"341 298 OFFCURVE",
"323 298 OFFCURVE",
"306 299 CURVE SMOOTH",
"142 299 OFFCURVE",
"33 254 OFFCURVE",
"33 135 CURVE SMOOTH",
"33 41 OFFCURVE",
"106 -13 OFFCURVE",
"206 -13 CURVE SMOOTH",
"279 -13 OFFCURVE",
"362 18 OFFCURVE",
"399 95 CURVE",
"432 30 OFFCURVE",
"487 -13 OFFCURVE",
"568 -13 CURVE SMOOTH",
"664 -13 OFFCURVE",
"764 34 OFFCURVE",
"764 80 CURVE SMOOTH",
"764 95 OFFCURVE",
"753 107 OFFCURVE",
"739 107 CURVE SMOOTH",
"733 107 OFFCURVE",
"727 105 OFFCURVE",
"719 101 CURVE",
"687 79 OFFCURVE",
"639 55 OFFCURVE",
"589 55 CURVE SMOOTH",
"487 55 OFFCURVE",
"450 130 OFFCURVE",
"448 225 CURVE",
"751 225 LINE SMOOTH",
"774 225 OFFCURVE",
"784 241 OFFCURVE",
"784 257 CURVE",
"780 394 OFFCURVE",
"718 499 OFFCURVE",
"576 499 CURVE SMOOTH",
"504 499 OFFCURVE",
"449 465 OFFCURVE",
"413 413 CURVE",
"388 473 OFFCURVE",
"334 499 OFFCURVE",
"255 499 CURVE SMOOTH",
"174 499 OFFCURVE",
"109 477 OFFCURVE",
"72 435 CURVE SMOOTH",
"66 429 OFFCURVE",
"63 422 OFFCURVE",
"63 415 CURVE SMOOTH",
"63 399 OFFCURVE",
"77 385 OFFCURVE",
"93 385 CURVE SMOOTH",
"99 385 OFFCURVE",
"104 386 OFFCURVE",
"110 390 CURVE",
"149 412 OFFCURVE",
"185 431 OFFCURVE",
"252 431 CURVE SMOOTH",
"316 431 OFFCURVE",
"359 408 OFFCURVE",
"359 335 CURVE SMOOTH"
);
},
{
closed = 1;
nodes = (
"358 194 LINE",
"355 98 OFFCURVE",
"297 50 OFFCURVE",
"222 49 CURVE",
"166 50 OFFCURVE",
"120 78 OFFCURVE",
"120 138 CURVE SMOOTH",
"120 247 OFFCURVE",
"271 235 OFFCURVE",
"358 238 CURVE"
);
},
{
closed = 1;
nodes = (
"450 284 LINE",
"456 366 OFFCURVE",
"498 436 OFFCURVE",
"577 436 CURVE SMOOTH",
"656 436 OFFCURVE",
"694 373 OFFCURVE",
"700 284 CURVE"
);
}
);
width = 834;
},
{
anchors = (
{
name = bottom;
position = "{433, 0}";
},
{
name = top;
position = "{433, 484}";
}
);
layerId = "E1B555A7-F4E1-459C-9C1A-AE952106EEF9";
paths = (
{
closed = 1;
nodes = (
"348 300 LINE",
"337 300 OFFCURVE",
"318 301 OFFCURVE",
"307 301 CURVE SMOOTH",
"133 301 OFFCURVE",
"25 255 OFFCURVE",
"25 134 CURVE SMOOTH",
"25 41 OFFCURVE",
"96 -9 OFFCURVE",
"212 -9 CURVE SMOOTH",
"305 -9 OFFCURVE",
"373 16 OFFCURVE",
"410 75 CURVE",
"449 21 OFFCURVE",
"508 -9 OFFCURVE",
"589 -9 CURVE SMOOTH",
"623 -9 OFFCURVE",
"801 -6 OFFCURVE",
"801 81 CURVE SMOOTH",
"801 103 OFFCURVE",
"788 129 OFFCURVE",
"765 129 CURVE SMOOTH",
"762 129 OFFCURVE",
"758 129 OFFCURVE",
"754 128 CURVE",
"710 118 OFFCURVE",
"671 98 OFFCURVE",
"615 98 CURVE SMOOTH",
"520 98 OFFCURVE",
"496 150 OFFCURVE",
"495 219 CURVE",
"769 219 LINE SMOOTH",
"801 219 OFFCURVE",
"824 227 OFFCURVE",
"824 261 CURVE SMOOTH",
"824 406 OFFCURVE",
"744 505 OFFCURVE",
"595 505 CURVE SMOOTH",
"526 505 OFFCURVE",
"470 480 OFFCURVE",
"431 436 CURVE",
"401 483 OFFCURVE",
"354 503 OFFCURVE",
"287 505 CURVE SMOOTH",
"232 505 OFFCURVE",
"129 500 OFFCURVE",
"86 460 CURVE",
"75 448 OFFCURVE",
"68 432 OFFCURVE",
"68 412 CURVE SMOOTH",
"68 387 OFFCURVE",
"86 372 OFFCURVE",
"108 372 CURVE SMOOTH",
"116 372 OFFCURVE",
"123 372 OFFCURVE",
"131 374 CURVE",
"166 381 OFFCURVE",
"203 395 OFFCURVE",
"255 395 CURVE SMOOTH",
"304 395 OFFCURVE",
"348 384 OFFCURVE",
"348 324 CURVE SMOOTH"
);
},
{
closed = 1;
nodes = (
"347 197 LINE SMOOTH",
"345 121 OFFCURVE",
"305 76 OFFCURVE",
"244 76 CURVE SMOOTH",
"198 76 OFFCURVE",
"165 100 OFFCURVE",
"165 147 CURVE SMOOTH",
"165 219 OFFCURVE",
"304 227 OFFCURVE",
"347 227 CURVE"
);
},
{
closed = 1;
nodes = (
"494 293 LINE",
"498 368 OFFCURVE",
"533 416 OFFCURVE",
"596 416 CURVE SMOOTH",
"657 416 OFFCURVE",
"690 373 OFFCURVE",
"694 293 CURVE"
);
}
);
width = 866;
}
);
unicode = 00E6;
userData = {
com.typemytype.robofont.layerData = {
b = {
anchors = (
);
components = (
);
contours = (
);
lib = {
};
name = ae;
unicodes = (
);
width = 1734;
};
};
};
},
{
glyphname = b;
lastChange = "2016-08-29 15:56:25 +0000";
layers = (
{
anchors = (
{
name = bottom;
position = "{284, 0}";
},
{
name = top;
position = "{284, 498}";
}
);
layerId = "9E718F8A-2CEA-4931-B05D-987794BD97DA";
paths = (
{
closed = 1;
nodes = (
"140 667 LINE SMOOTH",
"140 683 OFFCURVE",
"126 692 OFFCURVE",
"112 692 CURVE SMOOTH",
"98 692 OFFCURVE",
"83 683 OFFCURVE",
"83 667 CURVE SMOOTH",
"83 26 LINE SMOOTH",
"83 9 OFFCURVE",
"96 2 OFFCURVE",
"110 2 CURVE SMOOTH",
"138 2 OFFCURVE",
"140 21 OFFCURVE",
"140 26 CURVE SMOOTH",
"140 97 LINE",
"171 25 OFFCURVE",
"241 -12 OFFCURVE",
"315 -12 CURVE SMOOTH",
"460 -12 OFFCURVE",
"523 107 OFFCURVE",
"523 244 CURVE SMOOTH",
"523 369 OFFCURVE",
"452 495 OFFCURVE",
"307 495 CURVE SMOOTH",
"235 495 OFFCURVE",
"166 454 OFFCURVE",
"140 385 CURVE"
);
},
{
closed = 1;
nodes = (
"425 455 OFFCURVE",
"467 339 OFFCURVE",
"467 239 CURVE SMOOTH",
"467 143 OFFCURVE",
"432 30 OFFCURVE",
"315 27 CURVE SMOOTH",
"181 27 OFFCURVE",
"141 137 OFFCURVE",
"141 244 CURVE SMOOTH",
"141 349 OFFCURVE",
"188 455 OFFCURVE",
"306 455 CURVE SMOOTH"
);
}
);
width = 567;
},
{
anchors = (
{
name = bottom;
position = "{291, 0}";
},
{
name = top;
position = "{291, 504}";
}
);
layerId = "334510DF-EE69-4F45-9EE4-32E3392006F4";
paths = (
{
closed = 1;
nodes = (
"163 657 LINE SMOOTH",
"163 684 OFFCURVE",
"141 698 OFFCURVE",
"118 698 CURVE SMOOTH",
"96 698 OFFCURVE",
"74 684 OFFCURVE",
"74 657 CURVE SMOOTH",
"74 42 LINE SMOOTH",
"74 15 OFFCURVE",
"96 1 OFFCURVE",
"118 1 CURVE SMOOTH",
"148 1 OFFCURVE",
"163 18 OFFCURVE",
"163 42 CURVE SMOOTH",
"163 85 LINE",
"195 21 OFFCURVE",
"257 -9 OFFCURVE",
"330 -9 CURVE SMOOTH",
"470 -9 OFFCURVE",
"540 111 OFFCURVE",
"540 246 CURVE SMOOTH",
"540 384 OFFCURVE",
"461 495 OFFCURVE",
"322 495 CURVE SMOOTH",
"250 495 OFFCURVE",
"192 463 OFFCURVE",
"163 403 CURVE"
);
},
{
closed = 1;
nodes = (
"417 435 OFFCURVE",
"452 332 OFFCURVE",
"452 244 CURVE SMOOTH",
"452 160 OFFCURVE",
"421 53 OFFCURVE",
"314 52 CURVE SMOOTH",
"198 52 OFFCURVE",
"163 136 OFFCURVE",
"163 245 CURVE SMOOTH",
"163 339 OFFCURVE",
"204 435 OFFCURVE",
"310 435 CURVE SMOOTH"
);
}
);
width = 581;
},
{
anchors = (
{
name = bottom;
position = "{313, 0}";
},
{
name = top;
position = "{313, 516}";
}
);
layerId = "E1B555A7-F4E1-459C-9C1A-AE952106EEF9";
paths = (
{
closed = 1;
nodes = (
"212 607 LINE SMOOTH",
"212 674 OFFCURVE",
"188 711 OFFCURVE",
"131 711 CURVE SMOOTH",
"77 711 OFFCURVE",
"57 674 OFFCURVE",
"57 607 CURVE SMOOTH",
"57 110 LINE SMOOTH",
"57 43 OFFCURVE",
"82 0 OFFCURVE",
"136 0 CURVE SMOOTH",
"186 0 OFFCURVE",
"211 33 OFFCURVE",
"211 76 CURVE SMOOTH",
"211 82 LINE",
"242 17 OFFCURVE",
"303 -9 OFFCURVE",
"374 -9 CURVE SMOOTH",
"493 -9 OFFCURVE",
"585 75 OFFCURVE",
"585 247 CURVE SMOOTH",
"585 417 OFFCURVE",
"485 497 OFFCURVE",
"367 497 CURVE SMOOTH",
"294 497 OFFCURVE",
"237 466 OFFCURVE",
"212 413 CURVE"
);
},
{
closed = 1;
nodes = (
"401 396 OFFCURVE",
"437 333 OFFCURVE",
"437 241 CURVE SMOOTH",
"437 170 OFFCURVE",
"410 86 OFFCURVE",
"328 86 CURVE SMOOTH",
"245 86 OFFCURVE",
"212 149 OFFCURVE",
"212 243 CURVE SMOOTH",
"212 347 OFFCURVE",
"255 396 OFFCURVE",
"325 396 CURVE SMOOTH"
);
}
);
width = 625;
}
);
unicode = 0062;
userData = {
anchors = (
);
b = {
};
com.typemytype.robofont.layerData = {
b = {
anchors = (
);
components = (
);
contours = (
{
points = (
{
segmentType = curve;
smooth = 1;
x = 238;
y = 1425;
},
{
smooth = 0;
x = 198;
y = 1425;
},
{
smooth = 0;
x = 158;
y = 1400;
},
{
segmentType = curve;
smooth = 1;
x = 158;
y = 1351;
},
{
segmentType = line;
smooth = 1;
x = 158;
y = 76;
},
{
smooth = 0;
x = 158;
y = 27;
},
{
smooth = 0;
x = 197;
y = 3;
},
{
segmentType = curve;
smooth = 1;
x = 237;
y = 3;
},
{
smooth = 0;
x = 297;
y = 3;
},
{
smooth = 0;
x = 318;
y = 38;
},
{
segmentType = curve;
smooth = 1;
x = 318;
y = 76;
},
{
segmentType = line;
smooth = 0;
x = 318;
y = 183;
},
{
smooth = 0;
x = 384;
y = 46;
},
{
smooth = 0;
x = 516;
y = "-20";
},
{
segmentType = curve;
smooth = 1;
x = 666;
y = "-20";
},
{
smooth = 0;
x = 957;
y = "-20";
},
{
smooth = 0;
x = 1095;
y = 225;
},
{
segmentType = curve;
smooth = 1;
x = 1095;
y = 502;
},
{
smooth = 0;
x = 1095;
y = 777;
},
{
smooth = 0;
x = 939;
y = 1013;
},
{
segmentType = curve;
smooth = 1;
x = 650;
y = 1013;
},
{
smooth = 0;
x = 503;
y = 1013;
},
{
smooth = 0;
x = 376;
y = 942;
},
{
segmentType = curve;
smooth = 0;
x = 318;
y = 814;
},
{
segmentType = line;
smooth = 1;
x = 318;
y = 1351;
},
{
smooth = 0;
x = 318;
y = 1400;
},
{
smooth = 0;
x = 278;
y = 1425;
}
);
},
{
points = (
{
segmentType = curve;
smooth = 1;
x = 632;
y = 903;
},
{
smooth = 0;
x = 859;
y = 903;
},
{
smooth = 0;
x = 935;
y = 685;
},
{
segmentType = curve;
smooth = 1;
x = 935;
y = 496;
},
{
smooth = 0;
x = 935;
y = 316;
},
{
smooth = 0;
x = 869;
y = 93;
},
{
segmentType = curve;
smooth = 0;
x = 645;
y = 90;
},
{
smooth = 0;
x = 395;
y = 90;
},
{
smooth = 0;
x = 319;
y = 279;
},
{
segmentType = curve;
smooth = 1;
x = 319;
y = 501;
},
{
smooth = 0;
x = 319;
y = 701;
},
{
smooth = 0;
x = 407;
y = 903;
}
);
}
);
lib = {
};
name = b;
unicodes = (
);
width = 1181;
};
};
components = (
);
contours = (
);
lib = {
};
name = b;
unicodes = (
);
width = 1203;
};
},
{
glyphname = c;
lastChange = "2016-08-29 15:56:25 +0000";
layers = (
{
anchors = (
{
name = bottom;
position = "{263, 7}";
},
{
name = top;
position = "{266, 485}";
}
);
layerId = "9E718F8A-2CEA-4931-B05D-987794BD97DA";
paths = (
{
closed = 1;
nodes = (
"136 495 OFFCURVE",
"44 389 OFFCURVE",
"44 241 CURVE SMOOTH",
"44 94 OFFCURVE",
"120 -14 OFFCURVE",
"261 -14 CURVE SMOOTH",
"319 -14 OFFCURVE",
"373 2 OFFCURVE",
"408 28 CURVE SMOOTH",
"418 36 OFFCURVE",
"423 44 OFFCURVE",
"423 51 CURVE SMOOTH",
"423 61 OFFCURVE",
"413 68 OFFCURVE",
"403 68 CURVE SMOOTH",
"399 68 OFFCURVE",
"395 67 OFFCURVE",
"391 65 CURVE",
"349 36 OFFCURVE",
"306 27 OFFCURVE",
"265 27 CURVE SMOOTH",
"134 27 OFFCURVE",
"100 154 OFFCURVE",
"100 236 CURVE SMOOTH",
"100 382 OFFCURVE",
"184 456 OFFCURVE",
"280 456 CURVE SMOOTH",
"317 456 OFFCURVE",
"356 445 OFFCURVE",
"391 418 CURVE",
"396 413 OFFCURVE",
"403 411 OFFCURVE",
"409 411 CURVE SMOOTH",
"418 411 OFFCURVE",
"425 417 OFFCURVE",
"425 426 CURVE SMOOTH",
"425 433 OFFCURVE",
"422 440 OFFCURVE",
"415 448 CURVE SMOOTH",
"386 477 OFFCURVE",
"333 495 OFFCURVE",
"283 495 CURVE SMOOTH"
);
}
);
width = 464;
},
{
anchors = (
{
name = bottom;
position = "{259, 3}";
},
{
name = top;
position = "{275, 490}";
}
);
layerId = "334510DF-EE69-4F45-9EE4-32E3392006F4";
paths = (
{
closed = 1;
nodes = (
"135 495 OFFCURVE",
"41 384 OFFCURVE",
"41 243 CURVE SMOOTH",
"41 102 OFFCURVE",
"127 -9 OFFCURVE",
"272 -9 CURVE SMOOTH",
"342 -9 OFFCURVE",
"393 11 OFFCURVE",
"420 33 CURVE SMOOTH",
"432 43 OFFCURVE",
"437 54 OFFCURVE",
"437 63 CURVE SMOOTH",
"437 78 OFFCURVE",
"425 89 OFFCURVE",
"410 89 CURVE SMOOTH",
"404 89 OFFCURVE",
"397 87 OFFCURVE",
"391 83 CURVE SMOOTH",
"360 62 OFFCURVE",
"322 52 OFFCURVE",
"279 52 CURVE SMOOTH",
"174 52 OFFCURVE",
"129 145 OFFCURVE",
"129 241 CURVE SMOOTH",
"129 361 OFFCURVE",
"194 435 OFFCURVE",
"286 435 CURVE SMOOTH",
"320 435 OFFCURVE",
"355 425 OFFCURVE",
"384 406 CURVE SMOOTH",
"391 402 OFFCURVE",
"398 400 OFFCURVE",
"405 400 CURVE SMOOTH",
"420 400 OFFCURVE",
"433 411 OFFCURVE",
"433 425 CURVE SMOOTH",
"433 434 OFFCURVE",
"428 444 OFFCURVE",
"416 454 CURVE SMOOTH",
"390 475 OFFCURVE",
"341 495 OFFCURVE",
"282 495 CURVE SMOOTH"
);
}
);
width = 468;
},
{
anchors = (
{
name = bottom;
position = "{287, 0}";
},
{
name = top;
position = "{294, 502}";
}
);
layerId = "E1B555A7-F4E1-459C-9C1A-AE952106EEF9";
paths = (
{
closed = 1;
nodes = (
"151 501 OFFCURVE",
"39 397 OFFCURVE",
"39 248 CURVE SMOOTH",
"39 72 OFFCURVE",
"165 -6 OFFCURVE",
"294 -6 CURVE SMOOTH",
"358 -6 OFFCURVE",
"424 11 OFFCURVE",
"456 37 CURVE SMOOTH",
"473 51 OFFCURVE",
"480 70 OFFCURVE",
"480 89 CURVE SMOOTH",
"480 120 OFFCURVE",
"460 149 OFFCURVE",
"431 149 CURVE SMOOTH",
"423 149 OFFCURVE",
"415 147 OFFCURVE",
"406 143 CURVE SMOOTH",
"379 129 OFFCURVE",
"343 119 OFFCURVE",
"314 119 CURVE SMOOTH",
"232 119 OFFCURVE",
"199 183 OFFCURVE",
"199 249 CURVE SMOOTH",
"199 338 OFFCURVE",
"247 375 OFFCURVE",
"313 378 CURVE SMOOTH",
"348 380 OFFCURVE",
"385 365 OFFCURVE",
"403 355 CURVE SMOOTH",
"413 351 OFFCURVE",
"421 348 OFFCURVE",
"429 348 CURVE SMOOTH",
"458 348 OFFCURVE",
"478 375 OFFCURVE",
"478 405 CURVE SMOOTH",
"478 422 OFFCURVE",
"470 441 OFFCURVE",
"454 455 CURVE SMOOTH",
"423 482 OFFCURVE",
"364 501 OFFCURVE",
"299 501 CURVE SMOOTH"
);
}
);
width = 509;
}
);
unicode = 0063;
userData = {
anchors = (
);
b = {
};
com.typemytype.robofont.layerData = {
b = {
anchors = (
);
components = (
);
contours = (
);
lib = {
};
name = c;
unicodes = (
);
width = 956.1410;
};
};
components = (
);
contours = (
);
lib = {
};
name = c;
unicodes = (
);
width = 992;
};
},
{
glyphname = d;
lastChange = "2016-08-29 15:56:25 +0000";
layers = (
{
anchors = (
{
name = bottom;
position = "{284, 0}";
},
{
name = caron.alt;
position = "{431, 470}";
},
{
name = center;
position = "{284, 249}";
},
{
name = mid;
position = "{428, 589}";
},
{
name = top;
position = "{284, 498}";
},
{
name = topright;
position = "{558, 498}";
}
);
layerId = "9E718F8A-2CEA-4931-B05D-987794BD97DA";
paths = (
{
closed = 1;
nodes = (
"427 26 LINE SMOOTH",
"427 21 OFFCURVE",
"429 2 OFFCURVE",
"457 2 CURVE SMOOTH",
"471 2 OFFCURVE",
"484 9 OFFCURVE",
"484 26 CURVE SMOOTH",
"484 667 LINE SMOOTH",
"484 683 OFFCURVE",
"469 692 OFFCURVE",
"456 692 CURVE SMOOTH",
"441 692 OFFCURVE",
"427 683 OFFCURVE",
"427 667 CURVE SMOOTH",
"427 385 LINE",
"402 454 OFFCURVE",
"333 495 OFFCURVE",
"260 495 CURVE SMOOTH",
"115 495 OFFCURVE",
"44 369 OFFCURVE",
"44 244 CURVE SMOOTH",
"44 107 OFFCURVE",
"107 -12 OFFCURVE",
"252 -12 CURVE SMOOTH",
"326 -12 OFFCURVE",
"396 25 OFFCURVE",
"427 97 CURVE"
);
},
{
closed = 1;
nodes = (
"379 455 OFFCURVE",
"427 349 OFFCURVE",
"427 244 CURVE SMOOTH",
"427 137 OFFCURVE",
"386 27 OFFCURVE",
"252 27 CURVE SMOOTH",
"135 30 OFFCURVE",
"100 143 OFFCURVE",
"100 239 CURVE SMOOTH",
"100 339 OFFCURVE",
"142 455 OFFCURVE",
"261 455 CURVE SMOOTH"
);
}
);
width = 567;
},
{
anchors = (
{
name = bottom;
position = "{291, 0}";
},
{
name = caron.alt;
position = "{452, 490}";
},
{
name = center;
position = "{291, 252}";
},
{
name = mid;
position = "{436, 581}";
},
{
name = top;
position = "{291, 504}";
},
{
name = topright;
position = "{571, 504}";
}
);
layerId = "334510DF-EE69-4F45-9EE4-32E3392006F4";
paths = (
{
closed = 1;
nodes = (
"418 42 LINE SMOOTH",
"418 18 OFFCURVE",
"433 1 OFFCURVE",
"463 1 CURVE SMOOTH",
"485 1 OFFCURVE",
"507 15 OFFCURVE",
"507 42 CURVE SMOOTH",
"507 657 LINE SMOOTH",
"507 684 OFFCURVE",
"485 698 OFFCURVE",
"463 698 CURVE SMOOTH",
"440 698 OFFCURVE",
"418 684 OFFCURVE",
"418 657 CURVE SMOOTH",
"418 403 LINE",
"389 463 OFFCURVE",
"331 495 OFFCURVE",
"259 495 CURVE SMOOTH",
"120 495 OFFCURVE",
"41 384 OFFCURVE",
"41 246 CURVE SMOOTH",
"41 111 OFFCURVE",
"111 -9 OFFCURVE",
"251 -9 CURVE SMOOTH",
"324 -9 OFFCURVE",
"386 21 OFFCURVE",
"418 85 CURVE"
);
},
{
closed = 1;
nodes = (
"377 435 OFFCURVE",
"418 339 OFFCURVE",
"418 245 CURVE SMOOTH",
"418 136 OFFCURVE",
"382 52 OFFCURVE",
"267 52 CURVE SMOOTH",
"160 53 OFFCURVE",
"129 160 OFFCURVE",
"129 244 CURVE SMOOTH",
"129 332 OFFCURVE",
"165 435 OFFCURVE",
"271 435 CURVE SMOOTH"
);
}
);
width = 581;
},
{
anchors = (
{
name = bottom;
position = "{313, 0}";
},
{
name = caron.alt;
position = "{461, 484}";
},
{
name = center;
position = "{313, 258}";
},
{
name = mid;
position = "{483, 575}";
},
{
name = top;
position = "{313, 516}";
},
{
name = topright;
position = "{615, 516}";
}
);
layerId = "E1B555A7-F4E1-459C-9C1A-AE952106EEF9";
paths = (
{
closed = 1;
nodes = (
"413 76 LINE SMOOTH",
"413 33 OFFCURVE",
"438 0 OFFCURVE",
"489 0 CURVE SMOOTH",
"543 0 OFFCURVE",
"567 43 OFFCURVE",
"567 110 CURVE SMOOTH",
"567 607 LINE SMOOTH",
"567 674 OFFCURVE",
"547 711 OFFCURVE",
"493 711 CURVE SMOOTH",
"436 711 OFFCURVE",
"413 674 OFFCURVE",
"413 607 CURVE SMOOTH",
"413 413 LINE",
"388 466 OFFCURVE",
"330 497 OFFCURVE",
"257 497 CURVE SMOOTH",
"139 497 OFFCURVE",
"39 417 OFFCURVE",
"39 247 CURVE SMOOTH",
"39 75 OFFCURVE",
"131 -9 OFFCURVE",
"251 -9 CURVE SMOOTH",
"322 -9 OFFCURVE",
"383 17 OFFCURVE",
"413 82 CURVE"
);
},
{
closed = 1;
nodes = (
"369 396 OFFCURVE",
"412 347 OFFCURVE",
"412 243 CURVE SMOOTH",
"412 149 OFFCURVE",
"380 86 OFFCURVE",
"296 86 CURVE SMOOTH",
"215 86 OFFCURVE",
"188 170 OFFCURVE",
"188 241 CURVE SMOOTH",
"188 333 OFFCURVE",
"223 396 OFFCURVE",
"299 396 CURVE SMOOTH"
);
}
);
width = 625;
}
);
unicode = 0064;
userData = {
anchors = (
);
b = {
};
com.typemytype.robofont.layerData = {
b = {
anchors = (
);
components = (
);
contours = (
);
lib = {
};
name = d;
unicodes = (
);
width = 1181;
};
};
components = (
);
contours = (
);
lib = {
};
name = d;
unicodes = (
);
width = 1207;
};
},
{
glyphname = eth;
lastChange = "2016-08-29 15:56:25 +0000";
layers = (
{
layerId = "9E718F8A-2CEA-4931-B05D-987794BD97DA";
paths = (
{
closed = 1;
nodes = (
"419 512 LINE",
"435 436 OFFCURVE",
"439 384 OFFCURVE",
"439 328 CURVE",
"439 320 LINE",
"410 393 OFFCURVE",
"338 430 OFFCURVE",
"257 430 CURVE SMOOTH",
"120 430 OFFCURVE",
"45 335 OFFCURVE",
"45 210 CURVE SMOOTH",
"45 83 OFFCURVE",
"126 -16 OFFCURVE",
"262 -16 CURVE SMOOTH",
"455 -16 OFFCURVE",
"508 139 OFFCURVE",
"508 297 CURVE SMOOTH",
"508 362 OFFCURVE",
"503 438 OFFCURVE",
"486 512 CURVE",
"553 512 LINE SMOOTH",
"571 512 OFFCURVE",
"582 527 OFFCURVE",
"582 541 CURVE SMOOTH",
"582 555 OFFCURVE",
"573 569 OFFCURVE",
"553 569 CURVE SMOOTH",
"470 569 LINE",
"453 619 OFFCURVE",
"399 737 OFFCURVE",
"351 737 CURVE SMOOTH",
"334 737 OFFCURVE",
"319 724 OFFCURVE",
"319 709 CURVE SMOOTH",
"319 702 OFFCURVE",
"322 694 OFFCURVE",
"330 688 CURVE",
"363 650 OFFCURVE",
"383 611 OFFCURVE",
"400 569 CURVE",
"316 569 LINE SMOOTH",
"296 569 OFFCURVE",
"287 554 OFFCURVE",
"287 540 CURVE SMOOTH",
"287 526 OFFCURVE",
"296 512 OFFCURVE",
"316 512 CURVE SMOOTH"
);
},
{
closed = 1;
nodes = (
"370 379 OFFCURVE",
"429 301 OFFCURVE",
"429 201 CURVE SMOOTH",
"429 117 OFFCURVE",
"363 40 OFFCURVE",
"271 40 CURVE SMOOTH",
"168 40 OFFCURVE",
"112 111 OFFCURVE",
"112 205 CURVE SMOOTH",
"112 294 OFFCURVE",
"154 379 OFFCURVE",
"259 379 CURVE SMOOTH"
);
}
);
width = 553;
},
{
layerId = "334510DF-EE69-4F45-9EE4-32E3392006F4";
paths = (
{
closed = 1;
nodes = (
"415 515 LINE",
"430 461 OFFCURVE",
"436 397 OFFCURVE",
"436 351 CURVE SMOOTH",
"436 335 LINE",
"404 404 OFFCURVE",
"336 436 OFFCURVE",
"259 436 CURVE SMOOTH",
"124 436 OFFCURVE",
"42 346 OFFCURVE",
"42 216 CURVE SMOOTH",
"42 83 OFFCURVE",
"131 -16 OFFCURVE",
"276 -16 CURVE SMOOTH",
"473 -16 OFFCURVE",
"537 135 OFFCURVE",
"537 305 CURVE SMOOTH",
"537 369 OFFCURVE",
"530 442 OFFCURVE",
"513 515 CURVE",
"578 515 LINE SMOOTH",
"599 515 OFFCURVE",
"609 531 OFFCURVE",
"609 546 CURVE SMOOTH",
"609 562 OFFCURVE",
"599 578 OFFCURVE",
"578 578 CURVE SMOOTH",
"493 578 LINE",
"462 655 OFFCURVE",
"411 749 OFFCURVE",
"362 749 CURVE SMOOTH",
"338 749 OFFCURVE",
"319 730 OFFCURVE",
"319 709 CURVE SMOOTH",
"319 700 OFFCURVE",
"322 691 OFFCURVE",
"329 683 CURVE SMOOTH",
"354 652 OFFCURVE",
"378 613 OFFCURVE",
"393 578 CURVE",
"307 578 LINE SMOOTH",
"285 578 OFFCURVE",
"274 562 OFFCURVE",
"274 546 CURVE SMOOTH",
"274 530 OFFCURVE",
"285 515 OFFCURVE",
"307 515 CURVE SMOOTH"
);
},
{
closed = 1;
nodes = (
"372 370 OFFCURVE",
"425 301 OFFCURVE",
"425 207 CURVE SMOOTH",
"425 126 OFFCURVE",
"366 58 OFFCURVE",
"283 58 CURVE SMOOTH",
"190 58 OFFCURVE",
"140 121 OFFCURVE",
"140 211 CURVE SMOOTH",
"140 295 OFFCURVE",
"179 370 OFFCURVE",
"272 370 CURVE SMOOTH"
);
}
);
width = 579;
},
{
layerId = "E1B555A7-F4E1-459C-9C1A-AE952106EEF9";
paths = (
{
closed = 1;
nodes = (
"405 522 LINE",
"420 471 OFFCURVE",
"430 427 OFFCURVE",
"430 385 CURVE",
"430 375 LINE",
"392 434 OFFCURVE",
"326 451 OFFCURVE",
"259 451 CURVE SMOOTH",
"126 451 OFFCURVE",
"36 363 OFFCURVE",
"36 229 CURVE SMOOTH",
"36 78 OFFCURVE",
"144 -18 OFFCURVE",
"306 -18 CURVE SMOOTH",
"514 -18 OFFCURVE",
"597 126 OFFCURVE",
"597 322 CURVE SMOOTH",
"597 387 OFFCURVE",
"586 456 OFFCURVE",
"567 522 CURVE",
"615 522 LINE SMOOTH",
"648 522 OFFCURVE",
"667 530 OFFCURVE",
"667 560 CURVE SMOOTH",
"667 594 OFFCURVE",
"642 598 OFFCURVE",
"615 598 CURVE SMOOTH",
"539 598 LINE",
"484 727 OFFCURVE",
"441 774 OFFCURVE",
"389 774 CURVE SMOOTH",
"352 774 OFFCURVE",
"317 748 OFFCURVE",
"317 713 CURVE SMOOTH",
"317 696 OFFCURVE",
"330 675 OFFCURVE",
"344 652 CURVE SMOOTH",
"354 635 OFFCURVE",
"365 617 OFFCURVE",
"374 598 CURVE",
"286 598 LINE SMOOTH",
"260 598 OFFCURVE",
"248 579 OFFCURVE",
"248 560 CURVE SMOOTH",
"248 540 OFFCURVE",
"260 522 OFFCURVE",
"286 522 CURVE SMOOTH"
);
},
{
closed = 1;
nodes = (
"375 348 OFFCURVE",
"417 303 OFFCURVE",
"417 222 CURVE SMOOTH",
"417 146 OFFCURVE",
"372 101 OFFCURVE",
"307 101 CURVE SMOOTH",
"235 101 OFFCURVE",
"196 143 OFFCURVE",
"196 224 CURVE SMOOTH",
"196 299 OFFCURVE",
"229 348 OFFCURVE",
"300 348 CURVE SMOOTH"
);
}
);
width = 634;
}
);
unicode = 00F0;
userData = {
com.typemytype.robofont.layerData = {
b = {
anchors = (
);
components = (
);
contours = (
);
lib = {
};
name = eth;
unicodes = (
);
width = 1230;
};
};
};
},
{
glyphname = e;
lastChange = "2016-08-29 15:56:25 +0000";
layers = (
{
anchors = (
{
name = bottom;
position = "{283, 0}";
},
{
name = ogonek;
position = "{352, 7}";
},
{
name = top;
position = "{289, 489}";
}
);
background = {
paths = (
{
closed = 1;
nodes = (
"359 -10 OFFCURVE",
"430 13 OFFCURVE",
"474 51 CURVE",
"458 82 LINE",
"414 50 OFFCURVE",
"355 29 OFFCURVE",
"295 29 CURVE SMOOTH",
"172 29 OFFCURVE",
"95 110 OFFCURVE",
"97 239 CURVE",
"496 239 LINE",
"496 266 LINE SMOOTH",
"496 404 OFFCURVE",
"413 495 OFFCURVE",
"283 495 CURVE SMOOTH",
"142 495 OFFCURVE",
"50 395 OFFCURVE",
"50 239 CURVE SMOOTH",
"50 87 OFFCURVE",
"145 -10 OFFCURVE",
"295 -10 CURVE SMOOTH"
);
},
{
closed = 1;
nodes = (
"109 384 OFFCURVE",
"181 456 OFFCURVE",
"283 456 CURVE SMOOTH",
"383 456 OFFCURVE",
"452 384 OFFCURVE",
"458 271 CURVE",
"100 271 LINE"
);
}
);
};
layerId = "9E718F8A-2CEA-4931-B05D-987794BD97DA";
paths = (
{
closed = 1;
nodes = (
"466 235 LINE SMOOTH",
"487 235 OFFCURVE",
"498 244 OFFCURVE",
"498 255 CURVE",
"492 382 OFFCURVE",
"443 495 OFFCURVE",
"281 495 CURVE SMOOTH",
"135 495 OFFCURVE",
"50 375 OFFCURVE",
"50 237 CURVE SMOOTH",
"50 83 OFFCURVE",
"158 -12 OFFCURVE",
"279 -12 CURVE SMOOTH",
"390 -12 OFFCURVE",
"444 34 OFFCURVE",
"476 66 CURVE SMOOTH",
"483 74 OFFCURVE",
"486 82 OFFCURVE",
"486 88 CURVE SMOOTH",
"486 98 OFFCURVE",
"479 105 OFFCURVE",
"469 105 CURVE SMOOTH",
"463 105 OFFCURVE",
"457 103 OFFCURVE",
"450 97 CURVE SMOOTH",
"410 63 OFFCURVE",
"364 31 OFFCURVE",
"281 31 CURVE SMOOTH",
"193 33 OFFCURVE",
"107 98 OFFCURVE",
"107 235 CURVE SMOOTH"
);
},
{
closed = 1;
nodes = (
"109 272 LINE",
"116 369 OFFCURVE",
"176 455 OFFCURVE",
"287 455 CURVE SMOOTH",
"394 455 OFFCURVE",
"441 375 OFFCURVE",
"446 272 CURVE"
);
}
);
width = 566;
},
{
anchors = (
{
name = bottom;
position = "{273, 0}";
},
{
name = ogonek;
position = "{367, 16}";
},
{
name = top;
position = "{283, 489}";
}
);
background = {
paths = (
{
closed = 1;
nodes = (
"297 -11 CURVE SMOOTH",
"143 -11 OFFCURVE",
"44 87 OFFCURVE",
"44 238 CURVE SMOOTH",
"44 386 OFFCURVE",
"139 491 OFFCURVE",
"283 491 CURVE SMOOTH",
"420 491 OFFCURVE",
"496 391 OFFCURVE",
"496 250 CURVE SMOOTH",
"496 249 OFFCURVE",
"496 242 OFFCURVE",
"495 227 CURVE",
"134 227 LINE",
"136 117 OFFCURVE",
"205 59 OFFCURVE",
"300 59 CURVE SMOOTH",
"359 59 OFFCURVE",
"410 77 OFFCURVE",
"453 113 CURVE",
"479 49 LINE",
"430 9 OFFCURVE",
"368 -11 OFFCURVE"
);
},
{
closed = 1;
nodes = (
"136 287 CURVE",
"420 287 LINE",
"411 376 OFFCURVE",
"357 422 OFFCURVE",
"284 422 CURVE SMOOTH",
"207 422 OFFCURVE",
"148 374 OFFCURVE"
);
}
);
};
layerId = "334510DF-EE69-4F45-9EE4-32E3392006F4";
paths = (
{
closed = 1;
nodes = (
"468 225 LINE SMOOTH",
"490 225 OFFCURVE",
"499 240 OFFCURVE",
"499 258 CURVE",
"496 384 OFFCURVE",
"436 495 OFFCURVE",
"278 495 CURVE SMOOTH",
"129 495 OFFCURVE",
"44 377 OFFCURVE",
"44 244 CURVE SMOOTH",
"44 86 OFFCURVE",
"148 -8 OFFCURVE",
"285 -9 CURVE SMOOTH",
"375 -9 OFFCURVE",
"432 25 OFFCURVE",
"471 61 CURVE SMOOTH",
"481 69 OFFCURVE",
"485 79 OFFCURVE",
"485 88 CURVE SMOOTH",
"485 104 OFFCURVE",
"473 119 OFFCURVE",
"457 119 CURVE SMOOTH",
"451 119 OFFCURVE",
"445 117 OFFCURVE",
"438 112 CURVE SMOOTH",
"400 83 OFFCURVE",
"355 54 OFFCURVE",
"291 54 CURVE SMOOTH",
"205 55 OFFCURVE",
"134 107 OFFCURVE",
"133 225 CURVE"
);
},
{
closed = 1;
nodes = (
"134 279 LINE",
"141 357 OFFCURVE",
"188 435 OFFCURVE",
"283 435 CURVE SMOOTH",
"377 435 OFFCURVE",
"417 363 OFFCURVE",
"422 279 CURVE"
);
}
);
width = 546;
},
{
anchors = (
{
name = bottom;
position = "{281, 0}";
},
{
name = ogonek;
position = "{393, 16}";
},
{
name = top;
position = "{298, 489}";
}
);
layerId = "E1B555A7-F4E1-459C-9C1A-AE952106EEF9";
paths = (
{
closed = 1;
nodes = (
"476 222 LINE SMOOTH",
"507 222 OFFCURVE",
"525 234 OFFCURVE",
"525 262 CURVE",
"524 390 OFFCURVE",
"462 500 OFFCURVE",
"296 500 CURVE SMOOTH",
"143 500 OFFCURVE",
"39 391 OFFCURVE",
"39 248 CURVE SMOOTH",
"39 78 OFFCURVE",
"152 -6 OFFCURVE",
"303 -6 CURVE SMOOTH",
"411 -6 OFFCURVE",
"467 37 OFFCURVE",
"502 68 CURVE SMOOTH",
"512 77 OFFCURVE",
"515 88 OFFCURVE",
"515 99 CURVE SMOOTH",
"515 127 OFFCURVE",
"489 157 OFFCURVE",
"464 157 CURVE SMOOTH",
"457 157 OFFCURVE",
"450 155 OFFCURVE",
"443 149 CURVE SMOOTH",
"414 125 OFFCURVE",
"369 103 OFFCURVE",
"321 103 CURVE SMOOTH",
"235 103 OFFCURVE",
"196 148 OFFCURVE",
"193 222 CURVE"
);
},
{
closed = 1;
nodes = (
"194 293 LINE",
"198 359 OFFCURVE",
"232 411 OFFCURVE",
"298 411 CURVE SMOOTH",
"370 411 OFFCURVE",
"392 362 OFFCURVE",
"396 293 CURVE"
);
}
);
width = 563;
}
);
unicode = 0065;
userData = {
anchors = (
);
b = {
};
com.typemytype.robofont.layerData = {
b = {
anchors = (
);
components = (
);
contours = (
);
lib = {
};
name = e;
unicodes = (
);
width = 1132;
};
};
components = (
);
contours = (
);
lib = {
};
name = e;
unicodes = (
);
width = 1132;
};
},
{
glyphname = f;
lastChange = "2016-08-29 15:56:25 +0000";
layers = (
{
anchors = (
{
name = bottom;
position = "{166, 0}";
},
{
name = top;
position = "{166, 498}";
}
);
layerId = "9E718F8A-2CEA-4931-B05D-987794BD97DA";
paths = (
{
closed = 1;
nodes = (
"181 476 LINE",
"181 505 LINE SMOOTH",
"181 637 OFFCURVE",
"195 658 OFFCURVE",
"257 658 CURVE SMOOTH",
"298 658 LINE SMOOTH",
"313 658 OFFCURVE",
"319 668 OFFCURVE",
"319 679 CURVE SMOOTH",
"319 689 OFFCURVE",
"313 699 OFFCURVE",
"299 699 CURVE SMOOTH",
"242 699 LINE SMOOTH",
"177 699 OFFCURVE",
"125 675 OFFCURVE",
"125 544 CURVE SMOOTH",
"125 476 LINE",
"46 476 LINE SMOOTH",
"29 476 OFFCURVE",
"24 469 OFFCURVE",
"24 457 CURVE SMOOTH",
"24 446 OFFCURVE",
"29 438 OFFCURVE",
"45 438 CURVE SMOOTH",
"125 438 LINE",
"125 28 LINE SMOOTH",
"125 9 OFFCURVE",
"139 0 OFFCURVE",
"152 0 CURVE SMOOTH",
"166 0 OFFCURVE",
"181 10 OFFCURVE",
"181 28 CURVE SMOOTH",
"181 438 LINE",
"279 438 LINE SMOOTH",
"297 438 OFFCURVE",
"299 444 OFFCURVE",
"299 457 CURVE SMOOTH",
"299 469 OFFCURVE",
"297 476 OFFCURVE",
"279 476 CURVE SMOOTH"
);
}
);
width = 332;
},
{
anchors = (
{
name = bottom;
position = "{172, 0}";
},
{
name = top;
position = "{172, 504}";
}
);
layerId = "334510DF-EE69-4F45-9EE4-32E3392006F4";
paths = (
{
closed = 1;
nodes = (
"204 480 LINE",
"204 519 LINE SMOOTH",
"204 623 OFFCURVE",
"221 637 OFFCURVE",
"272 637 CURVE SMOOTH",
"314 637 LINE SMOOTH",
"335 637 OFFCURVE",
"345 653 OFFCURVE",
"345 670 CURVE SMOOTH",
"345 687 OFFCURVE",
"334 704 OFFCURVE",
"314 704 CURVE SMOOTH",
"255 704 LINE SMOOTH",
"176 704 OFFCURVE",
"115 667 OFFCURVE",
"115 542 CURVE SMOOTH",
"115 480 LINE",
"51 480 LINE SMOOTH",
"29 480 OFFCURVE",
"20 467 OFFCURVE",
"20 451 CURVE SMOOTH",
"20 436 OFFCURVE",
"29 423 OFFCURVE",
"51 423 CURVE SMOOTH",
"115 423 LINE",
"115 43 LINE SMOOTH",
"115 14 OFFCURVE",
"137 0 OFFCURVE",
"159 0 CURVE SMOOTH",
"182 0 OFFCURVE",
"204 15 OFFCURVE",
"204 43 CURVE SMOOTH",
"204 423 LINE",
"286 423 LINE SMOOTH",
"309 423 OFFCURVE",
"317 435 OFFCURVE",
"317 451 CURVE SMOOTH",
"317 467 OFFCURVE",
"309 480 OFFCURVE",
"286 480 CURVE SMOOTH"
);
}
);
width = 344;
},
{
anchors = (
{
name = bottom;
position = "{184, 0}";
},
{
name = top;
position = "{184, 516}";
}
);
layerId = "E1B555A7-F4E1-459C-9C1A-AE952106EEF9";
paths = (
{
closed = 1;
nodes = (
"252 495 LINE",
"252 501 LINE SMOOTH",
"252 585 OFFCURVE",
"263 605 OFFCURVE",
"312 605 CURVE SMOOTH",
"341 605 LINE SMOOTH",
"374 605 OFFCURVE",
"388 632 OFFCURVE",
"388 659 CURVE SMOOTH",
"388 688 OFFCURVE",
"372 719 OFFCURVE",
"341 719 CURVE SMOOTH",
"288 719 LINE SMOOTH",
"154 719 OFFCURVE",
"96 661 OFFCURVE",
"96 521 CURVE SMOOTH",
"96 495 LINE",
"58 495 LINE SMOOTH",
"19 495 OFFCURVE",
"8 474 OFFCURVE",
"8 448 CURVE SMOOTH",
"8 410 OFFCURVE",
"29 401 OFFCURVE",
"64 401 CURVE SMOOTH",
"96 401 LINE",
"97 104 LINE SMOOTH",
"97 37 OFFCURVE",
"122 0 OFFCURVE",
"176 0 CURVE SMOOTH",
"229 0 OFFCURVE",
"252 37 OFFCURVE",
"252 104 CURVE SMOOTH",
"252 401 LINE",
"300 401 LINE SMOOTH",
"339 401 OFFCURVE",
"355 415 OFFCURVE",
"355 448 CURVE SMOOTH",
"355 483 OFFCURVE",
"334 495 OFFCURVE",
"306 495 CURVE SMOOTH"
);
}
);
width = 368;
}
);
unicode = 0066;
userData = {
anchors = (
);
b = {
};
com.typemytype.robofont.layerData = {
b = {
anchors = (
);
components = (
);
contours = (
);
lib = {
};
name = f;
unicodes = (
);
width = 696;
};
};
components = (
);
contours = (
);
lib = {
};
name = f;
unicodes = (
);
width = 723;
};
},
{
glyphname = g;
lastChange = "2016-08-29 15:56:25 +0000";
layers = (
{
anchors = (
{
name = bottom;
position = "{279, 0}";
},
{
name = top;
position = "{250, 481}";
}
);
layerId = "9E718F8A-2CEA-4931-B05D-987794BD97DA";
paths = (
{
closed = 1;
nodes = (
"481 456 LINE SMOOTH",
"481 472 OFFCURVE",
"470 481 OFFCURVE",
"456 481 CURVE SMOOTH",
"442 481 OFFCURVE",
"429 472 OFFCURVE",
"429 455 CURVE SMOOTH",
"429 377 LINE",
"401 450 OFFCURVE",
"340 495 OFFCURVE",
"255 495 CURVE SMOOTH",
"113 495 OFFCURVE",
"44 372 OFFCURVE",
"44 239 CURVE SMOOTH",
"44 125 OFFCURVE",
"107 0 OFFCURVE",
"257 0 CURVE SMOOTH",
"348 0 OFFCURVE",
"406 61 OFFCURVE",
"425 123 CURVE",
"425 0 LINE SMOOTH",
"425 -99 OFFCURVE",
"384 -151 OFFCURVE",
"262 -151 CURVE SMOOTH",
"197 -151 OFFCURVE",
"142 -134 OFFCURVE",
"119 -125 CURVE",
"117 -124 OFFCURVE",
"115 -124 OFFCURVE",
"113 -124 CURVE SMOOTH",
"102 -124 OFFCURVE",
"92 -135 OFFCURVE",
"92 -146 CURVE SMOOTH",
"92 -155 OFFCURVE",
"97 -164 OFFCURVE",
"110 -168 CURVE SMOOTH",
"137 -178 OFFCURVE",
"185 -195 OFFCURVE",
"265 -195 CURVE SMOOTH",
"402 -195 OFFCURVE",
"481 -130 OFFCURVE",
"481 -6 CURVE SMOOTH"
);
},
{
closed = 1;
nodes = (
"389 455 OFFCURVE",
"425 336 OFFCURVE",
"425 245 CURVE SMOOTH",
"425 127 OFFCURVE",
"355 40 OFFCURVE",
"266 40 CURVE SMOOTH",
"171 40 OFFCURVE",
"100 104 OFFCURVE",
"100 242 CURVE SMOOTH",
"100 364 OFFCURVE",
"154 455 OFFCURVE",
"264 455 CURVE SMOOTH"
);
}
);
width = 559;
},
{
anchors = (
{
name = bottom;
position = "{288, 0}";
},
{
name = top;
position = "{270, 485}";
}
);
layerId = "334510DF-EE69-4F45-9EE4-32E3392006F4";
paths = (
{
closed = 1;
nodes = (
"506 444 LINE SMOOTH",
"506 471 OFFCURVE",
"486 485 OFFCURVE",
"465 485 CURVE SMOOTH",
"445 485 OFFCURVE",
"426 473 OFFCURVE",
"424 450 CURVE",
"424 400 LINE",
"395 457 OFFCURVE",
"348 495 OFFCURVE",
"262 495 CURVE SMOOTH",
"120 495 OFFCURVE",
"41 381 OFFCURVE",
"41 240 CURVE SMOOTH",
"41 107 OFFCURVE",
"120 0 OFFCURVE",
"264 0 CURVE SMOOTH",
"341 0 OFFCURVE",
"396 40 OFFCURVE",
"421 97 CURVE",
"421 0 LINE SMOOTH",
"421 -93 OFFCURVE",
"370 -145 OFFCURVE",
"268 -145 CURVE SMOOTH",
"205 -145 OFFCURVE",
"160 -126 OFFCURVE",
"129 -115 CURVE SMOOTH",
"125 -113 OFFCURVE",
"122 -113 OFFCURVE",
"118 -113 CURVE SMOOTH",
"102 -113 OFFCURVE",
"89 -127 OFFCURVE",
"89 -143 CURVE SMOOTH",
"89 -153 OFFCURVE",
"94 -164 OFFCURVE",
"107 -171 CURVE SMOOTH",
"138 -188 OFFCURVE",
"196 -207 OFFCURVE",
"274 -207 CURVE SMOOTH",
"413 -207 OFFCURVE",
"506 -140 OFFCURVE",
"506 3 CURVE SMOOTH"
);
},
{
closed = 1;
nodes = (
"386 435 OFFCURVE",
"420 341 OFFCURVE",
"420 245 CURVE SMOOTH",
"420 124 OFFCURVE",
"358 59 OFFCURVE",
"278 59 CURVE SMOOTH",
"197 59 OFFCURVE",
"129 116 OFFCURVE",
"129 243 CURVE SMOOTH",
"129 347 OFFCURVE",
"174 435 OFFCURVE",
"278 435 CURVE SMOOTH"
);
}
);
width = 575;
},
{
anchors = (
{
name = bottom;
position = "{309, 0}";
},
{
name = top;
position = "{292, 484}";
}
);
layerId = "E1B555A7-F4E1-459C-9C1A-AE952106EEF9";
paths = (
{
closed = 1;
nodes = (
"558 382 LINE SMOOTH",
"558 452 OFFCURVE",
"540 492 OFFCURVE",
"485 492 CURVE SMOOTH",
"440 492 OFFCURVE",
"413 466 OFFCURVE",
"413 416 CURVE SMOOTH",
"413 405 LINE",
"390 460 OFFCURVE",
"346 498 OFFCURVE",
"262 498 CURVE SMOOTH",
"119 498 OFFCURVE",
"35 391 OFFCURVE",
"35 243 CURVE SMOOTH",
"35 104 OFFCURVE",
"126 -3 OFFCURVE",
"259 -3 CURVE SMOOTH",
"334 -3 OFFCURVE",
"389 25 OFFCURVE",
"411 86 CURVE",
"411 24 LINE SMOOTH",
"411 -73 OFFCURVE",
"378 -106 OFFCURVE",
"274 -106 CURVE SMOOTH",
"231 -106 OFFCURVE",
"192 -96 OFFCURVE",
"163 -88 CURVE",
"157 -86 OFFCURVE",
"151 -85 OFFCURVE",
"145 -85 CURVE SMOOTH",
"113 -85 OFFCURVE",
"91 -111 OFFCURVE",
"91 -139 CURVE SMOOTH",
"91 -158 OFFCURVE",
"102 -178 OFFCURVE",
"128 -190 CURVE",
"162 -205 OFFCURVE",
"232 -215 OFFCURVE",
"294 -215 CURVE SMOOTH",
"474 -215 OFFCURVE",
"558 -104 OFFCURVE",
"558 56 CURVE SMOOTH"
);
},
{
closed = 1;
nodes = (
"387 402 OFFCURVE",
"411 341 OFFCURVE",
"411 247 CURVE SMOOTH",
"411 146 OFFCURVE",
"367 103 OFFCURVE",
"305 102 CURVE SMOOTH",
"238 102 OFFCURVE",
"201 152 OFFCURVE",
"201 248 CURVE SMOOTH",
"201 335 OFFCURVE",
"224 402 OFFCURVE",
"304 402 CURVE SMOOTH"
);
}
);
width = 617;
}
);
unicode = 0067;
userData = {
anchors = (
);
b = {
};
com.typemytype.robofont.layerData = {
b = {
anchors = (
);
components = (
);
contours = (
);
lib = {
};
name = g;
unicodes = (
);
width = 1167;
};
};
components = (
);
contours = (
);
lib = {
};
name = g;
unicodes = (
);
width = 1207;
};
},
{
glyphname = h;
lastChange = "2016-08-29 15:56:25 +0000";
layers = (
{
anchors = (
{
name = bottom;
position = "{275, 0}";
},
{
name = center;
position = "{275, 249}";
},
{
name = top;
position = "{275, 498}";
}
);
layerId = "9E718F8A-2CEA-4931-B05D-987794BD97DA";
paths = (
{
closed = 1;
nodes = (
"83 26 LINE SMOOTH",
"83 8 OFFCURVE",
"97 0 OFFCURVE",
"111 0 CURVE SMOOTH",
"125 0 OFFCURVE",
"140 8 OFFCURVE",
"140 26 CURVE SMOOTH",
"140 285 LINE SMOOTH",
"140 400 OFFCURVE",
"212 444 OFFCURVE",
"301 444 CURVE SMOOTH",
"377 444 OFFCURVE",
"420 406 OFFCURVE",
"420 318 CURVE SMOOTH",
"420 26 LINE SMOOTH",
"420 8 OFFCURVE",
"433 0 OFFCURVE",
"448 0 CURVE SMOOTH",
"461 0 OFFCURVE",
"476 8 OFFCURVE",
"476 26 CURVE SMOOTH",
"476 310 LINE SMOOTH",
"476 445 OFFCURVE",
"399 495 OFFCURVE",
"305 495 CURVE SMOOTH",
"242 495 OFFCURVE",
"164 461 OFFCURVE",
"140 390 CURVE",
"140 667 LINE SMOOTH",
"140 685 OFFCURVE",
"126 692 OFFCURVE",
"112 692 CURVE SMOOTH",
"99 692 OFFCURVE",
"83 684 OFFCURVE",
"83 667 CURVE SMOOTH"
);
}
);
width = 550;
},
{
anchors = (
{
name = bottom;
position = "{283, 0}";
},
{
name = center;
position = "{283, 252}";
},
{
name = top;
position = "{283, 504}";
}
);
layerId = "334510DF-EE69-4F45-9EE4-32E3392006F4";
paths = (
{
closed = 1;
nodes = (
"74 42 LINE SMOOTH",
"74 14 OFFCURVE",
"96 0 OFFCURVE",
"118 0 CURVE SMOOTH",
"140 0 OFFCURVE",
"163 14 OFFCURVE",
"163 42 CURVE SMOOTH",
"163 279 LINE SMOOTH",
"163 379 OFFCURVE",
"229 429 OFFCURVE",
"305 429 CURVE SMOOTH",
"368 429 OFFCURVE",
"410 394 OFFCURVE",
"410 313 CURVE SMOOTH",
"410 42 LINE SMOOTH",
"410 14 OFFCURVE",
"432 0 OFFCURVE",
"454 0 CURVE SMOOTH",
"476 0 OFFCURVE",
"498 14 OFFCURVE",
"498 42 CURVE SMOOTH",
"498 309 LINE SMOOTH",
"498 442 OFFCURVE",
"417 495 OFFCURVE",
"324 495 CURVE SMOOTH",
"254 495 OFFCURVE",
"189 464 OFFCURVE",
"163 409 CURVE",
"163 657 LINE SMOOTH",
"163 684 OFFCURVE",
"141 697 OFFCURVE",
"119 697 CURVE SMOOTH",
"97 697 OFFCURVE",
"74 684 OFFCURVE",
"74 657 CURVE SMOOTH"
);
}
);
width = 565;
},
{
anchors = (
{
name = bottom;
position = "{302, 0}";
},
{
name = center;
position = "{302, 258}";
},
{
name = top;
position = "{302, 516}";
}
);
layerId = "E1B555A7-F4E1-459C-9C1A-AE952106EEF9";
paths = (
{
closed = 1;
nodes = (
"58 104 LINE SMOOTH",
"58 37 OFFCURVE",
"81 0 OFFCURVE",
"135 0 CURVE SMOOTH",
"192 0 OFFCURVE",
"213 37 OFFCURVE",
"213 104 CURVE SMOOTH",
"213 289 LINE SMOOTH",
"213 357 OFFCURVE",
"260 400 OFFCURVE",
"313 400 CURVE SMOOTH",
"358 400 OFFCURVE",
"393 369 OFFCURVE",
"393 310 CURVE SMOOTH",
"393 104 LINE SMOOTH",
"393 37 OFFCURVE",
"416 0 OFFCURVE",
"470 0 CURVE SMOOTH",
"527 0 OFFCURVE",
"548 37 OFFCURVE",
"548 104 CURVE SMOOTH",
"548 319 LINE SMOOTH",
"548 430 OFFCURVE",
"481 503 OFFCURVE",
"373 503 CURVE SMOOTH",
"297 503 OFFCURVE",
"244 473 OFFCURVE",
"213 418 CURVE",
"213 606 LINE SMOOTH",
"213 673 OFFCURVE",
"189 710 OFFCURVE",
"132 710 CURVE SMOOTH",
"78 710 OFFCURVE",
"58 673 OFFCURVE",
"58 606 CURVE SMOOTH"
);
}
);
width = 604;
}
);
unicode = 0068;
userData = {
anchors = (
);
b = {
};
com.typemytype.robofont.layerData = {
b = {
anchors = (
);
components = (
);
contours = (
);
lib = {
};
name = h;
unicodes = (
);
width = 1148;
};
};
components = (
);
contours = {
};
lib = {
};
name = h;
points = {
};
segmentType = curve;
unicodes = (
);
width = 1195;
x = 137;
y = 113;
};
},
{
glyphname = i;
lastChange = "2016-08-29 15:56:25 +0000";
layers = (
{
anchors = (
{
name = bottom;
position = "{119, 0}";
}
);
layerId = "9E718F8A-2CEA-4931-B05D-987794BD97DA";
paths = (
{
closed = 1;
nodes = (
"95 29 LINE SMOOTH",
"95 8 OFFCURVE",
"108 0 OFFCURVE",
"122 0 CURVE SMOOTH",
"136 0 OFFCURVE",
"151 10 OFFCURVE",
"151 29 CURVE SMOOTH",
"151 453 LINE SMOOTH",
"151 472 OFFCURVE",
"137 481 OFFCURVE",
"124 481 CURVE SMOOTH",
"110 481 OFFCURVE",
"95 472 OFFCURVE",
"95 453 CURVE SMOOTH"
);
},
{
closed = 1;
nodes = (
"97 694 OFFCURVE",
"79 678 OFFCURVE",
"79 653 CURVE SMOOTH",
"79 629 OFFCURVE",
"96 612 OFFCURVE",
"122 612 CURVE SMOOTH",
"148 612 OFFCURVE",
"167 629 OFFCURVE",
"167 653 CURVE SMOOTH",
"167 678 OFFCURVE",
"149 694 OFFCURVE",
"123 694 CURVE SMOOTH"
);
}
);
width = 238;
},
{
anchors = (
{
name = bottom;
position = "{120, 0}";
}
);
layerId = "334510DF-EE69-4F45-9EE4-32E3392006F4";
paths = (
{
closed = 1;
nodes = (
"80 44 LINE SMOOTH",
"80 14 OFFCURVE",
"101 0 OFFCURVE",
"123 0 CURVE SMOOTH",
"145 0 OFFCURVE",
"168 15 OFFCURVE",
"168 44 CURVE SMOOTH",
"168 441 LINE SMOOTH",
"168 470 OFFCURVE",
"146 485 OFFCURVE",
"125 485 CURVE SMOOTH",
"102 485 OFFCURVE",
"80 470 OFFCURVE",
"80 441 CURVE SMOOTH"
);
},
{
closed = 1;
nodes = (
"90 706 OFFCURVE",
"66 684 OFFCURVE",
"66 652 CURVE SMOOTH",
"66 620 OFFCURVE",
"89 598 OFFCURVE",
"124 598 CURVE SMOOTH",
"158 598 OFFCURVE",
"181 620 OFFCURVE",
"181 652 CURVE SMOOTH",
"181 684 OFFCURVE",
"158 706 OFFCURVE",
"124 706 CURVE SMOOTH"
);
}
);
width = 240;
},
{
anchors = (
{
name = bottom;
position = "{140, 0}";
}
);
layerId = "E1B555A7-F4E1-459C-9C1A-AE952106EEF9";
paths = (
{
closed = 1;
nodes = (
"66 104 LINE SMOOTH",
"66 37 OFFCURVE",
"87 0 OFFCURVE",
"146 0 CURVE SMOOTH",
"203 0 OFFCURVE",
"221 37 OFFCURVE",
"221 104 CURVE SMOOTH",
"221 388 LINE SMOOTH",
"221 455 OFFCURVE",
"198 492 OFFCURVE",
"141 492 CURVE SMOOTH",
"86 492 OFFCURVE",
"66 455 OFFCURVE",
"66 388 CURVE SMOOTH"
);
},
{
closed = 1;
nodes = (
"94 745 OFFCURVE",
"60 714 OFFCURVE",
"60 668 CURVE SMOOTH",
"60 621 OFFCURVE",
"94 590 OFFCURVE",
"144 590 CURVE SMOOTH",
"195 590 OFFCURVE",
"229 621 OFFCURVE",
"229 668 CURVE SMOOTH",
"229 714 OFFCURVE",
"195 745 OFFCURVE",
"145 745 CURVE SMOOTH"
);
}
);
width = 280;
}
);
unicode = 0069;
},
{
glyphname = idotless;
lastChange = "2016-08-29 15:56:25 +0000";
layers = (
{
anchors = (
{
name = bottom;
position = "{110, 0}";
},
{
name = ogonek;
position = "{199, 5}";
},
{
name = top;
position = "{111, 484}";
}
);
layerId = "9E718F8A-2CEA-4931-B05D-987794BD97DA";
paths = (
{
closed = 1;
nodes = (
"82 29 LINE SMOOTH",
"82 8 OFFCURVE",
"95 0 OFFCURVE",
"109 0 CURVE SMOOTH",
"123 0 OFFCURVE",
"138 10 OFFCURVE",
"138 29 CURVE SMOOTH",
"138 453 LINE SMOOTH",
"138 471 OFFCURVE",
"124 480 OFFCURVE",
"111 480 CURVE SMOOTH",
"97 480 OFFCURVE",
"82 471 OFFCURVE",
"82 453 CURVE SMOOTH"
);
}
);
width = 221;
},
{
anchors = (
{
name = bottom;
position = "{118, 0}";
},
{
name = ogonek;
position = "{213, 5}";
},
{
name = top;
position = "{119, 484}";
}
);
layerId = "334510DF-EE69-4F45-9EE4-32E3392006F4";
paths = (
{
closed = 1;
nodes = (
"74 44 LINE SMOOTH",
"74 14 OFFCURVE",
"95 0 OFFCURVE",
"117 0 CURVE SMOOTH",
"140 0 OFFCURVE",
"163 15 OFFCURVE",
"163 44 CURVE SMOOTH",
"163 441 LINE SMOOTH",
"163 470 OFFCURVE",
"141 485 OFFCURVE",
"119 485 CURVE SMOOTH",
"96 485 OFFCURVE",
"74 470 OFFCURVE",
"74 441 CURVE SMOOTH"
);
}
);
width = 236;
},
{
anchors = (
{
name = bottom;
position = "{135, 0}";
},
{
name = ogonek;
position = "{243, 5}";
},
{
name = top;
position = "{136, 484}";
}
);
layerId = "E1B555A7-F4E1-459C-9C1A-AE952106EEF9";
paths = (
{
closed = 1;
nodes = (
"57 114 LINE SMOOTH",
"57 38 OFFCURVE",
"83 0 OFFCURVE",
"135 0 CURVE SMOOTH",
"191 0 OFFCURVE",
"213 51 OFFCURVE",
"213 114 CURVE SMOOTH",
"213 381 LINE SMOOTH",
"213 458 OFFCURVE",
"187 496 OFFCURVE",
"136 496 CURVE SMOOTH",
"93 496 OFFCURVE",
"57 466 OFFCURVE",
"57 415 CURVE SMOOTH"
);
}
);
width = 270;
}
);
unicode = 0131;
},
{
glyphname = j;
lastChange = "2016-08-29 15:56:25 +0000";
layers = (
{
layerId = "9E718F8A-2CEA-4931-B05D-987794BD97DA";
paths = (
{
closed = 1;
nodes = (
"154 453 LINE SMOOTH",
"154 472 OFFCURVE",
"140 481 OFFCURVE",
"126 481 CURVE SMOOTH",
"112 481 OFFCURVE",
"97 472 OFFCURVE",
"97 453 CURVE SMOOTH",
"97 -44 LINE SMOOTH",
"97 -127 OFFCURVE",
"88 -134 OFFCURVE",
"14 -134 CURVE SMOOTH",
"-2 -134 OFFCURVE",
"-11 -146 OFFCURVE",
"-11 -159 CURVE SMOOTH",
"-11 -171 OFFCURVE",
"-3 -183 OFFCURVE",
"12 -183 CURVE SMOOTH",
"152 -183 OFFCURVE",
"154 -143 OFFCURVE",
"154 -29 CURVE SMOOTH"
);
},
{
closed = 1;
nodes = (
"100 694 OFFCURVE",
"82 678 OFFCURVE",
"82 653 CURVE SMOOTH",
"82 629 OFFCURVE",
"99 612 OFFCURVE",
"125 612 CURVE SMOOTH",
"152 612 OFFCURVE",
"170 629 OFFCURVE",
"170 653 CURVE SMOOTH",
"170 678 OFFCURVE",
"152 694 OFFCURVE",
"126 694 CURVE SMOOTH"
);
}
);
width = 235;
},
{
layerId = "334510DF-EE69-4F45-9EE4-32E3392006F4";
paths = (
{
closed = 1;
nodes = (
"171 441 LINE SMOOTH",
"171 470 OFFCURVE",
"149 485 OFFCURVE",
"128 485 CURVE SMOOTH",
"105 485 OFFCURVE",
"83 470 OFFCURVE",
"83 441 CURVE SMOOTH",
"83 -31 LINE SMOOTH",
"83 -109 OFFCURVE",
"74 -117 OFFCURVE",
"8 -117 CURVE SMOOTH",
"-12 -117 OFFCURVE",
"-22 -134 OFFCURVE",
"-22 -151 CURVE SMOOTH",
"-22 -167 OFFCURVE",
"-12 -185 OFFCURVE",
"10 -185 CURVE SMOOTH",
"160 -185 OFFCURVE",
"171 -136 OFFCURVE",
"171 -13 CURVE SMOOTH"
);
},
{
closed = 1;
nodes = (
"91 706 OFFCURVE",
"68 684 OFFCURVE",
"68 652 CURVE SMOOTH",
"68 620 OFFCURVE",
"91 598 OFFCURVE",
"125 598 CURVE SMOOTH",
"159 598 OFFCURVE",
"182 620 OFFCURVE",
"182 652 CURVE SMOOTH",
"182 684 OFFCURVE",
"160 706 OFFCURVE",
"125 706 CURVE SMOOTH"
);
}
);
width = 245;
},
{
layerId = "E1B555A7-F4E1-459C-9C1A-AE952106EEF9";
paths = (
{
closed = 1;
nodes = (
"233 394 LINE SMOOTH",
"233 461 OFFCURVE",
"214 492 OFFCURVE",
"156 492 CURVE SMOOTH",
"102 492 OFFCURVE",
"78 458 OFFCURVE",
"78 391 CURVE SMOOTH",
"78 19 LINE SMOOTH",
"78 -63 OFFCURVE",
"59 -77 OFFCURVE",
"4 -78 CURVE SMOOTH",
"-29 -78 OFFCURVE",
"-45 -104 OFFCURVE",
"-45 -132 CURVE SMOOTH",
"-45 -161 OFFCURVE",
"-27 -191 OFFCURVE",
"7 -191 CURVE SMOOTH",
"204 -191 OFFCURVE",
"233 -124 OFFCURVE",
"233 3 CURVE SMOOTH"
);
},
{
closed = 1;
nodes = (
"98 745 OFFCURVE",
"64 714 OFFCURVE",
"64 668 CURVE SMOOTH",
"64 621 OFFCURVE",
"98 590 OFFCURVE",
"149 590 CURVE SMOOTH",
"200 590 OFFCURVE",
"233 621 OFFCURVE",
"233 668 CURVE SMOOTH",
"233 714 OFFCURVE",
"200 745 OFFCURVE",
"149 745 CURVE SMOOTH"
);
}
);
width = 292;
}
);
unicode = 006A;
},
{
glyphname = jdotless;
lastChange = "2016-08-29 15:56:25 +0000";
layers = (
{
anchors = (
{
name = bottom;
position = "{109, 0}";
},
{
name = top;
position = "{110, 482}";
}
);
layerId = "9E718F8A-2CEA-4931-B05D-987794BD97DA";
paths = (
{
closed = 1;
nodes = (
"137 458 LINE SMOOTH",
"137 473 OFFCURVE",
"118 482 OFFCURVE",
"110 482 CURVE SMOOTH",
"101 482 OFFCURVE",
"82 474 OFFCURVE",
"82 459 CURVE SMOOTH",
"82 -49 LINE SMOOTH",
"82 -129 OFFCURVE",
"76 -135 OFFCURVE",
"4 -135 CURVE SMOOTH",
"-11 -135 OFFCURVE",
"-19 -147 OFFCURVE",
"-19 -160 CURVE SMOOTH",
"-19 -171 OFFCURVE",
"-12 -182 OFFCURVE",
"3 -182 CURVE SMOOTH",
"137 -182 OFFCURVE",
"137 -142 OFFCURVE",
"137 -21 CURVE SMOOTH"
);
}
);
width = 219;
},
{
anchors = (
{
name = bottom;
position = "{120, 0}";
},
{
name = top;
position = "{121, 484}";
}
);
layerId = "334510DF-EE69-4F45-9EE4-32E3392006F4";
paths = (
{
closed = 1;
nodes = (
"165 438 LINE SMOOTH",
"165 470 OFFCURVE",
"146 485 OFFCURVE",
"121 485 CURVE SMOOTH",
"96 485 OFFCURVE",
"76 469 OFFCURVE",
"76 438 CURVE SMOOTH",
"76 -28 LINE SMOOTH",
"76 -109 OFFCURVE",
"65 -117 OFFCURVE",
"-1 -117 CURVE SMOOTH",
"-22 -117 OFFCURVE",
"-32 -134 OFFCURVE",
"-32 -151 CURVE SMOOTH",
"-32 -168 OFFCURVE",
"-22 -185 OFFCURVE",
"0 -185 CURVE SMOOTH",
"155 -185 OFFCURVE",
"165 -136 OFFCURVE",
"165 -14 CURVE SMOOTH"
);
}
);
width = 239;
},
{
anchors = (
{
name = bottom;
position = "{139, 0}";
},
{
name = top;
position = "{142, 484}";
}
);
layerId = "E1B555A7-F4E1-459C-9C1A-AE952106EEF9";
paths = (
{
closed = 1;
nodes = (
"219 396 LINE SMOOTH",
"219 461 OFFCURVE",
"200 492 OFFCURVE",
"142 492 CURVE SMOOTH",
"88 492 OFFCURVE",
"64 458 OFFCURVE",
"64 393 CURVE SMOOTH",
"64 18 LINE SMOOTH",
"64 -64 OFFCURVE",
"45 -77 OFFCURVE",
"-10 -79 CURVE SMOOTH",
"-43 -79 OFFCURVE",
"-60 -104 OFFCURVE",
"-60 -132 CURVE SMOOTH",
"-60 -161 OFFCURVE",
"-41 -191 OFFCURVE",
"-7 -191 CURVE SMOOTH",
"190 -191 OFFCURVE",
"219 -124 OFFCURVE",
"219 3 CURVE SMOOTH"
);
}
);
width = 277;
}
);
unicode = 0237;
},
{
glyphname = k;
lastChange = "2016-08-29 15:56:25 +0000";
layers = (
{
anchors = (
{
name = bottom;
position = "{241, 0}";
},
{
name = top;
position = "{232, 498}";
}
);
layerId = "9E718F8A-2CEA-4931-B05D-987794BD97DA";
paths = (
{
closed = 1;
nodes = (
"140 282 LINE",
"140 664 LINE SMOOTH",
"140 683 OFFCURVE",
"125 692 OFFCURVE",
"112 692 CURVE SMOOTH",
"98 692 OFFCURVE",
"83 683 OFFCURVE",
"83 664 CURVE SMOOTH",
"83 29 LINE SMOOTH",
"83 8 OFFCURVE",
"97 0 OFFCURVE",
"110 0 CURVE SMOOTH",
"125 0 OFFCURVE",
"140 10 OFFCURVE",
"140 29 CURVE SMOOTH",
"140 271 LINE",
"379 12 LINE",
"385 5 OFFCURVE",
"392 2 OFFCURVE",
"398 2 CURVE SMOOTH",
"412 2 OFFCURVE",
"424 15 OFFCURVE",
"424 28 CURVE SMOOTH",
"424 34 OFFCURVE",
"421 40 OFFCURVE",
"417 45 CURVE SMOOTH",
"202 274 LINE",
"407 447 LINE SMOOTH",
"415 453 OFFCURVE",
"417 460 OFFCURVE",
"417 466 CURVE SMOOTH",
"417 479 OFFCURVE",
"403 490 OFFCURVE",
"390 490 CURVE SMOOTH",
"386 490 OFFCURVE",
"381 488 OFFCURVE",
"378 486 CURVE"
);
}
);
width = 464;
},
{
anchors = (
{
name = bottom;
position = "{259, 0}";
},
{
name = top;
position = "{244, 504}";
}
);
layerId = "334510DF-EE69-4F45-9EE4-32E3392006F4";
paths = (
{
closed = 1;
nodes = (
"163 280 LINE",
"163 653 LINE SMOOTH",
"163 683 OFFCURVE",
"141 697 OFFCURVE",
"119 697 CURVE SMOOTH",
"97 697 OFFCURVE",
"74 683 OFFCURVE",
"74 653 CURVE SMOOTH",
"74 44 LINE SMOOTH",
"74 14 OFFCURVE",
"96 0 OFFCURVE",
"118 0 CURVE SMOOTH",
"140 0 OFFCURVE",
"163 15 OFFCURVE",
"163 44 CURVE SMOOTH",
"163 257 LINE",
"392 13 LINE SMOOTH",
"401 3 OFFCURVE",
"412 0 OFFCURVE",
"421 0 CURVE SMOOTH",
"443 0 OFFCURVE",
"462 19 OFFCURVE",
"462 40 CURVE SMOOTH",
"462 48 OFFCURVE",
"459 57 OFFCURVE",
"452 65 CURVE SMOOTH",
"258 269 LINE",
"435 428 LINE SMOOTH",
"443 436 OFFCURVE",
"447 444 OFFCURVE",
"447 453 CURVE SMOOTH",
"447 473 OFFCURVE",
"428 492 OFFCURVE",
"407 492 CURVE SMOOTH",
"399 492 OFFCURVE",
"392 489 OFFCURVE",
"384 483 CURVE SMOOTH"
);
}
);
width = 488;
},
{
anchors = (
{
name = bottom;
position = "{281, 0}";
},
{
name = top;
position = "{275, 516}";
}
);
layerId = "E1B555A7-F4E1-459C-9C1A-AE952106EEF9";
paths = (
{
closed = 1;
nodes = (
"214 278 LINE",
"214 606 LINE SMOOTH",
"214 673 OFFCURVE",
"190 710 OFFCURVE",
"133 710 CURVE SMOOTH",
"79 710 OFFCURVE",
"59 673 OFFCURVE",
"59 606 CURVE SMOOTH",
"59 104 LINE SMOOTH",
"59 37 OFFCURVE",
"79 0 OFFCURVE",
"133 0 CURVE SMOOTH",
"190 0 OFFCURVE",
"214 37 OFFCURVE",
"214 104 CURVE SMOOTH",
"214 246 LINE",
"393 34 LINE",
"411 11 OFFCURVE",
"433 2 OFFCURVE",
"453 2 CURVE SMOOTH",
"491 2 OFFCURVE",
"525 33 OFFCURVE",
"525 70 CURVE SMOOTH",
"525 83 OFFCURVE",
"520 98 OFFCURVE",
"509 112 CURVE",
"371 263 LINE",
"491 386 LINE",
"503 400 OFFCURVE",
"508 417 OFFCURVE",
"508 431 CURVE SMOOTH",
"508 468 OFFCURVE",
"478 500 OFFCURVE",
"443 500 CURVE SMOOTH",
"427 500 OFFCURVE",
"409 493 OFFCURVE",
"393 474 CURVE"
);
}
);
width = 550;
}
);
unicode = 006B;
userData = {
com.typemytype.robofont.layerData = {
b = {
anchors = (
);
components = (
);
contours = (
{
points = (
{
segmentType = line;
smooth = 0;
x = 318;
y = 536;
},
{
segmentType = line;
smooth = 1;
x = 793;
y = 27;
},
{
smooth = 0;
x = 809;
y = 9;
},
{
smooth = 0;
x = 828;
y = 1;
},
{
segmentType = curve;
smooth = 1;
x = 845;
y = 1;
},
{
smooth = 0;
x = 883;
y = 1;
},
{
smooth = 0;
x = 922;
y = 33;
},
{
segmentType = curve;
smooth = 1;
x = 922;
y = 71;
},
{
smooth = 0;
x = 922;
y = 84;
},
{
smooth = 0;
x = 918;
y = 99;
},
{
segmentType = curve;
smooth = 1;
x = 906;
y = 112;
},
{
segmentType = line;
smooth = 0;
x = 492;
y = 554;
},
{
segmentType = line;
smooth = 1;
x = 873;
y = 889;
},
{
smooth = 0;
x = 888;
y = 902;
},
{
smooth = 0;
x = 894;
y = 918;
},
{
segmentType = curve;
smooth = 1;
x = 894;
y = 933;
},
{
smooth = 0;
x = 894;
y = 968;
},
{
smooth = 0;
x = 858;
y = 1002;
},
{
segmentType = curve;
smooth = 1;
x = 821;
y = 1002;
},
{
smooth = 0;
x = 802;
y = 1002;
},
{
smooth = 0;
x = 785;
y = 994;
},
{
segmentType = curve;
smooth = 0;
x = 770;
y = 979;
},
{
segmentType = line;
smooth = 0;
x = 318;
y = 574;
}
);
}
);
lib = {
};
name = k;
unicodes = (
);
width = 984;
};
};
};
},
{
glyphname = kgreenlandic;
lastChange = "2016-08-29 15:56:25 +0000";
layers = (
{
anchors = (
{
name = bottom;
position = "{231, 0}";
},
{
name = top;
position = "{231, 498}";
}
);
layerId = "9E718F8A-2CEA-4931-B05D-987794BD97DA";
paths = (
{
closed = 1;
nodes = (
"137 265 LINE",
"137 459 LINE SMOOTH",
"137 479 OFFCURVE",
"123 488 OFFCURVE",
"109 488 CURVE SMOOTH",
"96 488 OFFCURVE",
"81 479 OFFCURVE",
"81 459 CURVE SMOOTH",
"81 29 LINE SMOOTH",
"81 8 OFFCURVE",
"94 0 OFFCURVE",
"108 0 CURVE SMOOTH",
"123 0 OFFCURVE",
"137 10 OFFCURVE",
"137 29 CURVE SMOOTH",
"137 254 LINE",
"377 12 LINE SMOOTH",
"383 5 OFFCURVE",
"390 3 OFFCURVE",
"396 3 CURVE SMOOTH",
"410 3 OFFCURVE",
"422 16 OFFCURVE",
"422 29 CURVE SMOOTH",
"422 35 OFFCURVE",
"420 41 OFFCURVE",
"415 45 CURVE",
"200 257 LINE",
"405 447 LINE SMOOTH",
"412 454 OFFCURVE",
"415 460 OFFCURVE",
"415 466 CURVE SMOOTH",
"415 479 OFFCURVE",
"401 490 OFFCURVE",
"388 490 CURVE SMOOTH",
"384 490 OFFCURVE",
"379 489 OFFCURVE",
"375 486 CURVE SMOOTH"
);
}
);
width = 462;
},
{
anchors = (
{
name = bottom;
position = "{245, 0}";
},
{
name = top;
position = "{245, 504}";
}
);
layerId = "334510DF-EE69-4F45-9EE4-32E3392006F4";
paths = (
{
closed = 1;
nodes = (
"164 267 LINE",
"164 447 LINE SMOOTH",
"164 477 OFFCURVE",
"142 491 OFFCURVE",
"120 491 CURVE SMOOTH",
"98 491 OFFCURVE",
"76 477 OFFCURVE",
"76 447 CURVE SMOOTH",
"76 44 LINE SMOOTH",
"76 14 OFFCURVE",
"97 0 OFFCURVE",
"119 0 CURVE SMOOTH",
"141 0 OFFCURVE",
"164 15 OFFCURVE",
"164 44 CURVE SMOOTH",
"164 245 LINE",
"394 13 LINE SMOOTH",
"402 4 OFFCURVE",
"413 0 OFFCURVE",
"423 0 CURVE SMOOTH",
"445 0 OFFCURVE",
"464 19 OFFCURVE",
"464 40 CURVE SMOOTH",
"464 48 OFFCURVE",
"461 57 OFFCURVE",
"453 65 CURVE SMOOTH",
"259 256 LINE",
"436 428 LINE SMOOTH",
"444 436 OFFCURVE",
"447 444 OFFCURVE",
"447 453 CURVE SMOOTH",
"447 474 OFFCURVE",
"429 493 OFFCURVE",
"409 493 CURVE SMOOTH",
"401 493 OFFCURVE",
"393 490 OFFCURVE",
"385 483 CURVE SMOOTH"
);
}
);
width = 489;
},
{
anchors = (
{
name = bottom;
position = "{271, 0}";
},
{
name = top;
position = "{271, 516}";
}
);
layerId = "E1B555A7-F4E1-459C-9C1A-AE952106EEF9";
paths = (
{
closed = 1;
nodes = (
"215 284 LINE",
"215 400 LINE SMOOTH",
"215 468 OFFCURVE",
"192 505 OFFCURVE",
"135 505 CURVE SMOOTH",
"81 505 OFFCURVE",
"60 468 OFFCURVE",
"60 400 CURVE SMOOTH",
"60 104 LINE SMOOTH",
"60 37 OFFCURVE",
"81 0 OFFCURVE",
"135 0 CURVE SMOOTH",
"192 0 OFFCURVE",
"215 37 OFFCURVE",
"215 104 CURVE SMOOTH",
"215 251 LINE",
"392 34 LINE",
"410 11 OFFCURVE",
"431 1 OFFCURVE",
"452 1 CURVE SMOOTH",
"489 1 OFFCURVE",
"523 33 OFFCURVE",
"523 69 CURVE SMOOTH",
"523 83 OFFCURVE",
"518 98 OFFCURVE",
"507 112 CURVE",
"370 273 LINE",
"482 380 LINE",
"495 395 OFFCURVE",
"500 411 OFFCURVE",
"500 426 CURVE SMOOTH",
"500 463 OFFCURVE",
"468 499 OFFCURVE",
"434 499 CURVE SMOOTH",
"417 499 OFFCURVE",
"401 491 OFFCURVE",
"386 473 CURVE"
);
}
);
width = 542;
}
);
unicode = 0138;
userData = {
com.typemytype.robofont.layerData = {
b = {
anchors = (
);
components = (
);
contours = (
);
lib = {
};
name = kgreenlandic;
unicodes = (
);
width = 1047;
};
};
};
},
{
glyphname = l;
lastChange = "2016-08-29 15:56:25 +0000";
layers = (
{
anchors = (
{
name = bottom;
position = "{125, 0}";
},
{
name = caron.alt;
position = "{143, 470}";
},
{
name = center;
position = "{118, 249}";
},
{
name = top;
position = "{176, 693}";
},
{
name = topright;
position = "{226, 498}";
}
);
layerId = "9E718F8A-2CEA-4931-B05D-987794BD97DA";
paths = (
{
closed = 1;
nodes = (
"97 29 LINE SMOOTH",
"97 8 OFFCURVE",
"110 0 OFFCURVE",
"124 0 CURVE SMOOTH",
"138 0 OFFCURVE",
"153 10 OFFCURVE",
"153 29 CURVE SMOOTH",
"153 664 LINE SMOOTH",
"153 683 OFFCURVE",
"139 692 OFFCURVE",
"126 692 CURVE SMOOTH",
"112 692 OFFCURVE",
"97 683 OFFCURVE",
"97 664 CURVE SMOOTH"
);
}
);
width = 235;
},
{
anchors = (
{
name = bottom;
position = "{124, 0}";
},
{
name = caron.alt;
position = "{132, 491}";
},
{
name = center;
position = "{122, 252}";
},
{
name = top;
position = "{138, 698}";
},
{
name = topright;
position = "{233, 504}";
}
);
layerId = "334510DF-EE69-4F45-9EE4-32E3392006F4";
paths = (
{
closed = 1;
nodes = (
"81 44 LINE SMOOTH",
"81 14 OFFCURVE",
"102 0 OFFCURVE",
"124 0 CURVE SMOOTH",
"146 0 OFFCURVE",
"169 15 OFFCURVE",
"169 44 CURVE SMOOTH",
"169 653 LINE SMOOTH",
"169 683 OFFCURVE",
"147 697 OFFCURVE",
"125 697 CURVE SMOOTH",
"103 697 OFFCURVE",
"81 683 OFFCURVE",
"81 653 CURVE SMOOTH"
);
}
);
width = 243;
},
{
anchors = (
{
name = bottom;
position = "{142, 0}";
},
{
name = caron.alt;
position = "{147, 484}";
},
{
name = center;
position = "{140, 258}";
},
{
name = top;
position = "{141, 709}";
},
{
name = topright;
position = "{271, 516}";
}
);
layerId = "E1B555A7-F4E1-459C-9C1A-AE952106EEF9";
paths = (
{
closed = 1;
nodes = (
"67 104 LINE SMOOTH",
"67 37 OFFCURVE",
"87 0 OFFCURVE",
"142 0 CURVE SMOOTH",
"199 0 OFFCURVE",
"222 37 OFFCURVE",
"222 104 CURVE SMOOTH",
"222 606 LINE SMOOTH",
"222 673 OFFCURVE",
"199 710 OFFCURVE",
"142 710 CURVE SMOOTH",
"87 710 OFFCURVE",
"67 673 OFFCURVE",
"67 606 CURVE SMOOTH"
);
}
);
width = 280;
}
);
unicode = 006C;
userData = {
com.typemytype.robofont.layerData = {
b = {
anchors = (
);
components = (
);
contours = (
);
lib = {
};
name = l;
unicodes = (
);
width = 511;
};
};
};
},
{
glyphname = lslash;
lastChange = "2016-08-29 15:56:25 +0000";
layers = (
{
layerId = "9E718F8A-2CEA-4931-B05D-987794BD97DA";
paths = (
{
closed = 1;
nodes = (
"155 434 LINE",
"155 664 LINE SMOOTH",
"155 683 OFFCURVE",
"141 692 OFFCURVE",
"128 692 CURVE SMOOTH",
"114 692 OFFCURVE",
"99 683 OFFCURVE",
"99 664 CURVE SMOOTH",
"99 397 LINE",
"51 365 LINE SMOOTH",
"44 360 OFFCURVE",
"41 353 OFFCURVE",
"41 346 CURVE SMOOTH",
"41 333 OFFCURVE",
"51 320 OFFCURVE",
"63 320 CURVE SMOOTH",
"67 320 OFFCURVE",
"70 321 OFFCURVE",
"74 324 CURVE",
"99 340 LINE",
"99 29 LINE SMOOTH",
"99 8 OFFCURVE",
"112 0 OFFCURVE",
"126 0 CURVE SMOOTH",
"140 0 OFFCURVE",
"155 10 OFFCURVE",
"155 29 CURVE SMOOTH",
"155 378 LINE",
"213 417 LINE",
"220 420 OFFCURVE",
"222 426 OFFCURVE",
"222 432 CURVE SMOOTH",
"222 445 OFFCURVE",
"211 460 OFFCURVE",
"199 460 CURVE SMOOTH",
"195 460 OFFCURVE",
"192 459 OFFCURVE",
"189 457 CURVE SMOOTH"
);
}
);
width = 233;
},
{
layerId = "334510DF-EE69-4F45-9EE4-32E3392006F4";
paths = (
{
closed = 1;
nodes = (
"190 449 LINE",
"190 653 LINE SMOOTH",
"190 683 OFFCURVE",
"168 697 OFFCURVE",
"147 697 CURVE SMOOTH",
"125 697 OFFCURVE",
"102 683 OFFCURVE",
"102 653 CURVE SMOOTH",
"102 392 LINE",
"52 359 LINE SMOOTH",
"41 352 OFFCURVE",
"36 341 OFFCURVE",
"36 331 CURVE SMOOTH",
"36 314 OFFCURVE",
"49 298 OFFCURVE",
"65 298 CURVE SMOOTH",
"71 298 OFFCURVE",
"77 300 OFFCURVE",
"83 304 CURVE SMOOTH",
"102 316 LINE",
"102 44 LINE SMOOTH",
"102 14 OFFCURVE",
"124 0 OFFCURVE",
"146 0 CURVE SMOOTH",
"167 0 OFFCURVE",
"190 15 OFFCURVE",
"190 44 CURVE SMOOTH",
"190 372 LINE",
"250 410 LINE SMOOTH",
"259 416 OFFCURVE",
"264 426 OFFCURVE",
"264 435 CURVE SMOOTH",
"264 453 OFFCURVE",
"250 470 OFFCURVE",
"233 470 CURVE SMOOTH",
"227 470 OFFCURVE",
"222 469 OFFCURVE",
"216 465 CURVE SMOOTH"
);
}
);
width = 281;
},
{
layerId = "E1B555A7-F4E1-459C-9C1A-AE952106EEF9";
paths = (
{
closed = 1;
nodes = (
"270 480 LINE",
"270 606 LINE SMOOTH",
"270 673 OFFCURVE",
"247 710 OFFCURVE",
"189 710 CURVE SMOOTH",
"135 710 OFFCURVE",
"115 673 OFFCURVE",
"115 606 CURVE SMOOTH",
"115 380 LINE",
"51 338 LINE SMOOTH",
"36 329 OFFCURVE",
"30 313 OFFCURVE",
"30 297 CURVE SMOOTH",
"30 271 OFFCURVE",
"49 243 OFFCURVE",
"75 243 CURVE SMOOTH",
"82 243 OFFCURVE",
"89 246 OFFCURVE",
"98 250 CURVE",
"115 261 LINE",
"115 104 LINE SMOOTH",
"115 37 OFFCURVE",
"135 0 OFFCURVE",
"189 0 CURVE SMOOTH",
"247 0 OFFCURVE",
"270 37 OFFCURVE",
"270 104 CURVE SMOOTH",
"270 361 LINE",
"354 415 LINE SMOOTH",
"367 423 OFFCURVE",
"373 436 OFFCURVE",
"373 450 CURVE SMOOTH",
"373 478 OFFCURVE",
"351 508 OFFCURVE",
"325 508 CURVE SMOOTH",
"317 508 OFFCURVE",
"311 506 OFFCURVE",
"303 501 CURVE SMOOTH"
);
}
);
width = 375;
}
);
unicode = 0142;
},
{
glyphname = m;
lastChange = "2016-08-29 15:56:25 +0000";
layers = (
{
anchors = (
{
name = bottom;
position = "{445, 0}";
},
{
name = top;
position = "{455, 473}";
}
);
layerId = "9E718F8A-2CEA-4931-B05D-987794BD97DA";
paths = (
{
closed = 1;
nodes = (
"141 457 LINE SMOOTH",
"141 473 OFFCURVE",
"125 481 OFFCURVE",
"112 481 CURVE SMOOTH",
"99 481 OFFCURVE",
"83 472 OFFCURVE",
"83 456 CURVE SMOOTH",
"83 26 LINE SMOOTH",
"83 8 OFFCURVE",
"97 0 OFFCURVE",
"111 0 CURVE SMOOTH",
"126 0 OFFCURVE",
"141 8 OFFCURVE",
"141 26 CURVE SMOOTH",
"141 285 LINE SMOOTH",
"141 399 OFFCURVE",
"206 456 OFFCURVE",
"301 456 CURVE SMOOTH",
"376 456 OFFCURVE",
"420 407 OFFCURVE",
"420 288 CURVE SMOOTH",
"420 26 LINE SMOOTH",
"420 8 OFFCURVE",
"434 0 OFFCURVE",
"448 0 CURVE SMOOTH",
"461 0 OFFCURVE",
"477 8 OFFCURVE",
"477 26 CURVE SMOOTH",
"477 295 LINE SMOOTH",
"477 416 OFFCURVE",
"556 456 OFFCURVE",
"636 456 CURVE SMOOTH",
"713 456 OFFCURVE",
"757 408 OFFCURVE",
"757 316 CURVE SMOOTH",
"757 26 LINE SMOOTH",
"757 8 OFFCURVE",
"771 0 OFFCURVE",
"785 0 CURVE SMOOTH",
"798 0 OFFCURVE",
"813 8 OFFCURVE",
"813 26 CURVE SMOOTH",
"813 310 LINE SMOOTH",
"813 445 OFFCURVE",
"729 495 OFFCURVE",
"643 495 CURVE SMOOTH",
"550 495 OFFCURVE",
"486 456 OFFCURVE",
"461 374 CURVE",
"439 466 OFFCURVE",
"373 495 OFFCURVE",
"302 495 CURVE SMOOTH",
"223 495 OFFCURVE",
"161 450 OFFCURVE",
"141 392 CURVE"
);
}
);
width = 890;
},
{
anchors = (
{
name = bottom;
position = "{451, 0}";
},
{
name = top;
position = "{474, 489}";
}
);
layerId = "334510DF-EE69-4F45-9EE4-32E3392006F4";
paths = (
{
closed = 1;
nodes = (
"163 447 LINE SMOOTH",
"163 473 OFFCURVE",
"140 485 OFFCURVE",
"119 485 CURVE SMOOTH",
"97 485 OFFCURVE",
"74 471 OFFCURVE",
"74 444 CURVE SMOOTH",
"74 42 LINE SMOOTH",
"74 14 OFFCURVE",
"96 0 OFFCURVE",
"118 0 CURVE SMOOTH",
"140 0 OFFCURVE",
"163 14 OFFCURVE",
"163 42 CURVE SMOOTH",
"163 280 LINE SMOOTH",
"163 379 OFFCURVE",
"219 435 OFFCURVE",
"303 435 CURVE SMOOTH",
"369 435 OFFCURVE",
"409 394 OFFCURVE",
"409 300 CURVE SMOOTH",
"409 42 LINE SMOOTH",
"409 14 OFFCURVE",
"431 0 OFFCURVE",
"453 0 CURVE SMOOTH",
"475 0 OFFCURVE",
"497 14 OFFCURVE",
"497 42 CURVE SMOOTH",
"497 277 LINE SMOOTH",
"497 385 OFFCURVE",
"561 435 OFFCURVE",
"637 435 CURVE SMOOTH",
"705 435 OFFCURVE",
"744 394 OFFCURVE",
"744 312 CURVE SMOOTH",
"744 42 LINE SMOOTH",
"744 14 OFFCURVE",
"766 0 OFFCURVE",
"788 0 CURVE SMOOTH",
"810 0 OFFCURVE",
"833 14 OFFCURVE",
"833 42 CURVE SMOOTH",
"833 309 LINE SMOOTH",
"833 441 OFFCURVE",
"751 495 OFFCURVE",
"656 495 CURVE SMOOTH",
"572 495 OFFCURVE",
"509 458 OFFCURVE",
"481 381 CURVE",
"460 454 OFFCURVE",
"400 495 OFFCURVE",
"320 495 CURVE SMOOTH",
"250 495 OFFCURVE",
"191 462 OFFCURVE",
"163 401 CURVE"
);
}
);
width = 901;
},
{
anchors = (
{
name = bottom;
position = "{468, 0}";
},
{
name = top;
position = "{463, 484}";
}
);
layerId = "E1B555A7-F4E1-459C-9C1A-AE952106EEF9";
paths = (
{
closed = 1;
nodes = (
"214 411 LINE SMOOTH",
"214 463 OFFCURVE",
"187 492 OFFCURVE",
"136 492 CURVE SMOOTH",
"82 492 OFFCURVE",
"59 459 OFFCURVE",
"59 392 CURVE SMOOTH",
"59 104 LINE SMOOTH",
"59 38 OFFCURVE",
"80 0 OFFCURVE",
"134 0 CURVE SMOOTH",
"191 0 OFFCURVE",
"214 38 OFFCURVE",
"214 104 CURVE SMOOTH",
"214 303 LINE SMOOTH",
"214 367 OFFCURVE",
"257 400 OFFCURVE",
"313 400 CURVE SMOOTH",
"361 400 OFFCURVE",
"391 365 OFFCURVE",
"391 299 CURVE SMOOTH",
"391 104 LINE SMOOTH",
"391 37 OFFCURVE",
"413 0 OFFCURVE",
"467 0 CURVE SMOOTH",
"524 0 OFFCURVE",
"546 37 OFFCURVE",
"546 104 CURVE SMOOTH",
"546 292 LINE SMOOTH",
"546 364 OFFCURVE",
"592 400 OFFCURVE",
"646 400 CURVE SMOOTH",
"689 400 OFFCURVE",
"723 366 OFFCURVE",
"723 310 CURVE SMOOTH",
"723 104 LINE SMOOTH",
"723 38 OFFCURVE",
"746 0 OFFCURVE",
"800 0 CURVE SMOOTH",
"857 0 OFFCURVE",
"878 38 OFFCURVE",
"878 104 CURVE SMOOTH",
"878 319 LINE SMOOTH",
"878 440 OFFCURVE",
"808 500 OFFCURVE",
"715 500 CURVE SMOOTH",
"645 500 OFFCURVE",
"574 485 OFFCURVE",
"533 396 CURVE",
"506 485 OFFCURVE",
"447 500 OFFCURVE",
"379 500 CURVE SMOOTH",
"302 500 OFFCURVE",
"238 469 OFFCURVE",
"214 401 CURVE"
);
}
);
width = 937;
}
);
unicode = 006D;
userData = {
anchors = (
);
b = {
};
com.typemytype.robofont.layerData = {
b = {
anchors = (
);
components = (
);
contours = (
);
lib = {
};
name = m;
unicodes = (
);
width = 1838;
};
};
components = (
);
contours = (
);
lib = {
};
name = m;
unicodes = (
);
width = 1877;
};
},
{
glyphname = n;
lastChange = "2016-08-29 15:56:25 +0000";
layers = (
{
anchors = (
{
name = bottom;
position = "{276, 0}";
},
{
name = top;
position = "{300, 484}";
}
);
layerId = "9E718F8A-2CEA-4931-B05D-987794BD97DA";
paths = (
{
closed = 1;
nodes = (
"83 25 LINE SMOOTH",
"83 8 OFFCURVE",
"97 0 OFFCURVE",
"111 0 CURVE SMOOTH",
"125 0 OFFCURVE",
"140 9 OFFCURVE",
"140 25 CURVE SMOOTH",
"140 306 LINE",
"150 405 OFFCURVE",
"208 455 OFFCURVE",
"292 455 CURVE SMOOTH",
"383 455 OFFCURVE",
"420 400 OFFCURVE",
"420 304 CURVE SMOOTH",
"420 25 LINE SMOOTH",
"420 8 OFFCURVE",
"434 0 OFFCURVE",
"448 0 CURVE SMOOTH",
"462 0 OFFCURVE",
"476 8 OFFCURVE",
"476 25 CURVE SMOOTH",
"476 303 LINE SMOOTH",
"476 438 OFFCURVE",
"416 495 OFFCURVE",
"301 495 CURVE SMOOTH",
"229 495 OFFCURVE",
"160 458 OFFCURVE",
"140 387 CURVE",
"140 454 LINE SMOOTH",
"140 472 OFFCURVE",
"125 480 OFFCURVE",
"112 480 CURVE SMOOTH",
"99 480 OFFCURVE",
"83 472 OFFCURVE",
"83 454 CURVE SMOOTH"
);
}
);
width = 553;
},
{
anchors = (
{
name = bottom;
position = "{287, 0}";
},
{
name = top;
position = "{301, 484}";
}
);
layerId = "334510DF-EE69-4F45-9EE4-32E3392006F4";
paths = (
{
closed = 1;
nodes = (
"74 42 LINE SMOOTH",
"74 14 OFFCURVE",
"96 0 OFFCURVE",
"118 0 CURVE SMOOTH",
"140 0 OFFCURVE",
"163 14 OFFCURVE",
"163 42 CURVE SMOOTH",
"163 286 LINE",
"167 380 OFFCURVE",
"227 435 OFFCURVE",
"299 435 CURVE SMOOTH",
"369 435 OFFCURVE",
"410 391 OFFCURVE",
"410 307 CURVE SMOOTH",
"410 42 LINE SMOOTH",
"410 14 OFFCURVE",
"432 0 OFFCURVE",
"454 0 CURVE SMOOTH",
"476 0 OFFCURVE",
"498 14 OFFCURVE",
"498 42 CURVE SMOOTH",
"498 306 LINE SMOOTH",
"498 438 OFFCURVE",
"423 495 OFFCURVE",
"322 495 CURVE SMOOTH",
"249 495 OFFCURVE",
"188 462 OFFCURVE",
"163 402 CURVE",
"163 445 LINE SMOOTH",
"163 472 OFFCURVE",
"141 485 OFFCURVE",
"119 485 CURVE SMOOTH",
"97 485 OFFCURVE",
"74 471 OFFCURVE",
"74 443 CURVE SMOOTH"
);
}
);
width = 567;
},
{
anchors = (
{
name = bottom;
position = "{306, 0}";
},
{
name = top;
position = "{313, 484}";
}
);
layerId = "E1B555A7-F4E1-459C-9C1A-AE952106EEF9";
paths = (
{
closed = 1;
nodes = (
"58 104 LINE SMOOTH",
"58 37 OFFCURVE",
"78 0 OFFCURVE",
"132 0 CURVE SMOOTH",
"189 0 OFFCURVE",
"213 37 OFFCURVE",
"213 104 CURVE SMOOTH",
"213 290 LINE SMOOTH",
"213 354 OFFCURVE",
"257 400 OFFCURVE",
"313 400 CURVE SMOOTH",
"357 400 OFFCURVE",
"392 370 OFFCURVE",
"392 310 CURVE SMOOTH",
"392 104 LINE SMOOTH",
"392 37 OFFCURVE",
"413 0 OFFCURVE",
"467 0 CURVE SMOOTH",
"524 0 OFFCURVE",
"547 37 OFFCURVE",
"547 104 CURVE SMOOTH",
"547 313 LINE SMOOTH",
"547 434 OFFCURVE",
"479 501 OFFCURVE",
"384 501 CURVE SMOOTH",
"299 501 OFFCURVE",
"241 469 OFFCURVE",
"212 404 CURVE",
"212 406 LINE SMOOTH",
"212 462 OFFCURVE",
"189 492 OFFCURVE",
"136 492 CURVE SMOOTH",
"83 492 OFFCURVE",
"58 464 OFFCURVE",
"58 407 CURVE SMOOTH"
);
}
);
width = 600;
}
);
unicode = 006E;
userData = {
anchors = (
);
b = {
};
com.typemytype.robofont.layerData = {
b = {
anchors = (
);
components = (
);
contours = (
);
lib = {
};
name = n;
unicodes = (
);
width = 1152;
};
};
components = (
);
contours = {
};
lib = {
};
name = n;
points = {
};
segmentType = curve;
unicodes = (
);
width = 1195;
x = 137;
y = 113;
};
},
{
glyphname = eng;
lastChange = "2016-08-29 15:56:25 +0000";
layers = (
{
layerId = "9E718F8A-2CEA-4931-B05D-987794BD97DA";
paths = (
{
closed = 1;
nodes = (
"476 303 LINE SMOOTH",
"476 438 OFFCURVE",
"416 495 OFFCURVE",
"301 495 CURVE SMOOTH",
"229 495 OFFCURVE",
"160 458 OFFCURVE",
"140 387 CURVE",
"140 454 LINE SMOOTH",
"140 472 OFFCURVE",
"125 480 OFFCURVE",
"112 480 CURVE SMOOTH",
"99 480 OFFCURVE",
"83 472 OFFCURVE",
"83 454 CURVE SMOOTH",
"83 25 LINE SMOOTH",
"83 8 OFFCURVE",
"97 0 OFFCURVE",
"111 0 CURVE SMOOTH",
"125 0 OFFCURVE",
"140 9 OFFCURVE",
"140 25 CURVE SMOOTH",
"140 306 LINE",
"150 405 OFFCURVE",
"208 455 OFFCURVE",
"292 455 CURVE SMOOTH",
"383 455 OFFCURVE",
"420 400 OFFCURVE",
"420 304 CURVE SMOOTH",
"420 30 LINE SMOOTH",
"420 -68 OFFCURVE",
"379 -92 OFFCURVE",
"322 -92 CURVE SMOOTH",
"289 -92 OFFCURVE",
"251 -84 OFFCURVE",
"212 -78 CURVE SMOOTH",
"209 -77 OFFCURVE",
"206 -76 OFFCURVE",
"203 -76 CURVE SMOOTH",
"189 -76 OFFCURVE",
"182 -88 OFFCURVE",
"182 -99 CURVE SMOOTH",
"182 -108 OFFCURVE",
"186 -117 OFFCURVE",
"196 -120 CURVE SMOOTH",
"242 -133 OFFCURVE",
"285 -140 OFFCURVE",
"323 -140 CURVE SMOOTH",
"413 -140 OFFCURVE",
"476 -99 OFFCURVE",
"476 9 CURVE SMOOTH"
);
}
);
width = 555;
},
{
layerId = "334510DF-EE69-4F45-9EE4-32E3392006F4";
paths = (
{
closed = 1;
nodes = (
"498 306 LINE SMOOTH",
"498 438 OFFCURVE",
"423 495 OFFCURVE",
"322 495 CURVE SMOOTH",
"249 495 OFFCURVE",
"188 462 OFFCURVE",
"163 402 CURVE",
"163 445 LINE SMOOTH",
"163 472 OFFCURVE",
"141 485 OFFCURVE",
"119 485 CURVE SMOOTH",
"97 485 OFFCURVE",
"74 471 OFFCURVE",
"74 443 CURVE SMOOTH",
"74 42 LINE SMOOTH",
"74 14 OFFCURVE",
"96 0 OFFCURVE",
"118 0 CURVE SMOOTH",
"140 0 OFFCURVE",
"163 14 OFFCURVE",
"163 42 CURVE SMOOTH",
"163 286 LINE",
"167 380 OFFCURVE",
"227 435 OFFCURVE",
"299 435 CURVE SMOOTH",
"369 435 OFFCURVE",
"410 391 OFFCURVE",
"410 307 CURVE SMOOTH",
"410 39 LINE SMOOTH",
"410 -57 OFFCURVE",
"383 -97 OFFCURVE",
"317 -97 CURVE SMOOTH",
"289 -97 OFFCURVE",
"253 -90 OFFCURVE",
"210 -76 CURVE",
"206 -75 OFFCURVE",
"202 -74 OFFCURVE",
"199 -74 CURVE SMOOTH",
"180 -74 OFFCURVE",
"168 -90 OFFCURVE",
"168 -107 CURVE SMOOTH",
"168 -121 OFFCURVE",
"176 -136 OFFCURVE",
"195 -142 CURVE SMOOTH",
"243 -157 OFFCURVE",
"287 -165 OFFCURVE",
"326 -165 CURVE SMOOTH",
"432 -165 OFFCURVE",
"498 -104 OFFCURVE",
"498 39 CURVE SMOOTH"
);
}
);
width = 570;
},
{
layerId = "E1B555A7-F4E1-459C-9C1A-AE952106EEF9";
paths = (
{
closed = 1;
nodes = (
"547 313 LINE SMOOTH",
"547 434 OFFCURVE",
"479 501 OFFCURVE",
"384 501 CURVE SMOOTH",
"299 501 OFFCURVE",
"241 469 OFFCURVE",
"212 404 CURVE",
"212 406 LINE SMOOTH",
"212 462 OFFCURVE",
"189 492 OFFCURVE",
"136 492 CURVE SMOOTH",
"83 492 OFFCURVE",
"58 464 OFFCURVE",
"58 407 CURVE SMOOTH",
"58 104 LINE SMOOTH",
"58 37 OFFCURVE",
"78 0 OFFCURVE",
"132 0 CURVE SMOOTH",
"189 0 OFFCURVE",
"213 37 OFFCURVE",
"213 104 CURVE SMOOTH",
"213 290 LINE SMOOTH",
"213 354 OFFCURVE",
"257 400 OFFCURVE",
"313 400 CURVE SMOOTH",
"357 400 OFFCURVE",
"392 370 OFFCURVE",
"392 310 CURVE SMOOTH",
"392 34 LINE SMOOTH",
"392 -51 OFFCURVE",
"368 -92 OFFCURVE",
"298 -92 CURVE SMOOTH",
"272 -92 OFFCURVE",
"240 -86 OFFCURVE",
"200 -75 CURVE SMOOTH",
"194 -74 OFFCURVE",
"189 -73 OFFCURVE",
"184 -73 CURVE SMOOTH",
"155 -73 OFFCURVE",
"137 -98 OFFCURVE",
"137 -124 CURVE SMOOTH",
"137 -145 OFFCURVE",
"150 -167 OFFCURVE",
"180 -174 CURVE SMOOTH",
"236 -188 OFFCURVE",
"286 -196 OFFCURVE",
"330 -196 CURVE SMOOTH",
"468 -196 OFFCURVE",
"547 -123 OFFCURVE",
"547 63 CURVE SMOOTH"
);
}
);
width = 604;
}
);
unicode = 014B;
userData = {
com.typemytype.robofont.layerData = {
b = {
anchors = (
);
components = (
);
contours = (
);
lib = {
};
name = eng;
unicodes = (
);
width = 1158;
};
};
};
},
